CommissionerFlair-ExtraBold.ufo
<glyph name="numbersign" format="2">
  <advance width="706.078947368421"/>
  <unicode hex="0023"/>
  <outline>
    <contour>
      <point x="11.842105263157896" y="112.71052631578948" type="line"/>
      <point x="83.71052631578948" y="118.78947368421053"/>
      <point x="151.76315789473685" y="119.60526315789474"/>
      <point x="211.0" y="119.60526315789474" type="curve"/>
      <point x="447.9473684210526" y="119.60526315789474" type="line"/>
      <point x="507.1842105263158" y="119.60526315789474"/>
      <point x="575.2368421052631" y="118.78947368421053"/>
      <point x="647.1052631578947" y="112.71052631578948" type="curve"/>
      <point x="647.1052631578947" y="262.1842105263158" type="line"/>
      <point x="575.2368421052631" y="256.10526315789474"/>
      <point x="507.1842105263158" y="255.28947368421052"/>
      <point x="447.9473684210526" y="255.28947368421052" type="curve"/>
      <point x="211.0" y="255.28947368421052" type="line"/>
      <point x="151.76315789473685" y="255.28947368421052"/>
      <point x="83.71052631578948" y="256.10526315789474"/>
      <point x="11.842105263157896" y="262.1842105263158" type="curve"/>
    </contour>
    <contour>
      <point x="85.57894736842105" y="0.0" type="curve"/>
      <point x="250.28947368421052" y="0.0" type="line"/>
      <point x="249.42105263157896" y="68.8157894736842"/>
      <point x="259.7894736842105" y="132.3421052631579"/>
      <point x="274.5263157894737" y="217.1578947368421" type="curve"/>
      <point x="313.7368421052632" y="447.86842105263156" type="line"/>
      <point x="328.6578947368421" y="539.3157894736842"/>
      <point x="339.2105263157895" y="595.8684210526316"/>
      <point x="362.7368421052631" y="669.3157894736842" type="curve"/>
      <point x="199.65789473684208" y="669.3157894736842" type="line"/>
      <point x="198.71052631578948" y="592.6052631578947"/>
      <point x="190.78947368421052" y="536.8684210526316"/>
      <point x="175.8684210526316" y="448.2368421052632" type="curve"/>
      <point x="136.6578947368421" y="217.1578947368421" type="line"/>
      <point x="121.92105263157895" y="130.71052631578948"/>
      <point x="107.92105263157895" y="65.55263157894737"/>
    </contour>
    <contour>
      <point x="58.973684210526315" y="404.13157894736844" type="line"/>
      <point x="130.8421052631579" y="410.2105263157895"/>
      <point x="198.89473684210526" y="411.0263157894737"/>
      <point x="258.13157894736844" y="411.0263157894737" type="curve"/>
      <point x="495.07894736842104" y="411.0263157894737" type="line"/>
      <point x="554.3157894736842" y="411.0263157894737"/>
      <point x="622.3684210526316" y="410.2105263157895"/>
      <point x="694.2368421052631" y="404.13157894736844" type="curve"/>
      <point x="694.2368421052631" y="553.6052631578948" type="line"/>
      <point x="622.3684210526316" y="547.5263157894736"/>
      <point x="554.3157894736842" y="546.7105263157895"/>
      <point x="495.07894736842104" y="546.7105263157895" type="curve"/>
      <point x="258.13157894736844" y="546.7105263157895" type="line"/>
      <point x="198.89473684210526" y="546.7105263157895"/>
      <point x="130.8421052631579" y="547.5263157894736"/>
      <point x="58.973684210526315" y="553.6052631578948" type="curve"/>
    </contour>
    <contour>
      <point x="340.05263157894734" y="0.0" type="curve"/>
      <point x="504.7631578947369" y="0.0" type="line"/>
      <point x="503.89473684210526" y="68.8157894736842"/>
      <point x="514.2631578947369" y="132.3421052631579"/>
      <point x="529.0" y="217.1578947368421" type="curve"/>
      <point x="568.2105263157895" y="447.86842105263156" type="line"/>
      <point x="583.1315789473684" y="539.3157894736842"/>
      <point x="593.6842105263157" y="595.8684210526316"/>
      <point x="617.2105263157895" y="669.3157894736842" type="curve"/>
      <point x="454.13157894736844" y="669.3157894736842" type="line"/>
      <point x="453.1842105263158" y="592.6052631578947"/>
      <point x="445.2631578947368" y="536.8684210526316"/>
      <point x="430.3421052631579" y="448.2368421052632" type="curve"/>
      <point x="391.13157894736844" y="217.1578947368421" type="line"/>
      <point x="376.39473684210526" y="130.71052631578948"/>
      <point x="362.39473684210526" y="65.55263157894737"/>
    </contour>
  </outline>
</glyph>
<glyph name="percent" format="2">
  <advance width="972.6842105263158"/>
  <unicode hex="0025"/>
  <outline>
    <contour>
      <point x="171.52631578947367" y="0.0" type="curve"/>
      <point x="363.2631578947369" y="0.0" type="line"/>
      <point x="394.92105263157896" y="73.0"/>
      <point x="432.5526315789474" y="138.81578947368422"/>
      <point x="487.63157894736844" y="229.81578947368422" type="curve"/>
      <point x="636.421052631579" y="477.0" type="line"/>
      <point x="691.8684210526316" y="570.3684210526316"/>
      <point x="734.3947368421053" y="637.6315789473684"/>
      <point x="791.8157894736842" y="713.0" type="curve"/>
      <point x="601.7105263157895" y="713.0" type="line"/>
      <point x="569.0526315789474" y="637.6315789473684"/>
      <point x="528.9736842105264" y="570.3684210526316"/>
      <point x="473.5263157894737" y="477.0" type="curve"/>
      <point x="324.7368421052632" y="229.81578947368422" type="line"/>
      <point x="269.6578947368421" y="138.81578947368422"/>
      <point x="227.94736842105263" y="73.0"/>
    </contour>
    <contour>
      <point x="229.05263157894737" y="358.42105263157896" type="curve" smooth="yes"/>
      <point x="357.1578947368421" y="358.42105263157896"/>
      <point x="436.0526315789474" y="427.42105263157896"/>
      <point x="436.0526315789474" y="545.1052631578947" type="curve" smooth="yes"/>
      <point x="436.0526315789474" y="649.1842105263158"/>
      <point x="357.1578947368421" y="728.2631578947369"/>
      <point x="230.05263157894737" y="728.2631578947369" type="curve" smooth="yes"/>
      <point x="102.76315789473685" y="728.2631578947369"/>
      <point x="23.68421052631579" y="649.1842105263158"/>
      <point x="23.68421052631579" y="545.1052631578947" type="curve" smooth="yes"/>
      <point x="23.68421052631579" y="427.42105263157896"/>
      <point x="102.76315789473685" y="358.42105263157896"/>
    </contour>
    <contour>
      <point x="229.8684210526316" y="471.0" type="curve"/>
      <point x="189.0" y="475.44736842105266"/>
      <point x="159.10526315789474" y="500.15789473684214"/>
      <point x="159.10526315789474" y="542.6578947368421" type="curve" smooth="yes"/>
      <point x="159.10526315789474" y="581.3421052631579"/>
      <point x="187.36842105263156" y="609.6052631578947"/>
      <point x="230.05263157894737" y="614.8684210526316" type="curve"/>
      <point x="272.7368421052631" y="609.6052631578947"/>
      <point x="300.63157894736844" y="579.7105263157895"/>
      <point x="300.63157894736844" y="542.6578947368421" type="curve" smooth="yes"/>
      <point x="300.63157894736844" y="500.15789473684214"/>
      <point x="271.9210526315789" y="475.44736842105266"/>
    </contour>
    <contour>
      <point x="733.8421052631579" y="-14.710526315789473" type="curve" smooth="yes"/>
      <point x="861.9473684210527" y="-14.710526315789473"/>
      <point x="940.8421052631579" y="54.28947368421053"/>
      <point x="940.8421052631579" y="171.97368421052633" type="curve" smooth="yes"/>
      <point x="940.8421052631579" y="276.05263157894734"/>
      <point x="861.9473684210527" y="355.13157894736844"/>
      <point x="734.8421052631579" y="355.13157894736844" type="curve" smooth="yes"/>
      <point x="607.5526315789473" y="355.13157894736844"/>
      <point x="528.4736842105264" y="276.05263157894734"/>
      <point x="528.4736842105264" y="171.97368421052633" type="curve" smooth="yes"/>
      <point x="528.4736842105264" y="54.28947368421053"/>
      <point x="607.5526315789473" y="-14.710526315789473"/>
    </contour>
    <contour>
      <point x="733.8421052631579" y="97.86842105263158" type="curve"/>
      <point x="692.9736842105262" y="102.3157894736842"/>
      <point x="663.078947368421" y="127.02631578947368"/>
      <point x="663.078947368421" y="169.52631578947367" type="curve" smooth="yes"/>
      <point x="663.078947368421" y="208.21052631578948"/>
      <point x="691.3421052631578" y="236.47368421052633"/>
      <point x="734.0263157894738" y="241.73684210526318" type="curve"/>
      <point x="776.7105263157895" y="236.47368421052633"/>
      <point x="804.6052631578948" y="206.57894736842107"/>
      <point x="804.6052631578948" y="169.52631578947367" type="curve" smooth="yes"/>
      <point x="804.6052631578948" y="127.02631578947368"/>
      <point x="775.8947368421052" y="102.3157894736842"/>
    </contour>
  </outline>
</glyph>
<glyph name="ampersand" format="2">
  <advance width="788.9902912621359"/>
  <unicode hex="0026"/>
  <outline>
    <contour>
      <point x="536.4466019417476" y="0.0" type="curve"/>
      <point x="793.5728155339806" y="0.0" type="line"/>
      <point x="709.6893203883495" y="76.5631067961165"/>
      <point x="639.0873786407767" y="153.126213592233"/>
      <point x="569.4854368932039" y="229.6893203883495" type="curve"/>
      <point x="367.9902912621359" y="450.40776699029124" type="line" smooth="yes"/>
      <point x="329.19417475728153" y="492.18446601941747"/>
      <point x="311.49514563106794" y="519.2815533980582"/>
      <point x="311.49514563106794" y="553.3592233009708" type="curve" smooth="yes"/>
      <point x="311.49514563106794" y="586.5145631067962"/>
      <point x="335.2330097087379" y="608.2718446601941"/>
      <point x="366.4077669902913" y="611.9320388349514" type="curve"/>
      <point x="397.8834951456311" y="608.2718446601941"/>
      <point x="420.0194174757282" y="585.8543689320388"/>
      <point x="420.0194174757282" y="553.7378640776699" type="curve" smooth="yes"/>
      <point x="420.0194174757282" y="519.5242718446601"/>
      <point x="381.50485436893206" y="484.24271844660194"/>
      <point x="346.31067961165047" y="456.8446601941748" type="curve"/>
      <point x="424.13592233009706" y="369.0" type="line"/>
      <point x="474.252427184466" y="409.33980582524276"/>
      <point x="571.2718446601942" y="475.3398058252427"/>
      <point x="571.2718446601942" y="562.0194174757282" type="curve" smooth="yes"/>
      <point x="571.2718446601942" y="668.0"/>
      <point x="482.9514563106796" y="728.3203883495146"/>
      <point x="357.1067961165048" y="728.3203883495146" type="curve" smooth="yes"/>
      <point x="232.94174757281553" y="728.3203883495146"/>
      <point x="132.41747572815532" y="667.6407766990291"/>
      <point x="132.41747572815532" y="547.7378640776699" type="curve" smooth="yes"/>
      <point x="132.41747572815532" y="481.6990291262136"/>
      <point x="164.79611650485435" y="426.6990291262136"/>
      <point x="216.19417475728156" y="369.6601941747573" type="curve" smooth="yes"/>
      <point x="427.6504854368932" y="136.0" type="line"/>
      <point x="469.00970873786406" y="91.0"/>
      <point x="511.368932038835" y="44.66019417475728"/>
    </contour>
    <contour>
      <point x="254.7572815533981" y="-12.980582524271846" type="curve" smooth="yes"/>
      <point x="330.8155339805825" y="-12.980582524271846"/>
      <point x="399.1747572815534" y="19.417475728155345"/>
      <point x="467.5339805825243" y="78.51456310679612" type="curve"/>
      <point x="482.5145631067961" y="78.51456310679612" type="line"/>
      <point x="481.15533980582524" y="101.81553398058252" type="line"/>
      <point x="400.31067961165047" y="185.66019417475727" type="line"/>
      <point x="369.77669902912623" y="152.6893203883495"/>
      <point x="322.6019417475728" y="131.89320388349515"/>
      <point x="297.50485436893206" y="131.89320388349515" type="curve"/>
      <point x="240.65048543689318" y="134.89320388349515"/>
      <point x="208.49514563106794" y="168.33009708737865"/>
      <point x="208.49514563106794" y="215.18446601941747" type="curve" smooth="yes"/>
      <point x="208.49514563106794" y="254.77669902912623"/>
      <point x="231.70873786407765" y="290.2330097087378"/>
      <point x="275.621359223301" y="315.95145631067965" type="curve"/>
      <point x="198.2135922330097" y="414.03883495145635" type="line"/>
      <point x="106.55339805825241" y="373.37864077669906"/>
      <point x="27.47572815533981" y="304.378640776699"/>
      <point x="27.47572815533981" y="186.33980582524273" type="curve" smooth="yes"/>
      <point x="27.47572815533981" y="72.35922330097087"/>
      <point x="103.45631067961165" y="-12.980582524271846"/>
    </contour>
    <contour>
      <point x="596.0291262135922" y="168.7378640776699" type="line"/>
      <point x="648.6504854368932" y="227.0970873786408"/>
      <point x="701.5922330097087" y="284.77669902912623"/>
      <point x="762.1747572815533" y="336.1553398058252" type="curve"/>
      <point x="595.757281553398" y="444.7669902912622" type="line"/>
      <point x="568.7184466019418" y="381.42718446601947"/>
      <point x="533.3786407766991" y="325.0873786407767"/>
      <point x="496.3592233009709" y="268.3883495145631" type="curve"/>
    </contour>
  </outline>
</glyph>
<glyph name="parenleft" format="2">
  <advance width="426.8157894736842"/>
  <unicode hex="0028"/>
  <outline>
    <contour>
      <point x="267.1315789473684" y="-138.92105263157896" type="curve"/>
      <point x="413.7105263157895" y="-85.57894736842105" type="line"/>
      <point x="309.57894736842104" y="26.86842105263158"/>
      <point x="226.0" y="143.44736842105266"/>
      <point x="226.0" y="323.1842105263158" type="curve" smooth="yes"/>
      <point x="226.0" y="503.1052631578947"/>
      <point x="309.57894736842104" y="619.5"/>
      <point x="413.7105263157895" y="731.9473684210526" type="curve"/>
      <point x="267.1315789473684" y="785.2894736842105" type="line"/>
      <point x="168.44736842105263" y="696.8421052631579"/>
      <point x="37.36842105263158" y="537.4736842105262"/>
      <point x="37.36842105263158" y="323.1842105263158" type="curve" smooth="yes"/>
      <point x="37.36842105263158" y="109.07894736842105"/>
      <point x="168.44736842105263" y="-50.473684210526315"/>
    </contour>
  </outline>
</glyph>
<glyph name="asterisk" format="2">
  <advance width="502.86842105263156"/>
  <unicode hex="002A"/>
  <outline>
    <contour>
      <point x="420.60526315789474" y="343.39473684210526" type="curve"/>
      <point x="483.65789473684214" y="452.5263157894737" type="line"/>
      <point x="410.5" y="481.36842105263156"/>
      <point x="339.7894736842105" y="512.8421052631579"/>
      <point x="269.44736842105266" y="545.3157894736842" type="curve"/>
      <point x="205.44736842105263" y="591.2105263157895"/>
      <point x="143.44736842105263" y="637.921052631579"/>
      <point x="82.26315789473684" y="687.2631578947368" type="curve"/>
      <point x="19.210526315789476" y="578.1315789473684" type="line"/>
      <point x="92.36842105263158" y="549.2894736842106"/>
      <point x="163.89473684210526" y="517.8157894736843"/>
      <point x="234.42105263157896" y="484.34210526315786" type="curve"/>
      <point x="297.42105263157896" y="439.4473684210526"/>
      <point x="359.42105263157896" y="391.92105263157896"/>
    </contour>
    <contour>
      <point x="83.07894736842105" y="343.39473684210526" type="line"/>
      <point x="143.44736842105263" y="392.7368421052632"/>
      <point x="206.26315789473685" y="439.4473684210526"/>
      <point x="269.44736842105266" y="485.34210526315786" type="curve"/>
      <point x="339.7894736842105" y="517.8157894736843"/>
      <point x="411.3157894736842" y="549.2894736842106"/>
      <point x="483.65789473684214" y="578.9473684210526" type="curve"/>
      <point x="420.60526315789474" y="687.2631578947368" type="line"/>
      <point x="359.42105263157896" y="637.921052631579"/>
      <point x="297.42105263157896" y="591.2105263157895"/>
      <point x="234.42105263157896" y="545.5" type="curve"/>
      <point x="163.07894736842104" y="512.8421052631579"/>
      <point x="92.36842105263158" y="481.36842105263156"/>
      <point x="19.210526315789476" y="452.5263157894737" type="curve"/>
    </contour>
    <contour>
      <point x="188.1578947368421" y="283.39473684210526" type="curve"/>
      <point x="314.7105263157895" y="283.39473684210526" type="line"/>
      <point x="302.7368421052632" y="360.8421052631579"/>
      <point x="294.2105263157895" y="438.2894736842105"/>
      <point x="285.86842105263156" y="515.921052631579" type="curve"/>
      <point x="294.2105263157895" y="593.1842105263158"/>
      <point x="302.7368421052632" y="670.6315789473684"/>
      <point x="313.89473684210526" y="748.078947368421" type="curve"/>
      <point x="188.1578947368421" y="748.078947368421" type="line"/>
      <point x="200.1315789473684" y="670.6315789473684"/>
      <point x="208.6578947368421" y="593.1842105263158"/>
      <point x="217.0" y="515.921052631579" type="curve"/>
      <point x="208.6578947368421" y="438.2894736842105"/>
      <point x="200.1315789473684" y="360.8421052631579"/>
    </contour>
  </outline>
</glyph>
<glyph name="plus" format="2">
  <advance width="604.4736842105264"/>
  <unicode hex="002B"/>
  <outline>
    <contour>
      <point x="212.63157894736844" y="47.868421052631575" type="curve"/>
      <point x="391.84210526315786" y="47.868421052631575" type="line"/>
      <point x="385.7631578947368" y="119.73684210526316"/>
      <point x="384.9473684210526" y="187.78947368421052"/>
      <point x="384.9473684210526" y="247.0263157894737" type="curve"/>
      <point x="384.9473684210526" y="365.8157894736842" type="line"/>
      <point x="384.9473684210526" y="425.05263157894734"/>
      <point x="385.7631578947368" y="493.10526315789474"/>
      <point x="391.84210526315786" y="564.9736842105264" type="curve"/>
      <point x="212.63157894736844" y="564.9736842105264" type="line"/>
      <point x="218.71052631578948" y="493.10526315789474"/>
      <point x="219.5263157894737" y="425.05263157894734"/>
      <point x="219.5263157894737" y="365.8157894736842" type="curve"/>
      <point x="219.5263157894737" y="247.0263157894737" type="line"/>
      <point x="219.5263157894737" y="187.78947368421052"/>
      <point x="218.71052631578948" y="119.73684210526316"/>
    </contour>
    <contour>
      <point x="45.526315789473685" y="219.26315789473685" type="line"/>
      <point x="117.39473684210526" y="225.3421052631579"/>
      <point x="185.44736842105263" y="226.1578947368421"/>
      <point x="244.68421052631578" y="226.1578947368421" type="curve"/>
      <point x="359.7894736842105" y="226.1578947368421" type="line"/>
      <point x="419.0263157894737" y="226.1578947368421"/>
      <point x="487.07894736842104" y="225.3421052631579"/>
      <point x="558.9473684210526" y="219.26315789473685" type="curve"/>
      <point x="558.9473684210526" y="393.57894736842104" type="line"/>
      <point x="487.07894736842104" y="387.5"/>
      <point x="419.0263157894737" y="386.6842105263158"/>
      <point x="359.7894736842105" y="386.6842105263158" type="curve"/>
      <point x="244.68421052631578" y="386.6842105263158" type="line"/>
      <point x="185.44736842105263" y="386.6842105263158"/>
      <point x="117.39473684210526" y="387.5"/>
      <point x="45.526315789473685" y="393.57894736842104" type="curve"/>
    </contour>
  </outline>
</glyph>
<glyph name="comma" format="2">
  <advance width="261.3157894736842"/>
  <unicode hex="002C"/>
  <outline>
    <contour>
      <point x="3.3947368421052673" y="-157.0" type="curve"/>
      <point x="95.02631578947368" y="-155.18421052631578" type="line"/>
      <point x="139.0" y="-111.07894736842105"/>
      <point x="229.31578947368422" y="-5.763157894736844"/>
      <point x="229.31578947368422" y="79.07894736842105" type="curve" smooth="yes"/>
      <point x="229.31578947368422" y="139.78947368421052"/>
      <point x="202.18421052631578" y="186.9736842105263"/>
      <point x="136.94736842105263" y="195.31578947368422" type="curve"/>
      <point x="38.3421052631579" y="187.78947368421052" type="line"/>
      <point x="50.31578947368421" y="138.5"/>
      <point x="55.39473684210527" y="89.21052631578948"/>
      <point x="55.39473684210527" y="44.815789473684205" type="curve"/>
      <point x="55.39473684210527" y="-17.078947368421055"/>
      <point x="30.157894736842103" y="-98.8157894736842"/>
    </contour>
  </outline>
</glyph>
<glyph name="hyphen" format="2">
  <advance width="428.1578947368421"/>
  <unicode hex="002D"/>
  <outline>
    <contour>
      <point x="45.526315789473685" y="215.18421052631578" type="line"/>
      <point x="106.3157894736842" y="221.26315789473682"/>
      <point x="164.10526315789474" y="222.07894736842104"/>
      <point x="214.07894736842104" y="222.07894736842104" type="curve"/>
      <point x="264.05263157894734" y="222.07894736842104"/>
      <point x="321.8421052631579" y="221.26315789473682"/>
      <point x="382.63157894736844" y="215.18421052631578" type="curve"/>
      <point x="382.63157894736844" y="389.5" type="line"/>
      <point x="321.8421052631579" y="383.42105263157896"/>
      <point x="264.05263157894734" y="382.60526315789474"/>
      <point x="214.07894736842104" y="382.60526315789474" type="curve"/>
      <point x="164.10526315789474" y="382.60526315789474"/>
      <point x="106.3157894736842" y="383.42105263157896"/>
      <point x="45.526315789473685" y="389.5" type="curve"/>
    </contour>
  </outline>
</glyph>
<glyph name="slash" format="2">
  <advance width="476.3421052631579"/>
  <unicode hex="002F"/>
  <outline>
    <contour>
      <point x="3.7368421052631597" y="0.0" type="curve"/>
      <point x="209.60526315789474" y="0.0" type="line"/>
      <point x="225.28947368421052" y="74.0"/>
      <point x="246.76315789473682" y="137.0"/>
      <point x="280.60526315789474" y="228.0" type="curve"/>
      <point x="371.39473684210526" y="474.0" type="line"/>
      <point x="407.2368421052631" y="571.0"/>
      <point x="432.3421052631579" y="636.0"/>
      <point x="472.60526315789474" y="713.0" type="curve"/>
      <point x="267.55263157894734" y="713.0" type="line"/>
      <point x="250.6842105263158" y="636.0"/>
      <point x="228.21052631578948" y="570.1842105263158"/>
      <point x="193.36842105263156" y="476.0" type="curve"/>
      <point x="101.57894736842105" y="228.0" type="line"/>
      <point x="67.73684210526315" y="137.0"/>
      <point x="42.63157894736842" y="74.0"/>
    </contour>
  </outline>
</glyph>
<glyph name="one" format="2">
  <advance width="474.89473684210526"/>
  <unicode hex="0031"/>
  <outline>
    <contour>
      <point x="63.86842105263158" y="402.2631578947368" type="line"/>
      <point x="138.31578947368422" y="450.34210526315786"/>
      <point x="216.0263157894737" y="487.63157894736844"/>
      <point x="294.7368421052632" y="523.921052631579" type="curve"/>
      <point x="302.07894736842104" y="694.1578947368421" type="line"/>
      <point x="206.5" y="650.1578947368421"/>
      <point x="110.28947368421053" y="606.3421052631579"/>
      <point x="12.078947368421053" y="573.5" type="curve"/>
    </contour>
    <contour>
      <point x="186.55263157894737" y="0.0" type="curve"/>
      <point x="410.0" y="0.0" type="line"/>
      <point x="399.6578947368421" y="70.10526315789474"/>
      <point x="394.7631578947368" y="131.0263157894737"/>
      <point x="394.7631578947368" y="214.47368421052633" type="curve"/>
      <point x="394.7631578947368" y="448.63157894736844" type="line"/>
      <point x="394.7631578947368" y="528.7368421052631"/>
      <point x="398.2105263157895" y="607.921052631579"/>
      <point x="410.0" y="688.8947368421053" type="curve"/>
      <point x="302.07894736842104" y="694.1578947368421" type="line"/>
      <point x="193.26315789473685" y="610.078947368421" type="line"/>
      <point x="199.78947368421052" y="542.6052631578948"/>
      <point x="201.60526315789474" y="475.9473684210526"/>
      <point x="201.60526315789474" y="408.6578947368421" type="curve"/>
      <point x="201.60526315789474" y="214.47368421052633" type="line"/>
      <point x="201.60526315789474" y="131.0263157894737"/>
      <point x="195.89473684210526" y="70.10526315789474"/>
    </contour>
  </outline>
</glyph>
<glyph name="four" format="2">
  <advance width="621.5242718446602"/>
  <unicode hex="0034"/>
  <outline>
    <contour>
      <point x="303.9902912621358" y="0.0" type="curve"/>
      <point x="527.5145631067961" y="0.0" type="line"/>
      <point x="513.2330097087379" y="67.64077669902913"/>
      <point x="512.2330097087379" y="125.2621359223301"/>
      <point x="512.2330097087379" y="207.2233009708738" type="curve"/>
      <point x="512.2330097087379" y="447.9805825242719" type="line"/>
      <point x="512.2330097087379" y="526.9805825242718"/>
      <point x="513.8932038834952" y="605.9805825242718"/>
      <point x="527.5145631067961" y="688.9805825242718" type="curve"/>
      <point x="309.63106796116506" y="688.9805825242718" type="line"/>
      <point x="292.5728155339806" y="648.621359223301"/>
      <point x="263.5533980582524" y="606.9223300970874"/>
      <point x="234.53398058252424" y="566.5631067961166" type="curve"/>
      <point x="154.81553398058253" y="453.4854368932039" type="line"/>
      <point x="114.11650485436893" y="396.4466019417476"/>
      <point x="59.417475728155345" y="320.3883495145632"/>
      <point x="21.058252427184463" y="279.31067961165047" type="curve"/>
      <point x="21.058252427184463" y="137.1359223300971" type="line"/>
      <point x="384.41747572815535" y="137.1359223300971" type="line"/>
      <point x="447.0194174757282" y="137.1359223300971"/>
      <point x="537.9223300970874" y="135.47572815533982"/>
      <point x="594.8640776699029" y="127.1747572815534" type="curve"/>
      <point x="594.8640776699029" y="311.19417475728153" type="line"/>
      <point x="537.9223300970874" y="301.8932038834951"/>
      <point x="447.0194174757282" y="300.8932038834951"/>
      <point x="384.41747572815535" y="300.8932038834951" type="curve"/>
      <point x="367.43689320388347" y="287.68932038834953" type="line"/>
      <point x="171.53398058252426" y="287.68932038834953" type="line"/>
      <point x="185.49514563106794" y="264.83495145631065" type="line"/>
      <point x="206.873786407767" y="304.53398058252424"/>
      <point x="232.23300970873785" y="344.2330097087378"/>
      <point x="260.5922330097087" y="383.9320388349514" type="curve"/>
      <point x="365.68932038834953" y="533.7281553398059" type="line"/>
      <point x="398.0485436893204" y="579.7669902912621"/>
      <point x="429.74757281553394" y="620.8252427184466"/>
      <point x="463.1067961165048" y="655.2427184466019" type="curve"/>
      <point x="321.2135922330097" y="608.8932038834952" type="line"/>
      <point x="332.17475728155335" y="541.5339805825242"/>
      <point x="333.83495145631065" y="475.1747572815534"/>
      <point x="333.83495145631065" y="407.81553398058253" type="curve"/>
      <point x="333.83495145631065" y="232.1650485436893" type="line"/>
      <point x="319.2718446601941" y="207.2233009708738" type="line"/>
      <point x="319.2718446601941" y="125.2621359223301"/>
      <point x="318.2718446601941" y="67.64077669902913"/>
    </contour>
  </outline>
</glyph>
<glyph name="five" format="2">
  <advance width="588.2427184466019"/>
  <unicode hex="0035"/>
  <outline>
    <contour>
      <point x="277.6407766990292" y="-14.640776699029125" type="curve" smooth="yes"/>
      <point x="467.80582524271847" y="-14.640776699029125"/>
      <point x="554.4660194174758" y="83.67961165048543"/>
      <point x="554.4660194174758" y="225.35922330097088" type="curve" smooth="yes"/>
      <point x="554.4660194174758" y="365.7766990291262"/>
      <point x="466.40776699029124" y="436.7766990291262"/>
      <point x="355.02912621359224" y="436.7766990291262" type="curve" smooth="yes"/>
      <point x="317.34951456310677" y="436.7766990291262"/>
      <point x="282.5922330097087" y="427.41747572815535"/>
      <point x="251.89320388349512" y="413.0776699029126" type="curve"/>
      <point x="237.93203883495144" y="413.0776699029126" type="line"/>
      <point x="238.5922330097087" y="444.15533980582524" type="line"/>
      <point x="239.59223300970874" y="490.5533980582524"/>
      <point x="243.91262135922327" y="537.9514563106796"/>
      <point x="252.873786407767" y="584.6893203883495" type="curve"/>
      <point x="190.66990291262135" y="525.2233009708738" type="line"/>
      <point x="288.68932038834953" y="525.2233009708738" type="line"/>
      <point x="365.70873786407765" y="525.2233009708738"/>
      <point x="444.7281553398058" y="524.8834951456311"/>
      <point x="522.4077669902913" y="507.28155339805824" type="curve"/>
      <point x="522.4077669902913" y="688.9805825242718" type="line"/>
      <point x="56.155339805825236" y="688.9805825242718" type="line"/>
      <point x="68.11650485436893" y="603.6990291262135"/>
      <point x="69.7766990291262" y="509.0970873786408"/>
      <point x="69.7766990291262" y="408.49514563106794" type="curve"/>
      <point x="69.7766990291262" y="288.9126213592233" type="line"/>
      <point x="151.8252427184466" y="282.93203883495147" type="line"/>
      <point x="183.62135922330097" y="301.368932038835"/>
      <point x="223.39805825242718" y="308.0679611650486"/>
      <point x="254.13592233009706" y="308.0679611650486" type="curve"/>
      <point x="317.31067961165047" y="305.4077669902913"/>
      <point x="355.5242718446602" y="281.97087378640776"/>
      <point x="355.5242718446602" y="227.62135922330097" type="curve" smooth="yes"/>
      <point x="355.5242718446602" y="174.9902912621359"/>
      <point x="326.34951456310677" y="148.79611650485433"/>
      <point x="258.05825242718447" y="146.13592233009706" type="curve"/>
      <point x="201.35922330097085" y="146.13592233009706"/>
      <point x="115.07766990291263" y="173.45631067961165"/>
      <point x="47.69902912621359" y="206.4757281553398" type="curve"/>
      <point x="32.73786407766991" y="27.75728155339806" type="line"/>
      <point x="85.07766990291263" y="14.05825242718447"/>
      <point x="167.39805825242718" y="-14.640776699029125"/>
    </contour>
  </outline>
</glyph>
<glyph name="six" format="2">
  <advance width="622.5631067961165"/>
  <unicode hex="0036"/>
  <outline>
    <contour>
      <point x="327.6019417475728" y="-14.640776699029125" type="curve" smooth="yes"/>
      <point x="510.4466019417476" y="-14.640776699029125"/>
      <point x="588.7864077669902" y="105.67961165048543"/>
      <point x="588.7864077669902" y="230.69902912621362" type="curve" smooth="yes"/>
      <point x="588.7864077669902" y="360.6990291262136"/>
      <point x="502.80582524271847" y="438.11650485436894"/>
      <point x="383.3883495145631" y="438.11650485436894" type="curve" smooth="yes"/>
      <point x="327.8932038834951" y="438.11650485436894"/>
      <point x="278.1359223300971" y="417.9805825242718"/>
      <point x="239.4174757281553" y="389.22330097087377" type="curve"/>
      <point x="220.7766990291262" y="389.56310679611653" type="line"/>
      <point x="176.63106796116506" y="336.9805825242718"/>
      <point x="174.97087378640776" y="322.3009708737864"/>
      <point x="222.43689320388347" y="269.43689320388347" type="curve"/>
      <point x="248.27184466019418" y="295.31067961165047"/>
      <point x="283.82524271844665" y="311.3883495145631"/>
      <point x="320.32038834951453" y="311.7281553398058" type="curve"/>
      <point x="370.3495145631068" y="307.4077669902913"/>
      <point x="397.80582524271847" y="278.5145631067961"/>
      <point x="397.80582524271847" y="231.62135922330097" type="curve" smooth="yes"/>
      <point x="397.80582524271847" y="183.72815533980582"/>
      <point x="369.3495145631068" y="149.79611650485433"/>
      <point x="318.6407766990291" y="146.13592233009706" type="curve"/>
      <point x="262.2718446601941" y="155.43689320388347"/>
      <point x="224.11650485436894" y="197.36893203883494"/>
      <point x="224.11650485436894" y="336.6019417475728" type="curve" smooth="yes"/>
      <point x="224.11650485436894" y="480.5922330097087"/>
      <point x="255.95145631067962" y="537.2038834951458"/>
      <point x="355.8446601941747" y="543.1844660194175" type="curve"/>
      <point x="386.1650485436893" y="543.1844660194175"/>
      <point x="463.4660194174757" y="520.5436893203885"/>
      <point x="529.8446601941747" y="490.50485436893206" type="curve"/>
      <point x="545.8058252427185" y="665.9029126213593" type="line"/>
      <point x="495.8252427184466" y="679.9223300970873"/>
      <point x="404.20388349514565" y="704.3009708737865"/>
      <point x="342.56310679611653" y="704.3009708737865" type="curve" smooth="yes"/>
      <point x="166.92233009708738" y="704.3009708737865"/>
      <point x="36.456310679611654" y="604.4466019417475"/>
      <point x="36.456310679611654" y="340.92233009708735" type="curve" smooth="yes"/>
      <point x="36.456310679611654" y="105.67961165048543"/>
      <point x="132.43689320388347" y="-14.640776699029125"/>
    </contour>
  </outline>
</glyph>
<glyph name="seven" format="2">
  <advance width="561.578947368421"/>
  <unicode hex="0037"/>
  <outline>
    <contour>
      <point x="74.05263157894738" y="0.0" type="curve"/>
      <point x="311.47368421052624" y="0.0" type="line"/>
      <point x="328.07894736842104" y="73.76315789473685"/>
      <point x="353.39473684210526" y="145.26315789473685"/>
      <point x="385.0526315789474" y="218.6578947368421" type="curve"/>
      <point x="439.1842105263158" y="344.2631578947368" type="line"/>
      <point x="471.2105263157895" y="418.57894736842104"/>
      <point x="501.0526315789474" y="484.2631578947369"/>
      <point x="532.8947368421052" y="543.7894736842105" type="curve"/>
      <point x="532.8947368421052" y="688.8947368421053" type="line"/>
      <point x="25.0" y="688.8947368421053" type="line"/>
      <point x="25.0" y="504.1578947368422" type="line"/>
      <point x="98.5" y="520.2105263157895"/>
      <point x="171.18421052631578" y="525.1052631578948"/>
      <point x="243.68421052631578" y="525.1052631578948" type="curve"/>
      <point x="366.57894736842104" y="525.1052631578948" type="line"/>
      <point x="316.15789473684214" y="562.0263157894736" type="line"/>
      <point x="306.02631578947364" y="517.0"/>
      <point x="288.5526315789474" y="471.3421052631579"/>
      <point x="268.4473684210526" y="426.3157894736842" type="curve"/>
      <point x="186.0263157894737" y="240.76315789473685" type="line"/>
      <point x="151.18421052631578" y="161.6315789473684"/>
      <point x="113.52631578947368" y="79.5"/>
    </contour>
  </outline>
</glyph>
<glyph name="eight" format="2">
  <advance width="624.8834951456311"/>
  <unicode hex="0038"/>
  <outline>
    <contour>
      <point x="312.94174757281553" y="-14.640776699029125" type="curve" smooth="yes"/>
      <point x="504.8058252427184" y="-14.640776699029125"/>
      <point x="591.1067961165048" y="72.6990291262136"/>
      <point x="591.1067961165048" y="194.32038834951456" type="curve" smooth="yes"/>
      <point x="591.1067961165048" y="301.0194174757281"/>
      <point x="522.6893203883495" y="350.6990291262136"/>
      <point x="455.0679611650486" y="365.3592233009708" type="curve"/>
      <point x="455.0679611650486" y="379.32038834951453" type="line"/>
      <point x="522.0291262135922" y="394.0"/>
      <point x="574.0679611650486" y="442.3592233009709"/>
      <point x="574.0679611650486" y="522.6990291262135" type="curve" smooth="yes"/>
      <point x="574.0679611650486" y="631.6601941747573"/>
      <point x="479.1067961165048" y="704.3009708737865"/>
      <point x="312.94174757281553" y="704.3009708737865" type="curve" smooth="yes"/>
      <point x="145.77669902912623" y="704.3009708737865"/>
      <point x="50.81553398058253" y="631.6601941747573"/>
      <point x="50.81553398058253" y="522.6990291262135" type="curve" smooth="yes"/>
      <point x="50.81553398058253" y="442.3592233009709"/>
      <point x="102.85436893203885" y="394.0"/>
      <point x="169.81553398058253" y="379.32038834951453" type="curve"/>
      <point x="169.81553398058253" y="365.3592233009708" type="line"/>
      <point x="102.85436893203882" y="350.6990291262136"/>
      <point x="33.77669902912621" y="302.0194174757282"/>
      <point x="33.77669902912621" y="194.32038834951456" type="curve" smooth="yes"/>
      <point x="33.77669902912621" y="72.6990291262136"/>
      <point x="120.07766990291263" y="-14.640776699029125"/>
    </contour>
    <contour>
      <point x="312.94174757281553" y="142.51456310679612" type="curve"/>
      <point x="253.5533980582524" y="146.83495145631068"/>
      <point x="224.75728155339806" y="174.00970873786406"/>
      <point x="224.75728155339806" y="215.5631067961165" type="curve" smooth="yes"/>
      <point x="224.75728155339806" y="261.83495145631065"/>
      <point x="260.99029126213594" y="283.2912621359223"/>
      <point x="311.9417475728156" y="288.6116504854369" type="curve"/>
      <point x="363.8932038834951" y="283.2912621359223"/>
      <point x="400.126213592233" y="261.83495145631065"/>
      <point x="400.126213592233" y="215.5631067961165" type="curve" smooth="yes"/>
      <point x="400.126213592233" y="174.00970873786406"/>
      <point x="371.9902912621359" y="146.83495145631068"/>
    </contour>
    <contour>
      <point x="312.94174757281553" y="419.58252427184465" type="curve"/>
      <point x="267.2912621359223" y="425.56310679611653"/>
      <point x="237.81553398058253" y="447.6990291262136"/>
      <point x="237.81553398058253" y="488.19417475728153" type="curve" smooth="yes"/>
      <point x="237.81553398058253" y="532.0097087378641"/>
      <point x="269.9708737864077" y="550.4466019417476"/>
      <point x="312.94174757281553" y="555.4271844660194" type="curve"/>
      <point x="355.57281553398064" y="550.4466019417476"/>
      <point x="388.7281553398058" y="532.0097087378641"/>
      <point x="388.7281553398058" y="488.19417475728153" type="curve" smooth="yes"/>
      <point x="388.7281553398058" y="447.6990291262136"/>
      <point x="358.252427184466" y="425.56310679611653"/>
    </contour>
  </outline>
</glyph>
<glyph name="less" format="2">
  <advance width="584.4736842105264"/>
  <unicode hex="003C"/>
  <outline>
    <contour>
      <point x="538.9473684210526" y="34.60526315789474" type="curve"/>
      <point x="538.9473684210526" y="220.4473684210526" type="line"/>
      <point x="485.86842105263156" y="231.23684210526315"/>
      <point x="431.86842105263156" y="250.4736842105263"/>
      <point x="378.42105263157896" y="269.5263157894737" type="curve"/>
      <point x="293.92105263157896" y="299.1578947368421" type="line"/>
      <point x="293.92105263157896" y="313.3157894736842" type="line"/>
      <point x="378.42105263157896" y="342.94736842105266" type="line"/>
      <point x="431.86842105263156" y="362.0"/>
      <point x="485.86842105263156" y="381.2368421052632"/>
      <point x="538.9473684210526" y="392.0263157894737" type="curve"/>
      <point x="538.9473684210526" y="577.8684210526316" type="line"/>
      <point x="467.2631578947368" y="543.5263157894738"/>
      <point x="399.0263157894737" y="517.5263157894736"/>
      <point x="339.60526315789474" y="495.5263157894737" type="curve"/>
      <point x="244.5" y="460.3157894736842" type="line"/>
      <point x="185.44736842105263" y="438.5"/>
      <point x="117.21052631578948" y="413.5"/>
      <point x="45.526315789473685" y="395.2105263157895" type="curve"/>
      <point x="45.526315789473685" y="217.26315789473685" type="line"/>
      <point x="117.21052631578948" y="198.9736842105263"/>
      <point x="185.44736842105263" y="173.9736842105263"/>
      <point x="244.5" y="152.1578947368421" type="curve"/>
      <point x="339.60526315789474" y="116.94736842105263" type="line"/>
      <point x="399.0263157894737" y="94.94736842105263"/>
      <point x="467.2631578947368" y="68.94736842105263"/>
    </contour>
  </outline>
</glyph>
<glyph name="equal" format="2">
  <advance width="584.4736842105264"/>
  <unicode hex="003D"/>
  <outline>
    <contour>
      <point x="53.684210526315795" y="93.86842105263159" type="line"/>
      <point x="125.55263157894737" y="99.94736842105264"/>
      <point x="193.60526315789474" y="100.76315789473685"/>
      <point x="252.8421052631579" y="100.76315789473685" type="curve"/>
      <point x="331.63157894736844" y="100.76315789473685" type="line"/>
      <point x="390.86842105263156" y="100.76315789473685"/>
      <point x="458.92105263157896" y="99.94736842105264"/>
      <point x="530.7894736842105" y="93.86842105263159" type="curve"/>
      <point x="530.7894736842105" y="268.1842105263158" type="line"/>
      <point x="458.92105263157896" y="262.10526315789474"/>
      <point x="390.86842105263156" y="261.2894736842105"/>
      <point x="331.63157894736844" y="261.2894736842105" type="curve"/>
      <point x="252.8421052631579" y="261.2894736842105" type="line"/>
      <point x="193.60526315789474" y="261.2894736842105"/>
      <point x="125.55263157894737" y="262.10526315789474"/>
      <point x="53.684210526315795" y="268.1842105263158" type="curve"/>
    </contour>
    <contour>
      <point x="53.684210526315795" y="344.65789473684214" type="line"/>
      <point x="125.55263157894737" y="350.7368421052632"/>
      <point x="193.60526315789474" y="351.5526315789474"/>
      <point x="252.8421052631579" y="351.5526315789474" type="curve"/>
      <point x="331.63157894736844" y="351.5526315789474" type="line"/>
      <point x="390.86842105263156" y="351.5526315789474"/>
      <point x="458.92105263157896" y="350.7368421052632"/>
      <point x="530.7894736842105" y="344.65789473684214" type="curve"/>
      <point x="530.7894736842105" y="518.9736842105264" type="line"/>
      <point x="458.92105263157896" y="512.8947368421052"/>
      <point x="390.86842105263156" y="512.078947368421"/>
      <point x="331.63157894736844" y="512.078947368421" type="curve"/>
      <point x="252.8421052631579" y="512.078947368421" type="line"/>
      <point x="193.60526315789474" y="512.078947368421"/>
      <point x="125.55263157894737" y="512.8947368421052"/>
      <point x="53.684210526315795" y="518.9736842105264" type="curve"/>
    </contour>
  </outline>
</glyph>
<glyph name="greater" format="2">
  <advance width="584.4736842105264"/>
  <unicode hex="003E"/>
  <outline>
    <contour>
      <point x="45.526315789473685" y="34.60526315789474" type="line"/>
      <point x="117.21052631578948" y="68.94736842105263"/>
      <point x="185.44736842105263" y="94.94736842105263"/>
      <point x="244.8684210526316" y="116.94736842105263" type="curve"/>
      <point x="339.9736842105263" y="152.1578947368421" type="line"/>
      <point x="399.0263157894737" y="173.9736842105263"/>
      <point x="467.2631578947368" y="198.9736842105263"/>
      <point x="538.9473684210526" y="217.26315789473685" type="curve"/>
      <point x="538.9473684210526" y="395.2105263157895" type="line"/>
      <point x="467.2631578947368" y="413.5"/>
      <point x="399.0263157894737" y="438.5"/>
      <point x="339.9736842105263" y="460.3157894736842" type="curve"/>
      <point x="244.8684210526316" y="495.5263157894737" type="line"/>
      <point x="185.44736842105263" y="517.5263157894736"/>
      <point x="117.21052631578948" y="543.5263157894738"/>
      <point x="45.526315789473685" y="577.8684210526316" type="curve"/>
      <point x="45.526315789473685" y="392.0263157894737" type="line"/>
      <point x="98.60526315789474" y="381.2368421052632"/>
      <point x="152.60526315789474" y="362.0"/>
      <point x="206.05263157894737" y="342.94736842105266" type="curve"/>
      <point x="290.5526315789474" y="313.3157894736842" type="line"/>
      <point x="290.5526315789474" y="299.1578947368421" type="line"/>
      <point x="206.05263157894737" y="269.5263157894737" type="line"/>
      <point x="152.60526315789474" y="250.4736842105263"/>
      <point x="98.60526315789474" y="231.23684210526315"/>
      <point x="45.526315789473685" y="220.4473684210526" type="curve"/>
    </contour>
  </outline>
</glyph>
<glyph name="A" format="2">
  <advance width="737.3421052631579"/>
  <unicode hex="0041"/>
  <anchor x="369.07894736842104" y="0.0" name="bottom"/>
  <anchor x="731.2631578947369" y="0.0" name="ogonek"/>
  <anchor x="369.07894736842104" y="713.0" name="top"/>
  <outline>
    <contour>
      <point x="2.4473684210526336" y="0.0" type="curve"/>
      <point x="243.5" y="0.0" type="line"/>
      <point x="249.57894736842104" y="70.42105263157895"/>
      <point x="262.10526315789474" y="150.28947368421052"/>
      <point x="279.7894736842105" y="220.3421052631579" type="curve"/>
      <point x="360.7368421052632" y="540.7631578947369" type="line"/>
      <point x="374.89473684210526" y="540.7631578947369" type="line"/>
      <point x="454.8421052631579" y="216.5263157894737" type="line"/>
      <point x="471.3421052631579" y="149.6578947368421"/>
      <point x="486.9473684210526" y="71.86842105263158"/>
      <point x="491.2105263157895" y="0.0" type="curve"/>
      <point x="736.3421052631579" y="0.0" type="line"/>
      <point x="703.3421052631579" y="76.0"/>
      <point x="671.1578947368421" y="162.0"/>
      <point x="646.8684210526316" y="241.0" type="curve"/>
      <point x="571.6315789473684" y="486.1842105263158" type="line"/>
      <point x="544.9736842105264" y="572.5526315789474"/>
      <point x="529.7631578947368" y="637.7368421052631"/>
      <point x="519.6315789473684" y="713.0" type="curve"/>
      <point x="220.89473684210526" y="713.0" type="line"/>
      <point x="211.3947368421053" y="641.0"/>
      <point x="195.3684210526316" y="575.0"/>
      <point x="167.89473684210526" y="486.1842105263158" type="curve"/>
      <point x="92.47368421052632" y="241.18421052631578" type="line"/>
      <point x="69.00000000000001" y="165.0"/>
      <point x="37.07894736842105" y="76.1842105263158"/>
    </contour>
    <contour>
      <point x="212.05263157894737" y="132.0263157894737" type="line"/>
      <point x="548.3157894736843" y="132.0263157894737" type="line"/>
      <point x="529.5526315789474" y="284.39473684210526" type="line"/>
      <point x="234.89473684210523" y="284.39473684210526" type="line"/>
    </contour>
  </outline>
</glyph>
<glyph name="B" format="2">
  <advance width="676.1456310679611"/>
  <unicode hex="0042"/>
  <outline>
    <contour>
      <point x="327.92233009708735" y="-7.640776699029126" type="curve"/>
      <point x="576.4077669902913" y="-7.640776699029126"/>
      <point x="649.3883495145631" y="78.6990291262136"/>
      <point x="649.3883495145631" y="201.96116504854368" type="curve" smooth="yes"/>
      <point x="649.3883495145631" y="304.67961165048547"/>
      <point x="593.9514563106795" y="352.6601941747573"/>
      <point x="501.40776699029124" y="373.62135922330094" type="curve"/>
      <point x="501.40776699029124" y="387.92233009708735" type="line"/>
      <point x="577.0485436893204" y="405.28155339805824"/>
      <point x="634.0291262135921" y="459.9611650485437"/>
      <point x="634.0291262135921" y="551.621359223301" type="curve" smooth="yes"/>
      <point x="634.0291262135921" y="654.9805825242719"/>
      <point x="568.3495145631068" y="718.9805825242718"/>
      <point x="364.94174757281553" y="718.9805825242718" type="curve"/>
      <point x="258.0194174757282" y="718.9805825242718"/>
      <point x="145.15533980582526" y="713.0"/>
      <point x="45.93203883495146" y="713.0" type="curve"/>
      <point x="56.23300970873786" y="635.3203883495146"/>
      <point x="61.873786407766985" y="567.6407766990291"/>
      <point x="61.873786407766985" y="474.3398058252427" type="curve"/>
      <point x="61.873786407766985" y="230.6990291262136" type="line"/>
      <point x="61.873786407766985" y="140.37864077669903"/>
      <point x="56.23300970873786" y="75.35922330097087"/>
      <point x="45.93203883495146" y="0.0" type="curve"/>
      <point x="132.51456310679612" y="0.0"/>
      <point x="216.0" y="-7.640776699029126"/>
    </contour>
    <contour>
      <point x="268.45631067961165" y="145.93203883495144" type="line"/>
      <point x="265.79611650485435" y="183.70873786407765"/>
      <point x="264.13592233009706" y="220.80582524271844"/>
      <point x="264.13592233009706" y="275.20388349514565" type="curve"/>
      <point x="264.13592233009706" y="429.81553398058253" type="line"/>
      <point x="264.13592233009706" y="487.53398058252424"/>
      <point x="265.79611650485435" y="528.6116504854369"/>
      <point x="268.45631067961165" y="569.7087378640776" type="curve"/>
      <point x="348.99999999999994" y="569.7087378640776" type="line" smooth="yes"/>
      <point x="399.2912621359223" y="569.7087378640776"/>
      <point x="422.126213592233" y="542.6699029126214"/>
      <point x="422.126213592233" y="497.49514563106794" type="curve" smooth="yes"/>
      <point x="422.126213592233" y="451.37864077669906"/>
      <point x="394.00970873786406" y="424.5242718446602"/>
      <point x="341.30097087378635" y="424.5242718446602" type="curve" smooth="yes"/>
      <point x="214.9902912621359" y="424.5242718446602" type="line"/>
      <point x="214.9902912621359" y="291.8349514563107" type="line"/>
      <point x="351.9029126213592" y="291.8349514563107" type="line" smooth="yes"/>
      <point x="407.5922330097087" y="291.8349514563107"/>
      <point x="435.8252427184466" y="266.45631067961165"/>
      <point x="435.8252427184466" y="219.5631067961165" type="curve" smooth="yes"/>
      <point x="435.8252427184466" y="170.06796116504853"/>
      <point x="406.3495145631068" y="145.93203883495144"/>
      <point x="347.84466019417476" y="145.93203883495144" type="curve" smooth="yes"/>
    </contour>
  </outline>
</glyph>
<glyph name="C" format="2">
  <advance width="681.921052631579"/>
  <unicode hex="0043"/>
  <anchor x="394.4736842105263" y="0.0" name="bottom"/>
  <anchor x="392.63157894736844" y="713.0" name="top"/>
  <outline>
    <contour>
      <point x="412.92105263157896" y="-14.710526315789473" type="curve" smooth="yes"/>
      <point x="494.1578947368421" y="-14.710526315789473"/>
      <point x="579.0526315789473" y="7.736842105263158"/>
      <point x="638.8684210526316" y="24.05263157894737" type="curve"/>
      <point x="628.7894736842105" y="216.42105263157896" type="line"/>
      <point x="566.1578947368421" y="175.52631578947367"/>
      <point x="488.07894736842104" y="152.89473684210526"/>
      <point x="440.2894736842105" y="152.89473684210526" type="curve"/>
      <point x="308.42105263157896" y="156.71052631578948"/>
      <point x="245.55263157894737" y="247.23684210526315"/>
      <point x="245.55263157894737" y="355.55263157894734" type="curve" smooth="yes"/>
      <point x="245.55263157894737" y="487.39473684210526"/>
      <point x="322.1578947368421" y="551.1315789473684"/>
      <point x="398.7368421052632" y="554.9473684210526" type="curve"/>
      <point x="437.92105263157896" y="554.9473684210526"/>
      <point x="518.8421052631579" y="535.3157894736842"/>
      <point x="627.6315789473684" y="485.42105263157896" type="curve"/>
      <point x="642.421052631579" y="678.4210526315788" type="line"/>
      <point x="582.7894736842105" y="699.1578947368421"/>
      <point x="491.8684210526316" y="728.2631578947369"/>
      <point x="400.55263157894734" y="728.2631578947369" type="curve" smooth="yes"/>
      <point x="162.94736842105263" y="728.2631578947369"/>
      <point x="30.63157894736842" y="568.6578947368421"/>
      <point x="30.63157894736842" y="354.92105263157896" type="curve" smooth="yes"/>
      <point x="30.63157894736842" y="130.1578947368421"/>
      <point x="177.8684210526316" y="-14.710526315789473"/>
    </contour>
  </outline>
</glyph>
<glyph name="D" format="2">
  <advance width="735.7368421052631"/>
  <unicode hex="0044"/>
  <anchor x="354.07894736842104" y="0.0" name="bottom"/>
  <anchor x="368.3684210526316" y="357.0" name="center"/>
  <anchor x="354.07894736842104" y="713.0" name="top"/>
  <outline>
    <contour>
      <point x="46.0" y="0.0" type="curve"/>
      <point x="127.07894736842105" y="0.0"/>
      <point x="214.78947368421052" y="-7.526315789473684"/>
      <point x="322.34210526315786" y="-7.526315789473684" type="curve"/>
      <point x="605.921052631579" y="-7.526315789473684"/>
      <point x="705.1052631578947" y="156.55263157894737"/>
      <point x="705.1052631578947" y="358.36842105263156" type="curve" smooth="yes"/>
      <point x="705.1052631578947" y="585.7105263157895"/>
      <point x="579.6578947368421" y="718.8947368421053"/>
      <point x="364.1842105263158" y="718.8947368421053" type="curve"/>
      <point x="248.76315789473682" y="718.8947368421053"/>
      <point x="131.2105263157895" y="713.0"/>
      <point x="46.0" y="713.0" type="curve"/>
      <point x="56.15789473684211" y="635.2631578947369"/>
      <point x="61.86842105263158" y="567.7105263157895"/>
      <point x="61.86842105263158" y="474.1842105263158" type="curve"/>
      <point x="61.86842105263158" y="230.6578947368421" type="line"/>
      <point x="61.86842105263158" y="140.39473684210526"/>
      <point x="56.15789473684211" y="75.28947368421052"/>
    </contour>
    <contour>
      <point x="272.89473684210526" y="163.1578947368421" type="line"/>
      <point x="270.07894736842104" y="197.71052631578948"/>
      <point x="268.4473684210526" y="233.78947368421052"/>
      <point x="268.4473684210526" y="282.86842105263156" type="curve"/>
      <point x="268.4473684210526" y="423.60526315789474" type="line"/>
      <point x="268.4473684210526" y="475.9473684210526"/>
      <point x="270.07894736842104" y="512.8421052631579"/>
      <point x="272.89473684210526" y="549.8421052631579" type="curve"/>
      <point x="328.1842105263158" y="549.8421052631579" type="line"/>
      <point x="451.02631578947364" y="544.3947368421053"/>
      <point x="490.1842105263158" y="473.60526315789474"/>
      <point x="490.1842105263158" y="361.0" type="curve" smooth="yes"/>
      <point x="490.1842105263158" y="247.23684210526315"/>
      <point x="455.6842105263158" y="169.42105263157896"/>
      <point x="321.7105263157895" y="163.1578947368421" type="curve"/>
    </contour>
  </outline>
</glyph>
<glyph name="F" format="2">
  <advance width="583.2368421052631"/>
  <unicode hex="0046"/>
  <outline>
    <contour>
      <point x="46.0" y="0.0" type="curve"/>
      <point x="279.60526315789474" y="0.0" type="line"/>
      <point x="268.4473684210526" y="75.28947368421052"/>
      <point x="263.55263157894734" y="140.39473684210526"/>
      <point x="263.55263157894734" y="230.6578947368421" type="curve"/>
      <point x="263.55263157894734" y="441.0" type="line"/>
      <point x="263.55263157894734" y="534.5263157894736"/>
      <point x="268.4473684210526" y="602.078947368421"/>
      <point x="279.60526315789474" y="679.8157894736842" type="curve"/>
      <point x="279.60526315789474" y="713.0" type="line"/>
      <point x="46.0" y="713.0" type="line"/>
      <point x="56.15789473684211" y="635.2631578947369"/>
      <point x="61.86842105263158" y="567.7105263157895"/>
      <point x="61.86842105263158" y="474.1842105263158" type="curve"/>
      <point x="61.86842105263158" y="230.6578947368421" type="line"/>
      <point x="61.86842105263158" y="140.39473684210526"/>
      <point x="56.15789473684211" y="75.28947368421052"/>
    </contour>
    <contour>
      <point x="211.05263157894734" y="263.7894736842105" type="line"/>
      <point x="335.2631578947368" y="263.7894736842105" type="line"/>
      <point x="417.02631578947364" y="263.7894736842105"/>
      <point x="472.6842105263158" y="262.1578947368421"/>
      <point x="532.7105263157895" y="254.6315789473684" type="curve"/>
      <point x="532.7105263157895" y="437.2894736842105" type="line"/>
      <point x="475.86842105263156" y="428.57894736842104"/>
      <point x="420.02631578947364" y="426.9473684210526"/>
      <point x="335.4473684210526" y="426.9473684210526" type="curve"/>
      <point x="211.05263157894734" y="426.9473684210526" type="line"/>
    </contour>
    <contour>
      <point x="224.10526315789474" y="542.5" type="line"/>
      <point x="334.60526315789474" y="542.5" type="line"/>
      <point x="425.02631578947364" y="542.5"/>
      <point x="487.9736842105263" y="537.421052631579"/>
      <point x="546.7368421052631" y="527.078947368421" type="curve"/>
      <point x="546.7368421052631" y="713.0" type="line"/>
      <point x="224.10526315789474" y="713.0" type="line"/>
    </contour>
  </outline>
</glyph>
<glyph name="G" format="2">
  <advance width="724.7631578947368"/>
  <unicode hex="0047"/>
  <anchor x="394.4736842105263" y="0.0" name="bottom"/>
  <anchor x="394.4736842105263" y="713.0" name="top"/>
  <outline>
    <contour>
      <point x="418.0526315789474" y="-13.894736842105264" type="curve" smooth="yes"/>
      <point x="514.578947368421" y="-13.894736842105264"/>
      <point x="630.578947368421" y="6.842105263157896"/>
      <point x="684.4736842105264" y="17.05263157894737" type="curve"/>
      <point x="650.7368421052631" y="202.07894736842104" type="line"/>
      <point x="581.6578947368421" y="164.44736842105263"/>
      <point x="522.9473684210526" y="148.81578947368422"/>
      <point x="436.8157894736842" y="148.81578947368422" type="curve"/>
      <point x="306.3157894736842" y="152.63157894736844"/>
      <point x="243.92105263157893" y="243.42105263157896"/>
      <point x="243.92105263157893" y="354.92105263157896" type="curve" smooth="yes"/>
      <point x="243.92105263157893" y="489.39473684210526"/>
      <point x="326.86842105263156" y="551.9473684210526"/>
      <point x="399.8421052631579" y="554.9473684210526" type="curve"/>
      <point x="442.4736842105263" y="554.9473684210526"/>
      <point x="530.4736842105264" y="535.3157894736842"/>
      <point x="649.7894736842105" y="485.42105263157896" type="curve"/>
      <point x="664.578947368421" y="677.6052631578947" type="line"/>
      <point x="599.5" y="698.3421052631579"/>
      <point x="500.6842105263158" y="728.2631578947369"/>
      <point x="401.4736842105263" y="728.2631578947369" type="curve" smooth="yes"/>
      <point x="169.3684210526316" y="728.2631578947369"/>
      <point x="30.63157894736842" y="575.2631578947369"/>
      <point x="30.63157894736842" y="355.7368421052632" type="curve" smooth="yes"/>
      <point x="30.63157894736842" y="138.31578947368422"/>
      <point x="173.94736842105263" y="-13.894736842105264"/>
    </contour>
    <contour>
      <point x="474.7105263157895" y="17.05263157894737" type="curve"/>
      <point x="684.4736842105264" y="17.05263157894737" type="line"/>
      <point x="676.7631578947369" y="93.02631578947368"/>
      <point x="675.1315789473684" y="147.55263157894737"/>
      <point x="675.1315789473684" y="205.71052631578948" type="curve"/>
      <point x="675.1315789473684" y="273.05263157894734"/>
      <point x="680.0263157894738" y="320.7631578947368"/>
      <point x="691.0" y="375.10526315789474" type="curve"/>
      <point x="466.3684210526316" y="375.10526315789474" type="line"/>
      <point x="476.5263157894737" y="320.7631578947368"/>
      <point x="482.42105263157896" y="273.05263157894734"/>
      <point x="482.42105263157896" y="205.71052631578948" type="curve"/>
      <point x="482.42105263157896" y="147.55263157894737"/>
      <point x="479.9736842105263" y="93.02631578947368"/>
    </contour>
  </outline>
</glyph>
<glyph name="H" format="2">
  <advance width="758.9736842105264"/>
  <unicode hex="0048"/>
  <anchor x="379.89473684210526" y="0.0" name="bottom"/>
  <anchor x="379.89473684210526" y="357.0" name="center"/>
  <anchor x="379.89473684210526" y="713.0" name="top"/>
  <anchor x="41.71052631578947" y="713.0" name="topleft"/>
  <outline>
    <contour>
      <point x="474.47368421052636" y="0.0" type="curve"/>
      <point x="712.9736842105264" y="0.0" type="line"/>
      <point x="701.8157894736843" y="75.28947368421052"/>
      <point x="696.921052631579" y="140.39473684210526"/>
      <point x="696.921052631579" y="230.6578947368421" type="curve"/>
      <point x="696.921052631579" y="474.1842105263158" type="line"/>
      <point x="696.921052631579" y="567.7105263157895"/>
      <point x="701.8157894736843" y="635.2631578947369"/>
      <point x="712.9736842105264" y="713.0" type="curve"/>
      <point x="474.47368421052636" y="713.0" type="line"/>
      <point x="484.63157894736844" y="635.2631578947369"/>
      <point x="490.3421052631579" y="567.7105263157895"/>
      <point x="490.3421052631579" y="474.1842105263158" type="curve"/>
      <point x="490.3421052631579" y="230.6578947368421" type="line"/>
      <point x="490.3421052631579" y="140.39473684210526"/>
      <point x="484.63157894736844" y="75.28947368421052"/>
    </contour>
    <contour>
      <point x="46.0" y="0.0" type="curve"/>
      <point x="284.5" y="0.0" type="line"/>
      <point x="273.34210526315786" y="75.28947368421052"/>
      <point x="268.4473684210526" y="140.39473684210526"/>
      <point x="268.4473684210526" y="230.6578947368421" type="curve"/>
      <point x="268.4473684210526" y="474.1842105263158" type="line"/>
      <point x="268.4473684210526" y="567.7105263157895"/>
      <point x="273.34210526315786" y="635.2631578947369"/>
      <point x="284.5" y="713.0" type="curve"/>
      <point x="46.0" y="713.0" type="line"/>
      <point x="56.15789473684211" y="635.2631578947369"/>
      <point x="61.86842105263158" y="567.7105263157895"/>
      <point x="61.86842105263158" y="474.1842105263158" type="curve"/>
      <point x="61.86842105263158" y="230.6578947368421" type="line"/>
      <point x="61.86842105263158" y="140.39473684210526"/>
      <point x="56.15789473684211" y="75.28947368421052"/>
    </contour>
    <contour>
      <point x="214.81578947368422" y="272.7631578947369" type="line"/>
      <point x="545.3421052631579" y="272.7631578947369" type="line"/>
      <point x="545.3421052631579" y="443.2631578947368" type="line"/>
      <point x="214.81578947368422" y="443.2631578947368" type="line"/>
    </contour>
  </outline>
</glyph>
<glyph name="J" format="2">
  <advance width="341.1578947368421"/>
  <unicode hex="004A"/>
  <anchor x="169.10526315789474" y="0.0" name="bottom"/>
  <anchor x="169.10526315789474" y="713.0" name="top"/>
  <outline>
    <contour>
      <point x="-2.552631578947368" y="-153.47368421052633" type="curve"/>
      <point x="197.36842105263156" y="-153.47368421052633" type="line"/>
      <point x="234.99999999999997" y="-106.84210526315789"/>
      <point x="286.63157894736844" y="-34.473684210526315"/>
      <point x="286.63157894736844" y="74.76315789473685" type="curve" smooth="yes"/>
      <point x="286.63157894736844" y="160.97368421052633"/>
      <point x="275.0263157894737" y="253.18421052631578"/>
      <point x="275.0263157894737" y="348.9473684210526" type="curve"/>
      <point x="275.0263157894737" y="474.1842105263158" type="line"/>
      <point x="275.0263157894737" y="567.7105263157895"/>
      <point x="279.92105263157896" y="635.2631578947369"/>
      <point x="291.07894736842104" y="713.0" type="curve"/>
      <point x="52.578947368421055" y="713.0" type="line"/>
      <point x="62.736842105263165" y="635.2631578947369"/>
      <point x="68.44736842105263" y="567.7105263157895"/>
      <point x="68.44736842105263" y="474.1842105263158" type="curve"/>
      <point x="68.44736842105263" y="343.2368421052631" type="line"/>
      <point x="68.26315789473685" y="85.10526315789474" type="line"/>
      <point x="68.26315789473684" y="-1.921052631578947"/>
      <point x="46.28947368421053" y="-81.05263157894737"/>
    </contour>
  </outline>
</glyph>
<glyph name="K" format="2">
  <advance width="717.9736842105264"/>
  <unicode hex="004B"/>
  <anchor x="367.89473684210526" y="0.0" name="bottom"/>
  <anchor x="367.89473684210526" y="713.0" name="top"/>
  <outline>
    <contour>
      <point x="442.7105263157895" y="0.0" type="curve"/>
      <point x="720.421052631579" y="0.0" type="line"/>
      <point x="667.1052631578947" y="64.71052631578947"/>
      <point x="592.2894736842105" y="177.28947368421052"/>
      <point x="539.578947368421" y="260.3421052631579" type="curve"/>
      <point x="425.42105263157896" y="440.89473684210526" type="line"/>
      <point x="429.5" y="350.2105263157895" type="line"/>
      <point x="532.1842105263158" y="490.92105263157896" type="line"/>
      <point x="586.8947368421053" y="566.0"/>
      <point x="640.7894736842105" y="639.4473684210526"/>
      <point x="707.3947368421052" y="713.0" type="curve"/>
      <point x="440.47368421052636" y="713.0" type="line"/>
      <point x="414.65789473684214" y="648.5"/>
      <point x="390.36842105263156" y="603.2894736842105"/>
      <point x="358.89473684210526" y="554.3421052631579" type="curve"/>
      <point x="292.6578947368421" y="451.5263157894737" type="line"/>
      <point x="253.10526315789474" y="451.5263157894737" type="line"/>
      <point x="253.10526315789474" y="291.63157894736844" type="line"/>
      <point x="295.7368421052631" y="291.63157894736844" type="line"/>
      <point x="367.39473684210526" y="163.3684210526316" type="line"/>
      <point x="395.2368421052631" y="113.97368421052632"/>
      <point x="422.07894736842104" y="63.39473684210527"/>
    </contour>
    <contour>
      <point x="46.0" y="0.0" type="curve"/>
      <point x="283.68421052631584" y="0.0" type="line"/>
      <point x="272.5263157894737" y="75.28947368421052"/>
      <point x="267.63157894736844" y="140.39473684210526"/>
      <point x="267.63157894736844" y="230.6578947368421" type="curve"/>
      <point x="267.63157894736844" y="474.1842105263158" type="line"/>
      <point x="267.63157894736844" y="567.7105263157895"/>
      <point x="272.5263157894737" y="635.2631578947369"/>
      <point x="283.68421052631584" y="713.0" type="curve"/>
      <point x="46.0" y="713.0" type="line"/>
      <point x="56.15789473684211" y="635.2631578947369"/>
      <point x="61.86842105263158" y="567.7105263157895"/>
      <point x="61.86842105263158" y="474.1842105263158" type="curve"/>
      <point x="61.86842105263158" y="230.6578947368421" type="line"/>
      <point x="61.86842105263158" y="140.39473684210526"/>
      <point x="56.15789473684211" y="75.28947368421052"/>
    </contour>
  </outline>
</glyph>
<glyph name="L" format="2">
  <advance width="576.6052631578948"/>
  <unicode hex="004C"/>
  <anchor x="301.86842105263156" y="0.0" name="bottom"/>
  <anchor x="447.07894736842104" y="359.44736842105266" name="center"/>
  <anchor x="243.18421052631578" y="713.0" name="top"/>
  <anchor x="315.3157894736842" y="500.5263157894737" name="topright"/>
  <outline>
    <contour>
      <point x="46.0" y="0.0" type="curve"/>
      <point x="284.5" y="0.0" type="line"/>
      <point x="284.5" y="33.368421052631575" type="line"/>
      <point x="273.34210526315786" y="108.65789473684211"/>
      <point x="268.4473684210526" y="173.76315789473685"/>
      <point x="268.4473684210526" y="264.0263157894737" type="curve"/>
      <point x="268.4473684210526" y="474.1842105263158" type="line"/>
      <point x="268.4473684210526" y="567.7105263157895"/>
      <point x="273.34210526315786" y="635.2631578947369"/>
      <point x="284.5" y="713.0" type="curve"/>
      <point x="46.0" y="713.0" type="line"/>
      <point x="56.15789473684211" y="635.2631578947369"/>
      <point x="61.86842105263158" y="567.7105263157895"/>
      <point x="61.86842105263158" y="474.1842105263158" type="curve"/>
      <point x="61.86842105263158" y="230.6578947368421" type="line"/>
      <point x="61.86842105263158" y="140.39473684210526"/>
      <point x="56.15789473684211" y="75.28947368421052"/>
    </contour>
    <contour>
      <point x="241.23684210526315" y="0.0" type="line"/>
      <point x="550.0263157894736" y="0.0" type="line"/>
      <point x="550.0263157894736" y="199.78947368421052" type="line"/>
      <point x="483.9736842105263" y="185.3684210526316"/>
      <point x="427.6578947368421" y="178.6578947368421"/>
      <point x="330.7631578947368" y="178.6578947368421" type="curve"/>
      <point x="241.23684210526315" y="178.6578947368421" type="line"/>
    </contour>
  </outline>
</glyph>
<glyph name="M" format="2">
  <advance width="967.1315789473684"/>
  <unicode hex="004D"/>
  <anchor x="483.15789473684214" y="0.0" name="bottom"/>
  <anchor x="483.15789473684214" y="713.0" name="top"/>
  <outline>
    <contour>
      <point x="26.23684210526316" y="0.0" type="curve"/>
      <point x="252.86842105263156" y="0.0" type="line"/>
      <point x="248.28947368421052" y="85.0"/>
      <point x="250.42105263157893" y="161.89473684210526"/>
      <point x="258.7105263157895" y="228.76315789473685" type="curve"/>
      <point x="276.47368421052636" y="373.15789473684214" type="line"/>
      <point x="290.07894736842104" y="373.15789473684214" type="line"/>
      <point x="345.15789473684214" y="218.18421052631578" type="line"/>
      <point x="371.0526315789474" y="146.21052631578945"/>
      <point x="390.89473684210526" y="66.47368421052632"/>
      <point x="404.5263157894737" y="0.0" type="curve"/>
      <point x="570.9473684210526" y="0.0" type="line"/>
      <point x="584.1315789473684" y="67.13157894736842"/>
      <point x="601.7894736842105" y="144.21052631578945"/>
      <point x="623.9736842105264" y="218.55263157894737" type="curve"/>
      <point x="670.078947368421" y="373.15789473684214" type="line"/>
      <point x="683.6842105263158" y="373.15789473684214" type="line"/>
      <point x="701.4473684210526" y="228.76315789473685" type="line"/>
      <point x="709.7368421052632" y="161.89473684210526"/>
      <point x="711.6842105263157" y="84.1842105263158"/>
      <point x="707.921052631579" y="0.0" type="curve"/>
      <point x="940.8947368421052" y="0.0" type="line"/>
      <point x="921.5526315789473" y="74.47368421052632"/>
      <point x="906.8421052631578" y="143.8421052631579"/>
      <point x="896.0263157894736" y="230.6578947368421" type="curve"/>
      <point x="864.7631578947369" y="472.1842105263158" type="line"/>
      <point x="853.7631578947369" y="558.5526315789474"/>
      <point x="848.2105263157895" y="634.2631578947369"/>
      <point x="846.7368421052632" y="713.0" type="curve"/>
      <point x="611.1315789473684" y="713.0" type="line"/>
      <point x="597.9473684210526" y="639.2368421052631"/>
      <point x="581.5" y="580.0"/>
      <point x="559.1578947368421" y="518.3157894736842" type="curve"/>
      <point x="493.5" y="334.0" type="line"/>
      <point x="480.5263157894737" y="334.0" type="line"/>
      <point x="410.7894736842105" y="518.3157894736842" type="line"/>
      <point x="387.63157894736844" y="580.0"/>
      <point x="368.7368421052632" y="640.0526315789474"/>
      <point x="355.5526315789474" y="713.0" type="curve"/>
      <point x="115.68421052631578" y="713.0" type="line"/>
      <point x="115.21052631578947" y="633.2631578947369"/>
      <point x="110.47368421052632" y="558.1842105263158"/>
      <point x="99.47368421052632" y="472.1842105263158" type="curve"/>
      <point x="69.65789473684211" y="230.6578947368421" type="line"/>
      <point x="58.6578947368421" y="144.47368421052633"/>
      <point x="43.94736842105263" y="72.02631578947368"/>
    </contour>
  </outline>
</glyph>
<glyph name="N" format="2">
  <advance width="756.3684210526316"/>
  <unicode hex="004E"/>
  <anchor x="379.0" y="0.0" name="bottom"/>
  <anchor x="379.0" y="713.0" name="top"/>
  <outline>
    <contour>
      <point x="46.0" y="0.0" type="curve"/>
      <point x="270.63157894736844" y="0.0" type="line"/>
      <point x="259.4736842105263" y="75.28947368421052"/>
      <point x="254.57894736842104" y="140.39473684210526"/>
      <point x="254.57894736842104" y="230.6578947368421" type="curve"/>
      <point x="254.57894736842104" y="368.65789473684214" type="line"/>
      <point x="268.36842105263156" y="368.65789473684214" type="line"/>
      <point x="365.2631578947368" y="226.31578947368422" type="line"/>
      <point x="421.60526315789474" y="143.10526315789474"/>
      <point x="465.7368421052632" y="73.57894736842105"/>
      <point x="499.60526315789474" y="0.0" type="curve"/>
      <point x="710.3684210526316" y="0.0" type="line"/>
      <point x="699.2105263157895" y="75.28947368421052"/>
      <point x="694.3157894736842" y="140.39473684210526"/>
      <point x="694.3157894736842" y="230.6578947368421" type="curve"/>
      <point x="694.3157894736842" y="474.1842105263158" type="line"/>
      <point x="694.3157894736842" y="567.7105263157895"/>
      <point x="699.2105263157895" y="635.2631578947369"/>
      <point x="710.3684210526316" y="713.0" type="curve"/>
      <point x="485.7368421052632" y="713.0" type="line"/>
      <point x="495.89473684210526" y="635.2631578947369"/>
      <point x="501.60526315789474" y="567.7105263157895"/>
      <point x="501.60526315789474" y="474.1842105263158" type="curve"/>
      <point x="501.60526315789474" y="345.07894736842104" type="line"/>
      <point x="487.0" y="345.07894736842104" type="line"/>
      <point x="392.55263157894734" y="486.2368421052631" type="line"/>
      <point x="346.42105263157896" y="554.3157894736842"/>
      <point x="305.0" y="627.2105263157895"/>
      <point x="263.4736842105263" y="713.0" type="curve"/>
      <point x="46.0" y="713.0" type="line"/>
      <point x="56.15789473684211" y="635.2631578947369"/>
      <point x="61.86842105263158" y="567.7105263157895"/>
      <point x="61.86842105263158" y="474.1842105263158" type="curve"/>
      <point x="61.86842105263158" y="230.6578947368421" type="line"/>
      <point x="61.86842105263158" y="140.39473684210526"/>
      <point x="56.15789473684211" y="75.28947368421052"/>
    </contour>
  </outline>
</glyph>
<glyph name="O" format="2">
  <advance width="812.4736842105264"/>
  <unicode hex="004F"/>
  <anchor x="406.55263157894734" y="0.0" name="bottom"/>
  <anchor x="406.55263157894734" y="357.0" name="center"/>
  <anchor x="522.5526315789474" y="0.0" name="ogonek"/>
  <anchor x="406.55263157894734" y="713.0" name="top"/>
  <anchor x="24.55263157894737" y="713.0" name="topleft"/>
  <anchor x="700.7894736842105" y="713.0" name="topright"/>
  <outline>
    <contour>
      <point x="409.7368421052632" y="-14.710526315789473" type="curve" smooth="yes"/>
      <point x="654.3684210526316" y="-14.710526315789473"/>
      <point x="781.8421052631579" y="143.10526315789474"/>
      <point x="781.8421052631579" y="356.36842105263156" type="curve" smooth="yes"/>
      <point x="781.8421052631579" y="562.0"/>
      <point x="661.1842105263158" y="728.2631578947369"/>
      <point x="404.4736842105263" y="728.2631578947369" type="curve" smooth="yes"/>
      <point x="150.94736842105263" y="728.2631578947369"/>
      <point x="30.63157894736842" y="563.3684210526316"/>
      <point x="30.63157894736842" y="355.55263157894734" type="curve" smooth="yes"/>
      <point x="30.63157894736842" y="160.44736842105263"/>
      <point x="143.0263157894737" y="-14.710526315789473"/>
    </contour>
    <contour>
      <point x="406.92105263157896" y="152.89473684210526" type="curve"/>
      <point x="297.6842105263158" y="160.1578947368421"/>
      <point x="245.55263157894737" y="245.26315789473682"/>
      <point x="245.55263157894737" y="356.36842105263156" type="curve" smooth="yes"/>
      <point x="245.55263157894737" y="469.7368421052631"/>
      <point x="300.86842105263156" y="553.3947368421052"/>
      <point x="406.92105263157896" y="560.6578947368421" type="curve"/>
      <point x="509.2368421052631" y="553.3947368421052"/>
      <point x="566.921052631579" y="471.9473684210526"/>
      <point x="566.921052631579" y="356.36842105263156" type="curve" smooth="yes"/>
      <point x="566.921052631579" y="245.99999999999997"/>
      <point x="515.3421052631579" y="160.1578947368421"/>
    </contour>
  </outline>
</glyph>
<glyph name="P" format="2">
  <advance width="665.4271844660193"/>
  <unicode hex="0050"/>
  <outline>
    <contour>
      <point x="388.93203883495147" y="228.3495145631068" type="curve"/>
      <point x="567.0485436893204" y="228.3495145631068"/>
      <point x="639.9902912621359" y="329.6504854368932"/>
      <point x="639.9902912621359" y="476.873786407767" type="curve" smooth="yes"/>
      <point x="639.9902912621359" y="657.621359223301"/>
      <point x="545.4271844660193" y="718.9805825242718"/>
      <point x="366.2038834951456" y="718.9805825242718" type="curve"/>
      <point x="229.37864077669903" y="718.9805825242718"/>
      <point x="121.17475728155341" y="713.0"/>
      <point x="45.93203883495146" y="713.0" type="curve"/>
      <point x="250.15533980582526" y="555.1844660194174" type="line"/>
      <point x="351.92233009708735" y="555.1844660194174" type="line" smooth="yes"/>
      <point x="393.75728155339806" y="555.1844660194174"/>
      <point x="430.74757281553394" y="534.5825242718447"/>
      <point x="430.74757281553394" y="470.59223300970876" type="curve" smooth="yes"/>
      <point x="430.74757281553394" y="408.6601941747573"/>
      <point x="403.8932038834952" y="380.24271844660194"/>
      <point x="339.8058252427184" y="380.24271844660194" type="curve" smooth="yes"/>
      <point x="239.55339805825244" y="380.24271844660194" type="line"/>
      <point x="239.55339805825244" y="231.00970873786406" type="line"/>
      <point x="276.8932038834951" y="231.00970873786406"/>
      <point x="341.252427184466" y="228.3495145631068"/>
    </contour>
    <contour>
      <point x="45.93203883495146" y="0.0" type="curve"/>
      <point x="280.4174757281553" y="0.0" type="line"/>
      <point x="269.11650485436894" y="75.35922330097087"/>
      <point x="264.47572815533977" y="140.37864077669903"/>
      <point x="264.47572815533977" y="230.6990291262136" type="curve"/>
      <point x="264.47572815533977" y="441.13592233009706" type="line"/>
      <point x="264.47572815533977" y="534.4368932038834"/>
      <point x="269.11650485436894" y="602.1165048543689"/>
      <point x="280.4174757281553" y="679.7961165048544" type="curve"/>
      <point x="45.93203883495146" y="713.0" type="line"/>
      <point x="56.23300970873786" y="635.3203883495146"/>
      <point x="61.873786407766985" y="567.6407766990291"/>
      <point x="61.873786407766985" y="474.3398058252427" type="curve"/>
      <point x="61.873786407766985" y="230.6990291262136" type="line"/>
      <point x="61.873786407766985" y="140.37864077669903"/>
      <point x="56.23300970873786" y="75.35922330097087"/>
    </contour>
  </outline>
</glyph>
<glyph name="S" format="2">
  <advance width="608.5242718446602"/>
  <unicode hex="0053"/>
  <anchor x="305.2815533980583" y="0.0" name="bottom"/>
  <anchor x="305.2815533980583" y="713.0" name="top"/>
  <outline>
    <contour>
      <point x="295.3592233009709" y="-14.640776699029125" type="curve" smooth="yes"/>
      <point x="497.8252427184466" y="-14.640776699029125"/>
      <point x="584.0873786407767" y="70.37864077669903"/>
      <point x="584.0873786407767" y="210.2233009708738" type="curve" smooth="yes"/>
      <point x="584.0873786407767" y="331.16504854368935"/>
      <point x="528.4271844660194" y="381.80582524271847"/>
      <point x="358.0873786407767" y="430.18446601941747" type="curve" smooth="yes"/>
      <point x="283.79611650485435" y="451.621359223301"/>
      <point x="250.01941747572815" y="467.378640776699"/>
      <point x="250.01941747572815" y="506.5533980582524" type="curve" smooth="yes"/>
      <point x="250.01941747572815" y="545.0873786407768"/>
      <point x="281.25242718446606" y="560.5436893203884"/>
      <point x="321.1650485436893" y="563.2038834951456" type="curve"/>
      <point x="357.50485436893206" y="563.2038834951456"/>
      <point x="439.46601941747576" y="543.8834951456311"/>
      <point x="529.7669902912621" y="506.20388349514565" type="curve"/>
      <point x="544.0679611650486" y="691.9223300970875" type="line"/>
      <point x="489.40776699029124" y="702.9611650485438"/>
      <point x="377.2233009708738" y="728.3203883495146"/>
      <point x="293.3009708737864" y="728.3203883495146" type="curve" smooth="yes"/>
      <point x="114.79611650485437" y="728.3203883495146"/>
      <point x="32.47572815533981" y="639.3592233009709"/>
      <point x="32.47572815533981" y="506.495145631068" type="curve" smooth="yes"/>
      <point x="32.47572815533981" y="377.8932038834952"/>
      <point x="107.49514563106797" y="326.2718446601942"/>
      <point x="233.23300970873788" y="292.2135922330097" type="curve" smooth="yes"/>
      <point x="314.7864077669903" y="269.79611650485435"/>
      <point x="367.54368932038835" y="252.03883495145632"/>
      <point x="367.54368932038835" y="207.50485436893206" type="curve" smooth="yes"/>
      <point x="367.54368932038835" y="166.5922330097087"/>
      <point x="335.31067961165047" y="150.15533980582524"/>
      <point x="293.6990291262136" y="147.49514563106794" type="curve"/>
      <point x="231.01941747572815" y="147.49514563106794"/>
      <point x="133.77669902912623" y="173.13592233009706"/>
      <point x="58.75728155339806" y="205.81553398058253" type="curve"/>
      <point x="44.79611650485437" y="19.097087378640776" type="line"/>
      <point x="98.79611650485437" y="8.398058252427187"/>
      <point x="181.45631067961165" y="-14.640776699029125"/>
    </contour>
  </outline>
</glyph>
<glyph name="T" format="2">
  <advance width="648.421052631579"/>
  <unicode hex="0054"/>
  <anchor x="324.7105263157895" y="0.0" name="bottom"/>
  <anchor x="324.7105263157895" y="309.6842105263158" name="center"/>
  <anchor x="324.7105263157895" y="713.0" name="top"/>
  <outline>
    <contour>
      <point x="205.55263157894737" y="0.0" type="curve"/>
      <point x="443.2368421052631" y="0.0" type="line"/>
      <point x="432.07894736842104" y="75.28947368421052"/>
      <point x="427.1842105263158" y="140.39473684210526"/>
      <point x="427.1842105263158" y="230.6578947368421" type="curve"/>
      <point x="427.1842105263158" y="441.0" type="line"/>
      <point x="427.1842105263158" y="534.5263157894736"/>
      <point x="432.2631578947368" y="602.078947368421"/>
      <point x="443.2368421052631" y="679.8157894736842" type="curve"/>
      <point x="443.2368421052631" y="713.0" type="line"/>
      <point x="205.3684210526316" y="713.0" type="line"/>
      <point x="205.3684210526316" y="679.8157894736842" type="line"/>
      <point x="216.34210526315792" y="602.078947368421"/>
      <point x="221.42105263157896" y="534.5263157894736"/>
      <point x="221.42105263157896" y="441.0" type="curve"/>
      <point x="221.42105263157896" y="230.6578947368421" type="line"/>
      <point x="221.42105263157896" y="140.39473684210526"/>
      <point x="216.5263157894737" y="75.28947368421052"/>
    </contour>
    <contour>
      <point x="22.763157894736842" y="513.2105263157895" type="line"/>
      <point x="72.78947368421052" y="527.4473684210526"/>
      <point x="125.81578947368422" y="534.3421052631579"/>
      <point x="198.57894736842104" y="534.3421052631579" type="curve"/>
      <point x="255.78947368421052" y="534.3421052631579" type="line"/>
      <point x="255.78947368421052" y="713.0" type="line"/>
      <point x="22.763157894736842" y="713.0" type="line"/>
    </contour>
    <contour>
      <point x="392.63157894736844" y="534.3421052631579" type="line"/>
      <point x="449.8421052631579" y="534.3421052631579" type="line"/>
      <point x="522.6052631578947" y="534.3421052631579"/>
      <point x="575.8157894736843" y="527.6315789473684"/>
      <point x="625.6578947368421" y="513.2105263157895" type="curve"/>
      <point x="625.6578947368421" y="713.0" type="line"/>
      <point x="392.63157894736844" y="713.0" type="line"/>
    </contour>
  </outline>
</glyph>
<glyph name="U" format="2">
  <advance width="727.1052631578947"/>
  <unicode hex="0055"/>
  <anchor x="364.55263157894734" y="0.0" name="bottom"/>
  <anchor x="482.4473684210526" y="0.0" name="ogonek"/>
  <anchor x="364.55263157894734" y="713.0" name="top"/>
  <anchor x="711.0263157894736" y="713.0" name="topright"/>
  <outline>
    <contour>
      <point x="365.1842105263158" y="-14.710526315789473" type="curve" smooth="yes"/>
      <point x="579.7368421052631" y="-14.710526315789473"/>
      <point x="678.0526315789474" y="84.5"/>
      <point x="678.0526315789474" y="278.39473684210526" type="curve" smooth="yes"/>
      <point x="678.0526315789474" y="312.60526315789474"/>
      <point x="673.7894736842105" y="399.42105263157896"/>
      <point x="673.7894736842105" y="474.1842105263158" type="curve"/>
      <point x="673.7894736842105" y="567.7105263157895"/>
      <point x="678.6842105263158" y="635.2631578947369"/>
      <point x="689.8421052631579" y="713.0" type="curve"/>
      <point x="452.15789473684214" y="713.0" type="line"/>
      <point x="462.3157894736842" y="635.2631578947369"/>
      <point x="468.0263157894737" y="567.7105263157895"/>
      <point x="468.0263157894737" y="474.1842105263158" type="curve"/>
      <point x="468.0263157894737" y="288.39473684210526" type="line" smooth="yes"/>
      <point x="468.0263157894737" y="197.8421052631579"/>
      <point x="439.84210526315786" y="157.1578947368421"/>
      <point x="364.36842105263156" y="152.89473684210526" type="curve"/>
      <point x="292.15789473684214" y="157.1578947368421"/>
      <point x="258.89473684210526" y="198.02631578947367"/>
      <point x="258.89473684210526" y="288.2105263157895" type="curve" smooth="yes"/>
      <point x="258.89473684210526" y="474.1842105263158" type="line"/>
      <point x="258.89473684210526" y="567.7105263157895"/>
      <point x="263.7894736842105" y="635.2631578947369"/>
      <point x="274.9473684210526" y="713.0" type="curve"/>
      <point x="37.26315789473685" y="713.0" type="line"/>
      <point x="47.42105263157895" y="635.2631578947369"/>
      <point x="53.131578947368425" y="567.7105263157895"/>
      <point x="53.131578947368425" y="474.1842105263158" type="curve"/>
      <point x="53.131578947368425" y="399.42105263157896"/>
      <point x="48.86842105263158" y="315.86842105263156"/>
      <point x="48.86842105263158" y="279.2105263157895" type="curve" smooth="yes"/>
      <point x="48.86842105263158" y="89.39473684210527"/>
      <point x="136.94736842105263" y="-14.710526315789473"/>
    </contour>
  </outline>
</glyph>
<glyph name="V" format="2">
  <advance width="726.7368421052632"/>
  <unicode hex="0056"/>
  <anchor x="363.5526315789474" y="0.0" name="bottom"/>
  <anchor x="363.5526315789474" y="713.0" name="top"/>
  <outline>
    <contour>
      <point x="210.4736842105263" y="0.0" type="curve"/>
      <point x="512.921052631579" y="0.0" type="line"/>
      <point x="526.6842105263158" y="72.1842105263158"/>
      <point x="544.0" y="156.81578947368422"/>
      <point x="564.4736842105264" y="225.81578947368422" type="curve"/>
      <point x="629.4473684210526" y="450.0" type="line"/>
      <point x="652.1052631578948" y="527.8157894736842"/>
      <point x="688.8421052631579" y="632.8947368421052"/>
      <point x="726.2894736842105" y="713.0" type="curve"/>
      <point x="465.8421052631579" y="713.0" type="line"/>
      <point x="457.9210526315789" y="628.3684210526316"/>
      <point x="441.7368421052632" y="529.7368421052632"/>
      <point x="423.2105263157895" y="447.5526315789474" type="curve"/>
      <point x="369.1842105263158" y="208.1315789473684" type="line"/>
      <point x="355.0263157894737" y="208.1315789473684" type="line"/>
      <point x="305.7105263157895" y="446.5526315789474" type="line"/>
      <point x="288.63157894736844" y="529.0"/>
      <point x="270.89473684210526" y="628.7368421052632"/>
      <point x="263.34210526315786" y="713.0" type="curve"/>
      <point x="-0.5526315789473664" y="713.0" type="line"/>
      <point x="38.078947368421055" y="631.8947368421053"/>
      <point x="74.00000000000001" y="527.6315789473683"/>
      <point x="95.8421052631579" y="450.0" type="curve"/>
      <point x="159.55263157894737" y="226.0" type="line"/>
      <point x="178.39473684210526" y="158.8157894736842"/>
      <point x="197.5263157894737" y="71.8157894736842"/>
    </contour>
  </outline>
</glyph>
<glyph name="W" format="2">
  <advance width="1061.8157894736842"/>
  <unicode hex="0057"/>
  <anchor x="525.921052631579" y="0.0" name="bottom"/>
  <anchor x="525.921052631579" y="713.0" name="top"/>
  <outline>
    <contour>
      <point x="184.81578947368422" y="0.0" type="curve"/>
      <point x="445.9473684210526" y="0.0" type="line"/>
      <point x="451.2894736842105" y="69.21052631578948"/>
      <point x="461.5526315789474" y="151.6315789473684"/>
      <point x="474.7894736842105" y="218.39473684210526" type="curve"/>
      <point x="513.1315789473684" y="415.8421052631579" type="line"/>
      <point x="527.2894736842105" y="415.8421052631579" type="line"/>
      <point x="567.4473684210526" y="219.21052631578948" type="line"/>
      <point x="581.5" y="151.6315789473684"/>
      <point x="591.7631578947368" y="69.39473684210526"/>
      <point x="597.2894736842105" y="0.0" type="curve"/>
      <point x="873.1052631578947" y="0.0" type="line"/>
      <point x="881.1315789473684" y="69.63157894736841"/>
      <point x="899.7894736842105" y="155.8157894736842"/>
      <point x="917.7105263157895" y="225.18421052631578" type="curve"/>
      <point x="976.1052631578948" y="450.0" type="line"/>
      <point x="996.0263157894736" y="528.1842105263157"/>
      <point x="1026.842105263158" y="631.078947368421"/>
      <point x="1065.0" y="713.0" type="curve"/>
      <point x="799.6578947368422" y="713.0" type="line"/>
      <point x="793.9473684210526" y="635.2631578947369"/>
      <point x="783.3157894736842" y="542.421052631579"/>
      <point x="771.3421052631579" y="467.3157894736842" type="curve"/>
      <point x="736.1578947368421" y="245.02631578947367" type="line"/>
      <point x="722.0" y="245.02631578947367" type="line"/>
      <point x="681.8421052631579" y="466.3157894736842" type="line"/>
      <point x="667.421052631579" y="542.7894736842105"/>
      <point x="657.3421052631579" y="634.8947368421052"/>
      <point x="651.6315789473684" y="713.0" type="curve"/>
      <point x="409.0" y="713.0" type="line"/>
      <point x="403.65789473684214" y="635.4473684210527"/>
      <point x="392.39473684210526" y="542.0526315789474"/>
      <point x="379.1578947368421" y="467.3157894736842" type="curve"/>
      <point x="340.8157894736842" y="245.02631578947367" type="line"/>
      <point x="326.6578947368421" y="245.02631578947367" type="line"/>
      <point x="291.6578947368421" y="465.94736842105266" type="line"/>
      <point x="279.5" y="542.421052631579"/>
      <point x="269.05263157894734" y="634.8947368421052"/>
      <point x="263.15789473684214" y="713.0" type="curve"/>
      <point x="-3.0" y="713.0" type="line"/>
      <point x="35.60526315789474" y="630.6315789473684"/>
      <point x="64.52631578947368" y="527.8157894736843"/>
      <point x="84.44736842105263" y="449.63157894736844" type="curve"/>
      <point x="141.0263157894737" y="225.0" type="line"/>
      <point x="157.94736842105263" y="156.81578947368422"/>
      <point x="175.60526315789474" y="71.81578947368422"/>
    </contour>
  </outline>
</glyph>
<glyph name="X" format="2">
  <advance width="739.7631578947369"/>
  <unicode hex="0058"/>
  <outline>
    <contour>
      <point x="7.7368421052631575" y="0.0" type="curve"/>
      <point x="269.92105263157896" y="0.0" type="line"/>
      <point x="279.39473684210526" y="48.78947368421053"/>
      <point x="293.2894736842105" y="92.28947368421052"/>
      <point x="309.99999999999994" y="131.26315789473685" type="curve"/>
      <point x="352.07894736842104" y="230.57894736842104" type="line"/>
      <point x="366.2368421052631" y="230.57894736842104" type="line"/>
      <point x="411.2368421052631" y="131.44736842105263" type="line"/>
      <point x="428.94736842105266" y="93.02631578947368"/>
      <point x="448.0263157894737" y="48.78947368421053"/>
      <point x="458.86842105263156" y="0.0" type="curve"/>
      <point x="734.4736842105262" y="0.0" type="line"/>
      <point x="677.7368421052632" y="70.92105263157895"/>
      <point x="634.8947368421053" y="139.55263157894737"/>
      <point x="590.1315789473684" y="219.81578947368422" type="curve"/>
      <point x="502.86842105263156" y="376.44736842105266" type="line"/>
      <point x="502.86842105263156" y="324.36842105263156" type="line"/>
      <point x="588.578947368421" y="497.86842105263156" type="line"/>
      <point x="619.6052631578947" y="560.578947368421"/>
      <point x="659.6315789473684" y="636.7368421052631"/>
      <point x="718.5263157894738" y="713.0" type="curve"/>
      <point x="456.1578947368421" y="713.0" type="line"/>
      <point x="443.42105263157896" y="660.5"/>
      <point x="427.42105263157896" y="610.078947368421"/>
      <point x="409.7105263157895" y="567.6578947368421" type="curve"/>
      <point x="374.02631578947364" y="482.10526315789474" type="line"/>
      <point x="359.86842105263156" y="482.10526315789474" type="line"/>
      <point x="322.1842105263158" y="567.4736842105264" type="line"/>
      <point x="303.4736842105263" y="609.7105263157895"/>
      <point x="285.65789473684214" y="660.7631578947369"/>
      <point x="271.9210526315789" y="713.0" type="curve"/>
      <point x="5.473684210526317" y="713.0" type="line"/>
      <point x="65.47368421052632" y="634.6315789473684"/>
      <point x="102.86842105263158" y="564.5526315789474"/>
      <point x="139.44736842105263" y="495.2894736842105" type="curve"/>
      <point x="217.5263157894737" y="346.8421052631579" type="line"/>
      <point x="217.5263157894737" y="392.39473684210526" type="line"/>
      <point x="129.3421052631579" y="211.23684210526315" type="line"/>
      <point x="91.57894736842105" y="133.5263157894737"/>
      <point x="55.36842105263158" y="67.07894736842105"/>
    </contour>
  </outline>
</glyph>
<glyph name="bracketleft" format="2">
  <advance width="426.57894736842104"/>
  <unicode hex="005B"/>
  <outline>
    <contour>
      <point x="51.894736842105274" y="-126.6842105263158" type="curve"/>
      <point x="250.23684210526315" y="-126.6842105263158" type="line"/>
      <point x="250.23684210526315" y="-93.3157894736842" type="line"/>
      <point x="239.07894736842104" y="-18.026315789473685"/>
      <point x="234.18421052631578" y="47.078947368421055"/>
      <point x="234.18421052631578" y="137.3421052631579" type="curve"/>
      <point x="234.18421052631578" y="506.7631578947368" type="line"/>
      <point x="234.18421052631578" y="600.2894736842105"/>
      <point x="239.07894736842104" y="667.8421052631579"/>
      <point x="250.23684210526315" y="745.578947368421" type="curve"/>
      <point x="250.23684210526315" y="778.7631578947369" type="line"/>
      <point x="51.894736842105274" y="778.7631578947369" type="line"/>
      <point x="59.60526315789475" y="701.0263157894736"/>
      <point x="65.31578947368422" y="633.4736842105264"/>
      <point x="65.31578947368422" y="539.9473684210526" type="curve"/>
      <point x="65.31578947368422" y="103.97368421052632" type="line"/>
      <point x="65.31578947368422" y="13.710526315789473"/>
      <point x="59.60526315789475" y="-51.39473684210526"/>
    </contour>
    <contour>
      <point x="211.86842105263156" y="-126.6842105263158" type="line"/>
      <point x="400.07894736842104" y="-126.6842105263158" type="line"/>
      <point x="400.07894736842104" y="30.763157894736842" type="line"/>
      <point x="356.7894736842105" y="22.421052631578945"/>
      <point x="309.6842105263158" y="19.973684210526315"/>
      <point x="257.2105263157894" y="19.973684210526315" type="curve"/>
      <point x="211.86842105263156" y="19.973684210526315" type="line"/>
    </contour>
    <contour>
      <point x="198.81578947368422" y="632.1052631578948" type="line"/>
      <point x="246.8684210526316" y="632.1052631578948" type="line"/>
      <point x="310.34210526315786" y="632.1052631578948"/>
      <point x="355.07894736842104" y="627.2105263157895"/>
      <point x="396.1842105263158" y="621.3157894736843" type="curve"/>
      <point x="396.1842105263158" y="778.7631578947369" type="line"/>
      <point x="198.81578947368422" y="778.7631578947369" type="line"/>
    </contour>
  </outline>
</glyph>
<glyph name="backslash" format="2">
  <advance width="476.3421052631579"/>
  <unicode hex="005C"/>
  <outline>
    <contour>
      <point x="266.7368421052632" y="0.0" type="curve"/>
      <point x="472.60526315789474" y="0.0" type="line"/>
      <point x="433.7105263157895" y="74.0"/>
      <point x="408.6052631578947" y="137.0"/>
      <point x="374.7631578947368" y="228.0" type="curve"/>
      <point x="282.9736842105263" y="476.0" type="line"/>
      <point x="248.1315789473684" y="570.1842105263158"/>
      <point x="225.65789473684208" y="636.0"/>
      <point x="208.78947368421052" y="713.0" type="curve"/>
      <point x="3.7368421052631597" y="713.0" type="line"/>
      <point x="44.0" y="636.0"/>
      <point x="69.10526315789474" y="571.0"/>
      <point x="104.94736842105263" y="474.0" type="curve"/>
      <point x="195.73684210526315" y="228.0" type="line"/>
      <point x="229.57894736842107" y="137.0"/>
      <point x="251.05263157894737" y="74.0"/>
    </contour>
  </outline>
</glyph>
<glyph name="asciicircum" format="2">
  <advance width="645.4736842105264"/>
  <unicode hex="005E"/>
  <outline>
    <contour>
      <point x="444.2105263157895" y="349.13157894736844" type="curve"/>
      <point x="604.3947368421052" y="350.9473684210526" type="line"/>
      <point x="546.8157894736842" y="463.2631578947368"/>
      <point x="491.0526315789474" y="576.578947368421"/>
      <point x="448.2631578947368" y="688.8947368421053" type="curve"/>
      <point x="197.21052631578945" y="688.8947368421053" type="line"/>
      <point x="154.42105263157896" y="576.578947368421"/>
      <point x="98.65789473684211" y="465.2631578947368"/>
      <point x="41.07894736842105" y="352.9473684210526" type="curve"/>
      <point x="202.07894736842107" y="352.9473684210526" type="line"/>
      <point x="243.23684210526315" y="412.0263157894737"/>
      <point x="279.7631578947368" y="472.10526315789474"/>
      <point x="315.6578947368421" y="531.1842105263158" type="curve"/>
      <point x="329.8157894736842" y="531.1842105263158" type="line"/>
      <point x="365.7105263157895" y="470.2894736842105"/>
      <point x="403.0526315789474" y="410.0263157894737"/>
    </contour>
  </outline>
</glyph>
<glyph name="a" format="2">
  <advance width="533.0"/>
  <unicode hex="0061"/>
  <anchor x="264.66019417475724" y="0.0" name="bottom"/>
  <anchor x="484.80582524271847" y="0.0" name="ogonek"/>
  <anchor x="264.66019417475724" y="500.6407766990291" name="top"/>
  <outline>
    <contour>
      <point x="161.9514563106796" y="-12.980582524271846" type="curve" smooth="yes"/>
      <point x="222.95145631067962" y="-12.980582524271846"/>
      <point x="278.38834951456306" y="31.320388349514566"/>
      <point x="306.747572815534" y="68.92233009708738" type="curve"/>
      <point x="319.3883495145632" y="68.92233009708738" type="line"/>
      <point x="336.40776699029124" y="0.0" type="line"/>
      <point x="515.4854368932039" y="0.0" type="line"/>
      <point x="490.18446601941747" y="65.94174757281554"/>
      <point x="483.4854368932039" y="126.20388349514563"/>
      <point x="483.4854368932039" y="180.14563106796115" type="curve"/>
      <point x="483.4854368932039" y="211.6601941747573" type="line" smooth="yes"/>
      <point x="483.4854368932039" y="246.37864077669903"/>
      <point x="487.1456310679612" y="299.3592233009708"/>
      <point x="487.1456310679612" y="333.3398058252427" type="curve" smooth="yes"/>
      <point x="487.1456310679612" y="461.9611650485437"/>
      <point x="407.5436893203884" y="515.2815533980582"/>
      <point x="277.94174757281553" y="515.2815533980582" type="curve" smooth="yes"/>
      <point x="189.75728155339806" y="515.2815533980582"/>
      <point x="97.4757281553398" y="491.3009708737864"/>
      <point x="47.83495145631068" y="478.96116504854365" type="curve"/>
      <point x="54.815533980582536" y="315.4854368932039" type="line"/>
      <point x="115.55339805825243" y="341.8252427184467"/>
      <point x="201.81553398058253" y="363.80582524271847"/>
      <point x="225.17475728155338" y="363.80582524271847" type="curve" smooth="yes"/>
      <point x="283.4951456310679" y="363.80582524271847"/>
      <point x="317.02912621359224" y="347.4271844660194"/>
      <point x="315.34951456310677" y="311.73786407766994" type="curve"/>
      <point x="181.9126213592233" y="288.75728155339806" type="line" smooth="yes"/>
      <point x="120.39805825242718" y="278.0776699029126"/>
      <point x="25.174757281553397" y="245.6990291262136"/>
      <point x="25.174757281553397" y="130.07766990291262" type="curve" smooth="yes"/>
      <point x="25.174757281553397" y="48.601941747572816"/>
      <point x="73.99029126213593" y="-12.980582524271846"/>
    </contour>
    <contour>
      <point x="244.2038834951456" y="128.87378640776697" type="curve" smooth="yes"/>
      <point x="222.72815533980582" y="128.87378640776697"/>
      <point x="201.2912621359223" y="140.9126213592233"/>
      <point x="201.2912621359223" y="171.3883495145631" type="curve" smooth="yes"/>
      <point x="201.2912621359223" y="201.16504854368932"/>
      <point x="221.00970873786406" y="216.94174757281553"/>
      <point x="246.20388349514562" y="223.62135922330097" type="curve" smooth="yes"/>
      <point x="288.252427184466" y="234.32038834951456"/>
      <point x="300.33009708737865" y="239.98058252427185"/>
      <point x="310.36893203883494" y="248.98058252427185" type="curve"/>
      <point x="310.36893203883494" y="175.26213592233012" type="line"/>
      <point x="293.25242718446606" y="147.6893203883495"/>
      <point x="264.66019417475724" y="128.87378640776697"/>
    </contour>
  </outline>
</glyph>
<glyph name="b" format="2">
  <advance width="596.5263157894738"/>
  <unicode hex="0062"/>
  <outline>
    <contour>
      <point x="374.7105263157895" y="-14.710526315789473" type="curve" smooth="yes"/>
      <point x="508.4736842105263" y="-14.710526315789473"/>
      <point x="568.7894736842105" y="111.63157894736842"/>
      <point x="568.7894736842105" y="250.6315789473684" type="curve" smooth="yes"/>
      <point x="568.7894736842105" y="399.2631578947368"/>
      <point x="503.55263157894734" y="515.421052631579"/>
      <point x="373.5263157894737" y="515.421052631579" type="curve" smooth="yes"/>
      <point x="327.0" y="515.421052631579"/>
      <point x="284.8684210526316" y="491.4736842105263"/>
      <point x="252.57894736842104" y="451.7631578947369" type="curve"/>
      <point x="238.42105263157896" y="451.7631578947369" type="line"/>
      <point x="238.42105263157896" y="493.1842105263158" type="line"/>
      <point x="238.42105263157896" y="587.1578947368421"/>
      <point x="247.3947368421053" y="671.8684210526316"/>
      <point x="258.5526315789474" y="749.7894736842105" type="curve"/>
      <point x="22.131578947368425" y="731.4473684210526" type="line"/>
      <point x="44.078947368421055" y="650.4736842105264"/>
      <point x="51.78947368421053" y="573.2894736842105"/>
      <point x="51.78947368421053" y="493.1842105263158" type="curve"/>
      <point x="51.78947368421053" y="214.47368421052633" type="line"/>
      <point x="51.78947368421053" y="131.0263157894737"/>
      <point x="46.078947368421055" y="70.10526315789474"/>
      <point x="36.736842105263165" y="0.0" type="curve"/>
      <point x="196.89473684210526" y="0.0" type="line"/>
      <point x="218.65789473684208" y="59.57894736842105" type="line"/>
      <point x="230.36842105263156" y="59.57894736842105" type="line"/>
      <point x="273.8421052631579" y="8.394736842105264"/>
      <point x="326.5" y="-14.710526315789473"/>
    </contour>
    <contour>
      <point x="300.4736842105263" y="142.10526315789474" type="curve"/>
      <point x="273.0" y="144.55263157894737"/>
      <point x="252.9736842105263" y="159.1578947368421"/>
      <point x="238.42105263157896" y="183.55263157894737" type="curve"/>
      <point x="238.42105263157896" y="325.2631578947368" type="line"/>
      <point x="254.78947368421055" y="344.2894736842105"/>
      <point x="277.5526315789474" y="355.1578947368421"/>
      <point x="300.10526315789474" y="356.1578947368421" type="curve"/>
      <point x="351.9736842105263" y="353.1578947368421"/>
      <point x="377.89473684210526" y="306.7368421052632"/>
      <point x="377.89473684210526" y="249.0" type="curve" smooth="yes"/>
      <point x="377.89473684210526" y="194.6315789473684"/>
      <point x="352.07894736842104" y="145.10526315789474"/>
    </contour>
  </outline>
</glyph>
<glyph name="d" format="2">
  <advance width="589.9473684210526"/>
  <unicode hex="0064"/>
  <anchor x="319.05263157894734" y="0.0" name="bottom"/>
  <anchor x="294.7105263157895" y="250.26315789473685" name="center"/>
  <anchor x="319.05263157894734" y="731.1578947368421" name="top"/>
  <anchor x="571.1052631578947" y="500.5263157894737" name="topright"/>
  <outline>
    <contour>
      <point x="221.81578947368422" y="-14.710526315789473" type="curve" smooth="yes"/>
      <point x="270.0263157894737" y="-14.710526315789473"/>
      <point x="320.2368421052632" y="12.473684210526315"/>
      <point x="363.7105263157895" y="64.47368421052632" type="curve"/>
      <point x="375.42105263157896" y="64.47368421052632" type="line"/>
      <point x="388.02631578947364" y="0.0" type="line"/>
      <point x="559.9736842105262" y="0.0" type="line"/>
      <point x="549.6315789473684" y="70.10526315789474"/>
      <point x="544.7368421052631" y="131.0263157894737"/>
      <point x="544.7368421052631" y="214.47368421052633" type="curve"/>
      <point x="544.7368421052631" y="493.1842105263158" type="line"/>
      <point x="544.7368421052631" y="587.1578947368421"/>
      <point x="553.7105263157895" y="671.8684210526316"/>
      <point x="564.8684210526316" y="749.7894736842105" type="curve"/>
      <point x="328.44736842105266" y="731.4473684210526" type="line"/>
      <point x="350.39473684210526" y="650.4736842105264"/>
      <point x="358.10526315789474" y="573.2894736842105"/>
      <point x="358.10526315789474" y="493.1842105263158" type="curve"/>
      <point x="358.10526315789474" y="451.7631578947369" type="line"/>
      <point x="343.9473684210526" y="451.7631578947369" type="line"/>
      <point x="311.65789473684214" y="491.4736842105263"/>
      <point x="269.5263157894737" y="515.421052631579"/>
      <point x="223.0" y="515.421052631579" type="curve" smooth="yes"/>
      <point x="92.97368421052632" y="515.421052631579"/>
      <point x="27.736842105263158" y="399.2631578947368"/>
      <point x="27.736842105263158" y="250.6315789473684" type="curve" smooth="yes"/>
      <point x="27.736842105263158" y="111.63157894736842"/>
      <point x="88.05263157894737" y="-14.710526315789473"/>
    </contour>
    <contour>
      <point x="296.05263157894734" y="142.10526315789474" type="curve"/>
      <point x="244.44736842105263" y="145.10526315789474"/>
      <point x="218.63157894736844" y="194.6315789473684"/>
      <point x="218.63157894736844" y="249.0" type="curve" smooth="yes"/>
      <point x="218.63157894736844" y="306.7368421052632"/>
      <point x="244.55263157894737" y="353.1578947368421"/>
      <point x="296.42105263157896" y="356.1578947368421" type="curve"/>
      <point x="318.9736842105263" y="355.1578947368421"/>
      <point x="341.7368421052632" y="344.2894736842105"/>
      <point x="358.10526315789474" y="325.2631578947368" type="curve"/>
      <point x="358.10526315789474" y="183.55263157894737" type="line"/>
      <point x="343.55263157894734" y="159.1578947368421"/>
      <point x="323.5263157894737" y="144.55263157894737"/>
    </contour>
  </outline>
</glyph>
<glyph name="g" format="2">
  <advance width="557.242718446602"/>
  <unicode hex="0067"/>
  <anchor x="278.94174757281553" y="-192.0" name="bottom"/>
  <anchor x="278.94174757281553" y="500.6407766990291" name="top"/>
  <outline>
    <contour>
      <point x="236.37864077669903" y="-205.32038834951456" type="curve" smooth="yes"/>
      <point x="374.242718446602" y="-205.32038834951456"/>
      <point x="533.4271844660194" y="-155.62135922330097"/>
      <point x="533.4271844660194" y="-6.83495145631068" type="curve" smooth="yes"/>
      <point x="533.4271844660194" y="102.33009708737863"/>
      <point x="449.242718446602" y="129.3495145631068"/>
      <point x="328.46601941747576" y="129.3495145631068" type="curve" smooth="yes"/>
      <point x="309.4466019417476" y="129.3495145631068" type="line" smooth="yes"/>
      <point x="261.6116504854369" y="129.3495145631068"/>
      <point x="240.5533980582524" y="133.36893203883494"/>
      <point x="240.5533980582524" y="150.74757281553397" type="curve" smooth="yes"/>
      <point x="240.5533980582524" y="169.4271844660194"/>
      <point x="262.63106796116506" y="175.44660194174756"/>
      <point x="310.7669902912622" y="185.48543689320388" type="curve" smooth="yes"/>
      <point x="396.18446601941747" y="203.18446601941747"/>
      <point x="472.1067961165049" y="247.24271844660194"/>
      <point x="472.1067961165049" y="339.66019417475724" type="curve" smooth="yes"/>
      <point x="472.1067961165049" y="390.71844660194176"/>
      <point x="454.7281553398058" y="431.09708737864077"/>
      <point x="420.5728155339806" y="459.09708737864077" type="curve"/>
      <point x="372.7281553398058" y="391.6699029126213" type="line"/>
      <point x="428.4466019417476" y="389.009708737864"/>
      <point x="479.84466019417476" y="380.3689320388349"/>
      <point x="539.8834951456312" y="358.44660194174753" type="curve"/>
      <point x="539.8834951456312" y="503.62135922330094" type="line"/>
      <point x="412.0485436893204" y="503.62135922330094" type="line" smooth="yes"/>
      <point x="337.504854368932" y="503.62135922330094"/>
      <point x="310.8640776699029" y="515.2815533980582"/>
      <point x="250.28155339805824" y="515.2815533980582" type="curve" smooth="yes"/>
      <point x="91.21359223300972" y="515.2815533980582"/>
      <point x="25.815533980582526" y="438.3592233009708"/>
      <point x="25.815533980582526" y="346.6601941747573" type="curve" smooth="yes"/>
      <point x="25.815533980582526" y="259.94174757281553"/>
      <point x="82.9514563106796" y="214.94174757281553"/>
      <point x="135.4368932038835" y="191.98058252427182" type="curve"/>
      <point x="135.4368932038835" y="180.67961165048544" type="line"/>
      <point x="90.1359223300971" y="163.6601941747573"/>
      <point x="70.81553398058253" y="130.0388349514563"/>
      <point x="70.81553398058253" y="97.03883495145631" type="curve" smooth="yes"/>
      <point x="70.81553398058253" y="53.33980582524272"/>
      <point x="104.49514563106797" y="27.058252427184463"/>
      <point x="131.71844660194174" y="21.398058252427184" type="curve"/>
      <point x="131.71844660194174" y="9.757281553398059" type="line"/>
      <point x="96.1359223300971" y="-0.2427184466019412"/>
      <point x="36.43689320388349" y="-33.922330097087375"/>
      <point x="36.43689320388349" y="-91.3009708737864" type="curve" smooth="yes"/>
      <point x="36.43689320388349" y="-151.94174757281553"/>
      <point x="84.07766990291262" y="-205.32038834951456"/>
    </contour>
    <contour>
      <point x="271.22330097087377" y="-87.25242718446603" type="curve"/>
      <point x="212.70873786407765" y="-85.59223300970875"/>
      <point x="188.33009708737862" y="-67.19417475728156"/>
      <point x="188.33009708737862" y="-48.11650485436893" type="curve" smooth="yes"/>
      <point x="188.33009708737862" y="-26.66019417475728"/>
      <point x="231.82524271844656" y="-12.601941747572814"/>
      <point x="256.9611650485437" y="-8.5631067961165" type="curve"/>
      <point x="269.0582524271845" y="-8.5631067961165" type="line" smooth="yes"/>
      <point x="333.68932038834953" y="-8.5631067961165"/>
      <point x="359.70873786407776" y="-21.92233009708738"/>
      <point x="359.70873786407776" y="-41.359223300970875" type="curve" smooth="yes"/>
      <point x="359.70873786407776" y="-61.796116504854375"/>
      <point x="318.9126213592233" y="-82.59223300970875"/>
    </contour>
    <contour>
      <point x="245.60194174757282" y="267.4660194174757" type="curve"/>
      <point x="221.48543689320388" y="276.50485436893206"/>
      <point x="195.5533980582524" y="294.92233009708735"/>
      <point x="195.5533980582524" y="321.4757281553398" type="curve" smooth="yes"/>
      <point x="195.5533980582524" y="349.02912621359224"/>
      <point x="219.42718446601944" y="366.1067961165049"/>
      <point x="248.28155339805826" y="369.1067961165049" type="curve"/>
      <point x="285.3980582524271" y="366.7669902912622"/>
      <point x="316.2330097087379" y="351.02912621359224"/>
      <point x="316.2330097087379" y="320.09708737864077" type="curve" smooth="yes"/>
      <point x="316.2330097087379" y="287.86407766990294"/>
      <point x="272.7378640776699" y="271.8252427184466"/>
    </contour>
  </outline>
</glyph>
<glyph name="k" format="2">
  <advance width="598.3947368421053"/>
  <unicode hex="006B"/>
  <anchor x="297.36842105263156" y="0.0" name="bottom"/>
  <anchor x="297.36842105263156" y="731.1578947368421" name="top"/>
  <outline>
    <contour>
      <point x="352.1578947368421" y="0.0" type="curve"/>
      <point x="603.7631578947369" y="0.0" type="line"/>
      <point x="552.1578947368421" y="61.89473684210526"/>
      <point x="505.8157894736842" y="124.42105263157895"/>
      <point x="463.7368421052632" y="186.31578947368422" type="curve"/>
      <point x="381.4736842105263" y="309.57894736842104" type="line"/>
      <point x="390.44736842105266" y="228.57894736842104" type="line"/>
      <point x="453.1842105263158" y="318.10526315789474" type="line"/>
      <point x="496.5263157894737" y="379.1842105263158"/>
      <point x="540.4999999999999" y="439.2631578947369"/>
      <point x="591.9210526315788" y="500.5263157894737" type="curve"/>
      <point x="354.55263157894734" y="500.5263157894737" type="line"/>
      <point x="341.3421052631579" y="458.86842105263156"/>
      <point x="322.5" y="417.8421052631579"/>
      <point x="299.7631578947368" y="376.1842105263158" type="curve"/>
      <point x="262.2368421052632" y="308.42105263157896" type="line"/>
      <point x="224.07894736842104" y="308.42105263157896" type="line"/>
      <point x="224.07894736842104" y="187.42105263157896" type="line"/>
      <point x="260.94736842105266" y="187.42105263157896" type="line"/>
      <point x="301.34210526315786" y="115.1842105263158" type="line"/>
      <point x="322.8157894736842" y="76.78947368421052"/>
      <point x="340.8421052631579" y="38.39473684210526"/>
    </contour>
    <contour>
      <point x="36.736842105263165" y="0.0" type="curve"/>
      <point x="253.6578947368421" y="0.0" type="line"/>
      <point x="243.31578947368422" y="60.31578947368421"/>
      <point x="238.42105263157896" y="113.07894736842105"/>
      <point x="238.42105263157896" y="176.13157894736844" type="curve"/>
      <point x="238.42105263157896" y="493.1842105263158" type="line"/>
      <point x="238.42105263157896" y="587.1578947368421"/>
      <point x="247.3947368421053" y="671.8684210526316"/>
      <point x="260.1842105263158" y="749.7894736842105" type="curve"/>
      <point x="22.131578947368425" y="731.4473684210526" type="line"/>
      <point x="44.078947368421055" y="650.4736842105264"/>
      <point x="51.78947368421053" y="573.2894736842105"/>
      <point x="51.78947368421053" y="493.1842105263158" type="curve"/>
      <point x="51.78947368421053" y="214.47368421052633" type="line"/>
      <point x="51.78947368421053" y="131.0263157894737"/>
      <point x="46.078947368421055" y="70.10526315789474"/>
    </contour>
  </outline>
</glyph>
<glyph name="l" format="2">
  <advance width="290.2105263157895"/>
  <unicode hex="006C"/>
  <anchor x="145.10526315789474" y="0.0" name="bottom"/>
  <anchor x="149.18421052631578" y="409.0" name="center"/>
  <anchor x="145.10526315789474" y="731.1578947368421" name="top"/>
  <anchor x="260.89473684210526" y="500.5263157894737" name="topright"/>
  <outline>
    <contour>
      <point x="36.736842105263165" y="0.0" type="curve"/>
      <point x="253.6578947368421" y="0.0" type="line"/>
      <point x="243.31578947368422" y="70.10526315789474"/>
      <point x="238.42105263157896" y="131.0263157894737"/>
      <point x="238.42105263157896" y="214.47368421052633" type="curve"/>
      <point x="238.42105263157896" y="493.1842105263158" type="line"/>
      <point x="238.42105263157896" y="587.1578947368421"/>
      <point x="247.3947368421053" y="671.8684210526316"/>
      <point x="258.5526315789474" y="749.7894736842105" type="curve"/>
      <point x="22.131578947368425" y="731.4473684210526" type="line"/>
      <point x="44.078947368421055" y="650.4736842105264"/>
      <point x="51.78947368421053" y="573.2894736842105"/>
      <point x="51.78947368421053" y="493.1842105263158" type="curve"/>
      <point x="51.78947368421053" y="214.47368421052633" type="line"/>
      <point x="51.78947368421053" y="131.0263157894737"/>
      <point x="46.078947368421055" y="70.10526315789474"/>
    </contour>
  </outline>
</glyph>
<glyph name="m" format="2">
  <advance width="888.4210526315788"/>
  <unicode hex="006D"/>
  <anchor x="448.55263157894734" y="0.0" name="bottom"/>
  <anchor x="448.55263157894734" y="500.5263157894737" name="top"/>
  <outline>
    <contour>
      <point x="41.10526315789474" y="0.0" type="curve"/>
      <point x="258.0263157894737" y="0.0" type="line"/>
      <point x="247.6842105263158" y="70.10526315789474"/>
      <point x="242.78947368421055" y="131.0263157894737"/>
      <point x="242.78947368421055" y="203.8684210526316" type="curve"/>
      <point x="242.78947368421055" y="301.1315789473684" type="line"/>
      <point x="260.9736842105263" y="324.1842105263158"/>
      <point x="293.1842105263158" y="346.36842105263156"/>
      <point x="310.2105263157895" y="346.36842105263156" type="curve" smooth="yes"/>
      <point x="343.55263157894734" y="346.36842105263156"/>
      <point x="355.2368421052631" y="316.7631578947368"/>
      <point x="355.2368421052631" y="254.21052631578948" type="curve"/>
      <point x="355.2368421052631" y="203.8684210526316" type="line"/>
      <point x="355.2368421052631" y="131.0263157894737"/>
      <point x="350.34210526315786" y="70.10526315789474"/>
      <point x="342.6315789473684" y="0.0" type="curve"/>
      <point x="557.921052631579" y="0.0" type="line"/>
      <point x="545.1315789473684" y="70.10526315789474"/>
      <point x="541.8684210526317" y="131.0263157894737"/>
      <point x="541.8684210526317" y="214.47368421052633" type="curve"/>
      <point x="541.8684210526317" y="251.07894736842104"/>
      <point x="546.1315789473684" y="296.0526315789474"/>
      <point x="546.1315789473684" y="338.2368421052631" type="curve" smooth="yes"/>
      <point x="546.1315789473684" y="362.9473684210526"/>
      <point x="543.5" y="385.84210526315786"/>
      <point x="538.8684210526316" y="405.10526315789474" type="curve"/>
      <point x="524.0" y="405.84210526315786" type="line"/>
      <point x="506.2894736842105" y="479.94736842105266"/>
      <point x="459.84210526315786" y="515.421052631579"/>
      <point x="392.9736842105263" y="515.421052631579" type="curve" smooth="yes"/>
      <point x="336.92105263157896" y="515.421052631579"/>
      <point x="276.6315789473684" y="477.07894736842104"/>
      <point x="234.92105263157896" y="425.2894736842105" type="curve"/>
      <point x="219.94736842105263" y="425.2894736842105" type="line"/>
      <point x="210.13157894736844" y="509.2368421052632" type="line"/>
      <point x="26.763157894736846" y="500.5263157894737" type="line"/>
      <point x="49.26315789473685" y="419.1842105263158"/>
      <point x="56.15789473684211" y="342.0"/>
      <point x="56.15789473684211" y="264.4736842105263" type="curve"/>
      <point x="56.15789473684211" y="214.47368421052633" type="line"/>
      <point x="56.15789473684211" y="131.0263157894737"/>
      <point x="50.44736842105264" y="70.10526315789474"/>
    </contour>
    <contour>
      <point x="640.7894736842105" y="0.0" type="curve"/>
      <point x="856.078947368421" y="0.0" type="line"/>
      <point x="843.2894736842105" y="70.10526315789474"/>
      <point x="840.0263157894738" y="131.0263157894737"/>
      <point x="840.0263157894738" y="214.47368421052633" type="curve"/>
      <point x="840.0263157894738" y="251.07894736842104"/>
      <point x="844.2894736842105" y="294.42105263157896"/>
      <point x="844.2894736842105" y="338.2368421052631" type="curve" smooth="yes"/>
      <point x="844.2894736842105" y="457.13157894736844"/>
      <point x="786.7894736842105" y="515.421052631579"/>
      <point x="691.1315789473684" y="515.421052631579" type="curve" smooth="yes"/>
      <point x="635.078947368421" y="515.421052631579"/>
      <point x="572.7105263157895" y="477.4473684210526"/>
      <point x="530.0789473684212" y="424.7368421052632" type="curve"/>
      <point x="512.6578947368421" y="424.7368421052632" type="line"/>
      <point x="540.1315789473684" y="301.1315789473684" type="line"/>
      <point x="558.3157894736842" y="324.1842105263158"/>
      <point x="591.3421052631578" y="346.36842105263156"/>
      <point x="608.3684210526316" y="346.36842105263156" type="curve" smooth="yes"/>
      <point x="641.5263157894736" y="346.36842105263156"/>
      <point x="653.3947368421053" y="316.7631578947368"/>
      <point x="653.3947368421053" y="254.21052631578948" type="curve"/>
      <point x="653.3947368421053" y="203.8684210526316" type="line"/>
      <point x="653.3947368421053" y="131.0263157894737"/>
      <point x="648.5" y="70.10526315789474"/>
    </contour>
  </outline>
</glyph>
<glyph name="n" format="2">
  <advance width="596.8421052631578"/>
  <unicode hex="006E"/>
  <anchor x="298.07894736842104" y="0.0" name="bottom"/>
  <anchor x="298.07894736842104" y="500.5263157894737" name="top"/>
  <outline>
    <contour>
      <point x="41.10526315789474" y="0.0" type="curve"/>
      <point x="258.0263157894737" y="0.0" type="line"/>
      <point x="247.6842105263158" y="70.10526315789474"/>
      <point x="242.78947368421055" y="131.0263157894737"/>
      <point x="242.78947368421055" y="203.8684210526316" type="curve"/>
      <point x="242.78947368421055" y="301.1315789473684" type="line"/>
      <point x="260.9736842105263" y="324.1842105263158"/>
      <point x="295.2105263157895" y="346.36842105263156"/>
      <point x="313.05263157894734" y="346.36842105263156" type="curve" smooth="yes"/>
      <point x="349.7631578947368" y="346.36842105263156"/>
      <point x="361.8157894736842" y="316.7631578947368"/>
      <point x="361.8157894736842" y="254.21052631578948" type="curve"/>
      <point x="361.8157894736842" y="203.8684210526316" type="line"/>
      <point x="361.8157894736842" y="131.0263157894737"/>
      <point x="356.92105263157896" y="70.10526315789474"/>
      <point x="349.2105263157895" y="0.0" type="curve"/>
      <point x="564.5" y="0.0" type="line"/>
      <point x="551.7105263157895" y="70.10526315789474"/>
      <point x="548.4473684210527" y="131.0263157894737"/>
      <point x="548.4473684210527" y="214.47368421052633" type="curve"/>
      <point x="548.4473684210527" y="251.07894736842104"/>
      <point x="552.7105263157895" y="294.42105263157896"/>
      <point x="552.7105263157895" y="338.2368421052631" type="curve" smooth="yes"/>
      <point x="552.7105263157895" y="457.13157894736844"/>
      <point x="495.2105263157895" y="515.421052631579"/>
      <point x="396.4473684210526" y="515.421052631579" type="curve" smooth="yes"/>
      <point x="338.7631578947368" y="515.421052631579"/>
      <point x="276.63157894736844" y="477.07894736842104"/>
      <point x="234.92105263157896" y="425.2894736842105" type="curve"/>
      <point x="219.94736842105263" y="425.2894736842105" type="line"/>
      <point x="210.13157894736844" y="509.2368421052632" type="line"/>
      <point x="26.763157894736846" y="500.5263157894737" type="line"/>
      <point x="49.26315789473685" y="419.1842105263158"/>
      <point x="56.15789473684211" y="342.0"/>
      <point x="56.15789473684211" y="264.4736842105263" type="curve"/>
      <point x="56.15789473684211" y="214.47368421052633" type="line"/>
      <point x="56.15789473684211" y="131.0263157894737"/>
      <point x="50.44736842105264" y="70.10526315789474"/>
    </contour>
  </outline>
</glyph>
<glyph name="o" format="2">
  <advance width="597.8157894736842"/>
  <unicode hex="006F"/>
  <anchor x="298.8157894736842" y="0.0" name="bottom"/>
  <anchor x="298.8157894736842" y="250.26315789473685" name="center"/>
  <anchor x="397.2631578947368" y="0.0" name="ogonek"/>
  <anchor x="298.8157894736842" y="500.5263157894737" name="top"/>
  <anchor x="521.6842105263158" y="500.5263157894737" name="topright"/>
  <outline>
    <contour>
      <point x="301.63157894736844" y="-14.710526315789473" type="curve" smooth="yes"/>
      <point x="476.7105263157895" y="-14.710526315789473"/>
      <point x="571.7105263157895" y="98.65789473684211"/>
      <point x="571.7105263157895" y="251.0" type="curve" smooth="yes"/>
      <point x="571.7105263157895" y="399.07894736842104"/>
      <point x="483.9736842105263" y="515.421052631579"/>
      <point x="297.55263157894734" y="515.421052631579" type="curve" smooth="yes"/>
      <point x="115.94736842105263" y="515.421052631579"/>
      <point x="26.10526315789474" y="400.63157894736844"/>
      <point x="26.10526315789474" y="251.0" type="curve" smooth="yes"/>
      <point x="26.10526315789474" y="111.36842105263158"/>
      <point x="109.21052631578947" y="-14.710526315789473"/>
    </contour>
    <contour>
      <point x="300.8157894736842" y="135.57894736842104" type="curve"/>
      <point x="246.92105263157893" y="139.39473684210526"/>
      <point x="216.18421052631578" y="188.6578947368421"/>
      <point x="216.18421052631578" y="251.0" type="curve" smooth="yes"/>
      <point x="216.18421052631578" y="316.07894736842104"/>
      <point x="246.02631578947367" y="360.5"/>
      <point x="300.8157894736842" y="365.13157894736844" type="curve"/>
      <point x="353.9473684210526" y="358.0526315789474"/>
      <point x="381.63157894736844" y="317.55263157894734"/>
      <point x="381.63157894736844" y="251.0" type="curve" smooth="yes"/>
      <point x="381.63157894736844" y="186.21052631578948"/>
      <point x="353.7105263157895" y="139.39473684210526"/>
    </contour>
  </outline>
</glyph>
<glyph name="p" format="2">
  <advance width="600.8947368421053"/>
  <unicode hex="0070"/>
  <outline>
    <contour>
      <point x="40.92105263157895" y="-197.26315789473685" type="curve"/>
      <point x="262.10526315789474" y="-192.0" type="line"/>
      <point x="248.5" y="-121.89473684210526"/>
      <point x="242.78947368421055" y="-60.973684210526315"/>
      <point x="242.78947368421055" y="11.868421052631579" type="curve"/>
      <point x="242.78947368421055" y="49.78947368421053" type="line"/>
      <point x="254.5" y="49.78947368421053" type="line"/>
      <point x="292.07894736842104" y="5.131578947368422"/>
      <point x="337.39473684210526" y="-14.710526315789473"/>
      <point x="379.07894736842104" y="-14.710526315789473" type="curve" smooth="yes"/>
      <point x="512.8421052631579" y="-14.710526315789473"/>
      <point x="573.1578947368421" y="111.63157894736842"/>
      <point x="573.1578947368421" y="250.6315789473684" type="curve" smooth="yes"/>
      <point x="573.1578947368421" y="399.2631578947368"/>
      <point x="507.9210526315789" y="515.421052631579"/>
      <point x="377.89473684210526" y="515.421052631579" type="curve" smooth="yes"/>
      <point x="324.6578947368421" y="515.421052631579"/>
      <point x="276.63157894736844" y="487.2105263157895"/>
      <point x="239.26315789473682" y="438.34210526315786" type="curve"/>
      <point x="225.10526315789474" y="438.34210526315786" type="line"/>
      <point x="217.4736842105263" y="509.2368421052632" type="line"/>
      <point x="26.763157894736846" y="500.5263157894737" type="line"/>
      <point x="49.26315789473685" y="419.1842105263158"/>
      <point x="56.15789473684211" y="342.0"/>
      <point x="56.15789473684211" y="264.4736842105263" type="curve"/>
      <point x="56.15789473684211" y="22.473684210526315" type="line"/>
      <point x="56.15789473684211" y="-60.973684210526315"/>
      <point x="50.44736842105264" y="-127.15789473684211"/>
    </contour>
    <contour>
      <point x="304.84210526315786" y="142.10526315789474" type="curve"/>
      <point x="277.36842105263156" y="144.55263157894737"/>
      <point x="257.34210526315786" y="159.1578947368421"/>
      <point x="242.78947368421055" y="183.55263157894737" type="curve"/>
      <point x="242.78947368421055" y="325.2631578947368" type="line"/>
      <point x="259.15789473684214" y="344.2894736842105"/>
      <point x="281.92105263157896" y="355.1578947368421"/>
      <point x="304.4736842105263" y="356.1578947368421" type="curve"/>
      <point x="356.34210526315786" y="353.1578947368421"/>
      <point x="382.2631578947368" y="306.7368421052632"/>
      <point x="382.2631578947368" y="249.0" type="curve" smooth="yes"/>
      <point x="382.2631578947368" y="194.6315789473684"/>
      <point x="356.4473684210526" y="145.10526315789474"/>
    </contour>
  </outline>
</glyph>
<glyph name="q" format="2">
  <advance width="589.078947368421"/>
  <unicode hex="0071"/>
  <outline>
    <contour>
      <point x="342.86842105263156" y="-197.26315789473685" type="curve"/>
      <point x="559.9736842105262" y="-192.0" type="line"/>
      <point x="549.6315789473684" y="-121.89473684210526"/>
      <point x="544.7368421052631" y="-60.973684210526315"/>
      <point x="544.7368421052631" y="22.473684210526315" type="curve"/>
      <point x="544.7368421052631" y="264.4736842105263" type="line"/>
      <point x="544.7368421052631" y="344.6315789473684"/>
      <point x="551.6315789473684" y="425.2631578947368"/>
      <point x="565.9736842105262" y="509.2368421052632" type="curve"/>
      <point x="383.42105263157896" y="500.5263157894737" type="line"/>
      <point x="375.7894736842105" y="438.34210526315786" type="line"/>
      <point x="361.63157894736844" y="438.34210526315786" type="line"/>
      <point x="324.2631578947369" y="487.2105263157895"/>
      <point x="276.2368421052631" y="515.421052631579"/>
      <point x="223.0" y="515.421052631579" type="curve" smooth="yes"/>
      <point x="92.97368421052632" y="515.421052631579"/>
      <point x="27.736842105263158" y="399.2631578947368"/>
      <point x="27.736842105263158" y="250.6315789473684" type="curve" smooth="yes"/>
      <point x="27.736842105263158" y="111.63157894736842"/>
      <point x="88.05263157894737" y="-14.710526315789473"/>
      <point x="221.81578947368422" y="-14.710526315789473" type="curve" smooth="yes"/>
      <point x="263.49999999999994" y="-14.710526315789473"/>
      <point x="308.8157894736842" y="5.131578947368422"/>
      <point x="346.39473684210526" y="49.78947368421053" type="curve"/>
      <point x="358.10526315789474" y="49.78947368421053" type="line"/>
      <point x="358.10526315789474" y="11.868421052631579" type="line"/>
      <point x="358.10526315789474" y="-60.973684210526315"/>
      <point x="352.39473684210526" y="-127.15789473684211"/>
    </contour>
    <contour>
      <point x="296.05263157894734" y="142.10526315789474" type="curve"/>
      <point x="244.44736842105263" y="145.10526315789474"/>
      <point x="218.63157894736844" y="194.6315789473684"/>
      <point x="218.63157894736844" y="249.0" type="curve" smooth="yes"/>
      <point x="218.63157894736844" y="306.7368421052632"/>
      <point x="244.55263157894737" y="353.1578947368421"/>
      <point x="296.42105263157896" y="356.1578947368421" type="curve"/>
      <point x="318.9736842105263" y="355.1578947368421"/>
      <point x="341.7368421052632" y="344.2894736842105"/>
      <point x="358.10526315789474" y="325.2631578947368" type="curve"/>
      <point x="358.10526315789474" y="183.55263157894737" type="line"/>
      <point x="343.55263157894734" y="159.1578947368421"/>
      <point x="323.5263157894737" y="144.55263157894737"/>
    </contour>
  </outline>
</glyph>
<glyph name="r" format="2">
  <advance width="429.89473684210526"/>
  <unicode hex="0072"/>
  <anchor x="141.21052631578948" y="0.0" name="bottom"/>
  <anchor x="236.07894736842104" y="500.5263157894737" name="top"/>
  <outline>
    <contour>
      <point x="41.10526315789474" y="0.0" type="curve"/>
      <point x="258.0263157894737" y="0.0" type="line"/>
      <point x="247.6842105263158" y="70.10526315789474"/>
      <point x="242.78947368421055" y="131.0263157894737"/>
      <point x="242.78947368421055" y="203.8684210526316" type="curve"/>
      <point x="242.78947368421055" y="276.5789473684211" type="line"/>
      <point x="262.8157894736842" y="313.60526315789474"/>
      <point x="299.8157894736842" y="327.60526315789474"/>
      <point x="328.02631578947364" y="327.60526315789474" type="curve" smooth="yes"/>
      <point x="345.0263157894737" y="327.60526315789474"/>
      <point x="374.8157894736842" y="319.34210526315786"/>
      <point x="400.1578947368421" y="311.5263157894737" type="curve"/>
      <point x="416.2105263157894" y="505.7894736842105" type="line"/>
      <point x="399.2105263157894" y="514.0526315789473"/>
      <point x="377.9473684210526" y="515.421052631579"/>
      <point x="365.10526315789474" y="515.421052631579" type="curve" smooth="yes"/>
      <point x="322.10526315789474" y="515.421052631579"/>
      <point x="277.39473684210526" y="488.2631578947369"/>
      <point x="234.36842105263156" y="422.7105263157895" type="curve"/>
      <point x="219.57894736842104" y="422.7105263157895" type="line"/>
      <point x="210.13157894736844" y="509.2368421052632" type="line"/>
      <point x="26.763157894736846" y="500.5263157894737" type="line"/>
      <point x="49.26315789473685" y="419.1842105263158"/>
      <point x="56.15789473684211" y="342.0"/>
      <point x="56.15789473684211" y="264.4736842105263" type="curve"/>
      <point x="56.15789473684211" y="214.47368421052633" type="line"/>
      <point x="56.15789473684211" y="131.0263157894737"/>
      <point x="50.44736842105264" y="70.10526315789474"/>
    </contour>
  </outline>
</glyph>
<glyph name="t" format="2">
  <advance width="429.36842105263156"/>
  <unicode hex="0074"/>
  <anchor x="232.92105263157896" y="0.0" name="bottom"/>
  <anchor x="220.5" y="250.26315789473685" name="center"/>
  <anchor x="211.31578947368422" y="669.6842105263158" name="top"/>
  <anchor x="290.0526315789474" y="500.5263157894737" name="topright"/>
  <outline>
    <contour>
      <point x="275.44736842105266" y="-14.710526315789473" type="curve" smooth="yes"/>
      <point x="322.2368421052632" y="-14.710526315789473"/>
      <point x="379.36842105263156" y="-1.5263157894736836"/>
      <point x="407.7894736842105" y="7.657894736842106" type="curve"/>
      <point x="398.5263157894737" y="157.86842105263156" type="line"/>
      <point x="374.3421052631579" y="144.31578947368422"/>
      <point x="348.39473684210526" y="135.57894736842104"/>
      <point x="330.4736842105263" y="135.57894736842104" type="curve" smooth="yes"/>
      <point x="289.2894736842105" y="135.57894736842104"/>
      <point x="272.0526315789474" y="164.78947368421052"/>
      <point x="272.0526315789474" y="219.68421052631578" type="curve" smooth="yes"/>
      <point x="272.0526315789474" y="455.5263157894737" type="line"/>
      <point x="272.0526315789474" y="550.0"/>
      <point x="276.94736842105266" y="616.0263157894738"/>
      <point x="287.10526315789474" y="696.0" type="curve"/>
      <point x="72.63157894736844" y="661.3421052631579" type="line"/>
      <point x="82.15789473684211" y="594.0"/>
      <point x="87.86842105263159" y="535.4736842105264"/>
      <point x="87.86842105263159" y="455.5263157894737" type="curve"/>
      <point x="87.86842105263159" y="308.7631578947369"/>
      <point x="83.60526315789475" y="228.5263157894737"/>
      <point x="83.60526315789475" y="157.23684210526315" type="curve" smooth="yes"/>
      <point x="83.60526315789475" y="30.13157894736842"/>
      <point x="150.3684210526316" y="-14.710526315789473"/>
    </contour>
    <contour>
      <point x="15.131578947368421" y="347.1578947368421" type="line"/>
      <point x="144.26315789473685" y="366.0263157894737" type="line"/>
      <point x="228.94736842105263" y="366.0263157894737" type="line"/>
      <point x="284.7105263157895" y="364.39473684210526"/>
      <point x="346.2894736842105" y="358.5"/>
      <point x="406.5" y="347.1578947368421" type="curve"/>
      <point x="406.5" y="500.5263157894737" type="line"/>
      <point x="15.131578947368421" y="500.5263157894737" type="line"/>
    </contour>
  </outline>
</glyph>
<glyph name="u" format="2">
  <advance width="586.5263157894738"/>
  <unicode hex="0075"/>
  <anchor x="290.5" y="0.0" name="bottom"/>
  <anchor x="544.3947368421053" y="0.0" name="ogonek"/>
  <anchor x="290.5" y="500.5263157894737" name="top"/>
  <anchor x="564.5" y="500.5263157894737" name="topright"/>
  <outline>
    <contour>
      <point x="194.68421052631578" y="-14.710526315789473" type="curve" smooth="yes"/>
      <point x="247.36842105263156" y="-14.710526315789473"/>
      <point x="309.50000000000006" y="23.63157894736842"/>
      <point x="351.2105263157894" y="75.42105263157895" type="curve"/>
      <point x="366.1842105263158" y="75.42105263157895" type="line"/>
      <point x="374.89473684210526" y="0.0" type="line"/>
      <point x="549.2894736842105" y="0.0" type="line"/>
      <point x="538.9473684210526" y="70.10526315789474"/>
      <point x="534.0526315789474" y="131.0263157894737"/>
      <point x="534.0526315789474" y="214.47368421052633" type="curve"/>
      <point x="534.0526315789474" y="272.63157894736844" type="line"/>
      <point x="534.0526315789474" y="369.13157894736844"/>
      <point x="540.578947368421" y="430.42105263157896"/>
      <point x="550.921052631579" y="500.5263157894737" type="curve"/>
      <point x="333.8157894736842" y="500.5263157894737" type="line"/>
      <point x="341.7105263157895" y="430.42105263157896"/>
      <point x="347.42105263157896" y="369.13157894736844"/>
      <point x="347.42105263157896" y="297.10526315789474" type="curve"/>
      <point x="347.42105263157896" y="195.5" type="line"/>
      <point x="329.2368421052632" y="172.44736842105263"/>
      <point x="295.0" y="150.26315789473682"/>
      <point x="278.07894736842104" y="150.26315789473682" type="curve" smooth="yes"/>
      <point x="241.36842105263156" y="150.26315789473682"/>
      <point x="229.3157894736842" y="179.8684210526316"/>
      <point x="229.3157894736842" y="242.42105263157896" type="curve"/>
      <point x="229.3157894736842" y="297.10526315789474" type="line"/>
      <point x="229.3157894736842" y="369.13157894736844"/>
      <point x="234.21052631578945" y="435.6842105263158"/>
      <point x="242.92105263157893" y="505.7894736842105" type="curve"/>
      <point x="25.815789473684212" y="500.5263157894737" type="line"/>
      <point x="35.3421052631579" y="430.42105263157896"/>
      <point x="42.68421052631579" y="369.13157894736844"/>
      <point x="42.68421052631579" y="272.63157894736844" type="curve"/>
      <point x="42.68421052631579" y="235.47368421052633"/>
      <point x="40.05263157894737" y="206.28947368421052"/>
      <point x="40.05263157894737" y="162.47368421052633" type="curve" smooth="yes"/>
      <point x="40.05263157894737" y="43.578947368421055"/>
      <point x="95.92105263157895" y="-14.710526315789473"/>
    </contour>
  </outline>
</glyph>
<glyph name="v" format="2">
  <advance width="566.9736842105264"/>
  <unicode hex="0076"/>
  <outline>
    <contour>
      <point x="176.05263157894737" y="0.0" type="curve"/>
      <point x="391.36842105263156" y="0.0" type="line"/>
      <point x="405.39473684210526" y="62.81578947368421"/>
      <point x="425.94736842105266" y="125.44736842105263"/>
      <point x="447.5" y="188.26315789473685" type="curve"/>
      <point x="478.2368421052632" y="277.89473684210526" type="line"/>
      <point x="503.7894736842105" y="351.7105263157895"/>
      <point x="530.3421052631578" y="426.7105263157895"/>
      <point x="564.9736842105262" y="500.5263157894737" type="curve"/>
      <point x="348.94736842105266" y="500.5263157894737" type="line"/>
      <point x="342.86842105263156" y="443.42105263157896"/>
      <point x="330.7105263157895" y="381.7894736842105"/>
      <point x="317.3684210526316" y="318.60526315789474" type="curve"/>
      <point x="292.42105263157896" y="200.60526315789474" type="line"/>
      <point x="278.2631578947369" y="200.60526315789474" type="line"/>
      <point x="253.3157894736842" y="318.60526315789474" type="line"/>
      <point x="239.9736842105263" y="381.7894736842105"/>
      <point x="228.6315789473684" y="443.42105263157896"/>
      <point x="221.73684210526315" y="505.7894736842105" type="curve"/>
      <point x="2.000000000000001" y="500.5263157894737" type="line"/>
      <point x="36.71052631578947" y="426.89473684210526"/>
      <point x="63.44736842105263" y="351.89473684210526"/>
      <point x="89.00000000000001" y="278.2631578947368" type="curve"/>
      <point x="119.73684210526316" y="189.44736842105263" type="line"/>
      <point x="141.1052631578947" y="127.0"/>
      <point x="161.21052631578948" y="62.81578947368421"/>
    </contour>
  </outline>
</glyph>
<glyph name="w" format="2">
  <advance width="850.2631578947368"/>
  <unicode hex="0077"/>
  <anchor x="424.1842105263158" y="0.0" name="bottom"/>
  <anchor x="424.1842105263158" y="500.5263157894737" name="top"/>
  <outline>
    <contour>
      <point x="154.8684210526316" y="0.0" type="curve"/>
      <point x="367.7368421052632" y="0.0" type="line"/>
      <point x="372.7105263157895" y="50.8421052631579"/>
      <point x="381.86842105263156" y="106.42105263157895"/>
      <point x="391.92105263157896" y="155.89473684210526" type="curve"/>
      <point x="411.8421052631579" y="252.6578947368421" type="line"/>
      <point x="424.36842105263156" y="252.6578947368421" type="line"/>
      <point x="445.10526315789474" y="157.07894736842104" type="line"/>
      <point x="456.1578947368421" y="107.60526315789474"/>
      <point x="467.9473684210526" y="50.8421052631579"/>
      <point x="473.92105263157896" y="0.0" type="curve"/>
      <point x="695.9473684210527" y="0.0" type="line"/>
      <point x="708.421052631579" y="61.0"/>
      <point x="725.3421052631579" y="126.63157894736842"/>
      <point x="745.5263157894736" y="191.44736842105263" type="curve"/>
      <point x="772.8947368421052" y="279.2631578947368" type="line"/>
      <point x="796.078947368421" y="352.89473684210526"/>
      <point x="819.4473684210526" y="425.89473684210526"/>
      <point x="851.5263157894738" y="500.5263157894737" type="curve"/>
      <point x="630.7894736842105" y="500.5263157894737" type="line"/>
      <point x="626.0" y="444.6315789473684"/>
      <point x="617.2894736842105" y="374.7105263157895"/>
      <point x="606.0526315789474" y="313.07894736842104" type="curve"/>
      <point x="583.7631578947369" y="191.81578947368422" type="line"/>
      <point x="570.6052631578947" y="191.81578947368422" type="line"/>
      <point x="548.3157894736842" y="311.2631578947368" type="line"/>
      <point x="537.078947368421" y="373.89473684210526"/>
      <point x="526.2894736842105" y="439.89473684210526"/>
      <point x="519.5" y="500.5263157894737" type="curve"/>
      <point x="335.47368421052636" y="500.5263157894737" type="line"/>
      <point x="328.5" y="437.3421052631579"/>
      <point x="318.07894736842104" y="374.3421052631579"/>
      <point x="306.8421052631579" y="310.89473684210526" type="curve"/>
      <point x="284.92105263157896" y="191.81578947368422" type="line"/>
      <point x="271.7631578947368" y="191.81578947368422" type="line"/>
      <point x="248.8421052631579" y="309.9736842105263" type="line"/>
      <point x="236.60526315789474" y="372.60526315789474"/>
      <point x="225.44736842105263" y="443.3421052631579"/>
      <point x="219.28947368421052" y="505.7894736842105" type="curve"/>
      <point x="-1.2631578947368407" y="500.5263157894737" type="line"/>
      <point x="31.631578947368425" y="425.7105263157895"/>
      <point x="55.631578947368425" y="353.89473684210526"/>
      <point x="78.1842105263158" y="279.2631578947368" type="curve"/>
      <point x="104.92105263157895" y="190.44736842105263" type="line"/>
      <point x="124.47368421052632" y="126.44736842105263"/>
      <point x="142.21052631578948" y="62.81578947368421"/>
    </contour>
  </outline>
</glyph>
<glyph name="x" format="2">
  <advance width="594.0263157894736"/>
  <unicode hex="0078"/>
  <outline>
    <contour>
      <point x="6.447368421052633" y="0.0" type="curve"/>
      <point x="230.73684210526315" y="0.0" type="line"/>
      <point x="238.6315789473684" y="35.94736842105263"/>
      <point x="246.05263157894737" y="60.526315789473685"/>
      <point x="257.7631578947368" y="95.65789473684211" type="curve"/>
      <point x="282.07894736842104" y="161.73684210526318" type="line"/>
      <point x="293.60526315789474" y="161.73684210526318" type="line"/>
      <point x="321.6578947368421" y="91.65789473684211" type="line"/>
      <point x="334.36842105263156" y="59.1578947368421"/>
      <point x="342.7894736842106" y="32.94736842105263"/>
      <point x="351.6842105263158" y="0.0" type="curve"/>
      <point x="591.6578947368421" y="0.0" type="line"/>
      <point x="540.2894736842105" y="67.89473684210526"/>
      <point x="513.1842105263158" y="109.34210526315789"/>
      <point x="482.7105263157895" y="158.60526315789474" type="curve"/>
      <point x="408.39473684210526" y="279.57894736842104" type="line"/>
      <point x="418.36842105263156" y="241.92105263157896" type="line"/>
      <point x="485.13157894736844" y="351.0" type="line"/>
      <point x="516.421052631579" y="402.44736842105266"/>
      <point x="536.1578947368421" y="434.07894736842104"/>
      <point x="583.2631578947369" y="500.5263157894737" type="curve"/>
      <point x="357.9736842105263" y="500.5263157894737" type="line"/>
      <point x="350.07894736842104" y="463.7631578947368"/>
      <point x="341.0263157894737" y="437.55263157894734"/>
      <point x="328.2368421052632" y="402.3421052631579" type="curve"/>
      <point x="303.0263157894737" y="338.8157894736842" type="line"/>
      <point x="290.0526315789474" y="338.8157894736842" type="line"/>
      <point x="263.2105263157895" y="403.7894736842105" type="line"/>
      <point x="249.60526315789474" y="438.1842105263158"/>
      <point x="238.1052631578947" y="469.2894736842105"/>
      <point x="229.65789473684208" y="505.7894736842105" type="curve"/>
      <point x="3.105263157894739" y="500.5263157894737" type="line"/>
      <point x="48.39473684210526" y="437.7105263157895"/>
      <point x="72.13157894736842" y="399.44736842105266"/>
      <point x="101.15789473684211" y="349.44736842105266" type="curve"/>
      <point x="163.8421052631579" y="241.18421052631578" type="line"/>
      <point x="163.6578947368421" y="279.2105263157895" type="line"/>
      <point x="102.05263157894737" y="161.23684210526315" type="line"/>
      <point x="74.02631578947368" y="108.15789473684211"/>
      <point x="52.73684210526316" y="70.71052631578948"/>
    </contour>
  </outline>
</glyph>
<glyph name="y" format="2">
  <advance width="567.7105263157895"/>
  <unicode hex="0079"/>
  <anchor x="467.4736842105263" y="0.0" name="bottom"/>
  <anchor x="285.89473684210526" y="500.5263157894737" name="top"/>
  <outline>
    <contour>
      <point x="86.36842105263159" y="-197.26315789473685" type="curve"/>
      <point x="307.2894736842105" y="-192.0" type="line"/>
      <point x="325.5" y="-120.0"/>
      <point x="356.6842105263158" y="-35.73684210526316"/>
      <point x="405.2368421052631" y="91.26315789473684" type="curve"/>
      <point x="458.7894736842105" y="231.89473684210526" type="line"/>
      <point x="506.3421052631579" y="357.7105263157895"/>
      <point x="530.5263157894736" y="419.5263157894737"/>
      <point x="565.7105263157894" y="500.5263157894737" type="curve"/>
      <point x="351.3157894736842" y="500.5263157894737" type="line"/>
      <point x="345.0526315789474" y="437.7105263157895"/>
      <point x="332.7105263157895" y="377.7105263157895"/>
      <point x="318.36842105263156" y="314.5263157894737" type="curve"/>
      <point x="291.0526315789474" y="194.07894736842104" type="line"/>
      <point x="276.89473684210526" y="194.07894736842104" type="line"/>
      <point x="252.31578947368422" y="315.1578947368421" type="line"/>
      <point x="239.1578947368421" y="380.1578947368421"/>
      <point x="227.36842105263156" y="440.7894736842105"/>
      <point x="220.92105263157896" y="505.7894736842105" type="curve"/>
      <point x="2.000000000000001" y="500.5263157894737" type="line"/>
      <point x="34.44736842105264" y="429.5263157894737"/>
      <point x="61.81578947368421" y="353.5263157894737"/>
      <point x="87.1842105263158" y="280.89473684210526" type="curve"/>
      <point x="117.92105263157895" y="190.89473684210526" type="line"/>
      <point x="141.28947368421052" y="124.07894736842105"/>
      <point x="165.8421052631579" y="53.078947368421055"/>
      <point x="181.05263157894737" y="-15.736842105263158" type="curve"/>
      <point x="189.39473684210526" y="16.394736842105264" type="line"/>
      <point x="162.76315789473682" y="-53.131578947368425"/>
      <point x="129.86842105263156" y="-127.73684210526316"/>
    </contour>
  </outline>
</glyph>
<glyph name="z" format="2">
  <advance width="526.0526315789474"/>
  <unicode hex="007A"/>
  <anchor x="261.8421052631579" y="0.0" name="bottom"/>
  <anchor x="261.8421052631579" y="250.26315789473685" name="center"/>
  <anchor x="261.8421052631579" y="500.5263157894737" name="top"/>
  <outline>
    <contour>
      <point x="27.68421052631579" y="0.0" type="line"/>
      <point x="499.10526315789474" y="0.0" type="line"/>
      <point x="499.10526315789474" y="156.6315789473684" type="line"/>
      <point x="445.5" y="142.39473684210526"/>
      <point x="373.2368421052631" y="135.68421052631578"/>
      <point x="329.5526315789474" y="135.68421052631578" type="curve"/>
      <point x="233.26315789473685" y="135.68421052631578" type="line"/>
      <point x="252.1315789473684" y="95.6842105263158" type="line"/>
      <point x="365.2368421052631" y="242.76315789473685" type="line"/>
      <point x="401.2894736842106" y="289.2894736842105"/>
      <point x="449.89473684210526" y="343.2105263157894"/>
      <point x="485.36842105263156" y="376.8157894736842" type="curve"/>
      <point x="485.36842105263156" y="500.5263157894737" type="line"/>
      <point x="33.39473684210526" y="500.5263157894737" type="line"/>
      <point x="33.39473684210526" y="339.8157894736842" type="line"/>
      <point x="92.1842105263158" y="356.6842105263158"/>
      <point x="167.07894736842104" y="364.0263157894737"/>
      <point x="210.57894736842104" y="364.0263157894737" type="curve"/>
      <point x="299.57894736842104" y="364.0263157894737" type="line"/>
      <point x="276.2631578947369" y="412.2105263157895" type="line"/>
      <point x="155.18421052631578" y="253.07894736842104" type="line"/>
      <point x="121.3157894736842" y="208.1052631578947"/>
      <point x="77.44736842105263" y="157.84210526315792"/>
      <point x="27.68421052631579" y="108.65789473684211" type="curve"/>
    </contour>
  </outline>
</glyph>
<glyph name="braceleft" format="2">
  <advance width="468.2631578947368"/>
  <unicode hex="007B"/>
  <outline>
    <contour>
      <point x="333.9473684210526" y="-126.6842105263158" type="curve" smooth="yes"/>
      <point x="441.9473684210526" y="-126.6842105263158" type="line"/>
      <point x="441.9473684210526" y="24.236842105263158" type="line"/>
      <point x="407.9473684210526" y="20.789473684210524"/>
      <point x="381.13157894736844" y="19.973684210526315"/>
      <point x="364.13157894736844" y="19.973684210526315" type="curve"/>
      <point x="323.57894736842104" y="22.605263157894736"/>
      <point x="306.1578947368421" y="42.368421052631575"/>
      <point x="304.5263157894737" y="83.97368421052632" type="curve" smooth="yes"/>
      <point x="301.07894736842104" y="170.3684210526316" type="line" smooth="yes"/>
      <point x="297.0" y="247.55263157894737"/>
      <point x="270.07894736842104" y="291.39473684210526"/>
      <point x="202.1578947368421" y="319.36842105263156" type="curve"/>
      <point x="202.1578947368421" y="332.7105263157895" type="line"/>
      <point x="270.07894736842104" y="361.3157894736842"/>
      <point x="297.0" y="402.07894736842104"/>
      <point x="301.07894736842104" y="481.5263157894737" type="curve" smooth="yes"/>
      <point x="304.5263157894737" y="568.1052631578948" type="line" smooth="yes"/>
      <point x="306.1578947368421" y="609.7105263157895"/>
      <point x="323.57894736842104" y="629.4736842105264"/>
      <point x="364.13157894736844" y="632.1052631578948" type="curve"/>
      <point x="381.3157894736842" y="632.1052631578948"/>
      <point x="407.5" y="631.2894736842106"/>
      <point x="437.86842105263156" y="627.8421052631579" type="curve"/>
      <point x="437.86842105263156" y="778.7631578947369" type="line"/>
      <point x="333.9473684210526" y="778.7631578947369" type="line" smooth="yes"/>
      <point x="208.23684210526315" y="778.7631578947369"/>
      <point x="127.13157894736842" y="715.8157894736842"/>
      <point x="127.13157894736842" y="603.1842105263158" type="curve"/>
      <point x="127.13157894736842" y="559.7631578947369"/>
      <point x="132.21052631578948" y="517.1578947368421"/>
      <point x="132.21052631578948" y="473.7368421052632" type="curve"/>
      <point x="132.21052631578948" y="418.2105263157895"/>
      <point x="103.6842105263158" y="391.0263157894737"/>
      <point x="60.84210526315789" y="391.0263157894737" type="curve" smooth="yes"/>
      <point x="18.157894736842103" y="391.0263157894737" type="line"/>
      <point x="18.157894736842103" y="260.86842105263156" type="line"/>
      <point x="60.84210526315789" y="260.86842105263156" type="line" smooth="yes"/>
      <point x="103.6842105263158" y="260.86842105263156"/>
      <point x="132.21052631578948" y="233.68421052631578"/>
      <point x="132.21052631578948" y="178.1578947368421" type="curve"/>
      <point x="132.21052631578948" y="134.73684210526315"/>
      <point x="127.13157894736842" y="92.3157894736842"/>
      <point x="127.13157894736842" y="48.89473684210526" type="curve"/>
      <point x="127.13157894736842" y="-63.73684210526316"/>
      <point x="208.23684210526315" y="-126.6842105263158"/>
    </contour>
  </outline>
</glyph>
<glyph name="bar" format="2">
  <advance width="292.42105263157896"/>
  <unicode hex="007C"/>
  <outline>
    <contour>
      <point x="55.78947368421053" y="-162.1578947368421" type="curve"/>
      <point x="236.6315789473684" y="-162.1578947368421" type="line"/>
      <point x="227.28947368421052" y="-44.1578947368421"/>
      <point x="226.4736842105263" y="58.8421052631579"/>
      <point x="226.4736842105263" y="166.8421052631579" type="curve"/>
      <point x="226.4736842105263" y="448.8421052631579" type="line"/>
      <point x="226.4736842105263" y="556.8421052631579"/>
      <point x="227.28947368421052" y="659.8421052631579"/>
      <point x="236.6315789473684" y="777.8421052631579" type="curve"/>
      <point x="55.78947368421053" y="777.8421052631579" type="line"/>
      <point x="65.13157894736842" y="659.8421052631579"/>
      <point x="65.94736842105263" y="556.8421052631579"/>
      <point x="65.94736842105263" y="448.8421052631579" type="curve"/>
      <point x="65.94736842105263" y="166.8421052631579" type="line"/>
      <point x="65.94736842105263" y="58.8421052631579"/>
      <point x="65.13157894736842" y="-44.1578947368421"/>
    </contour>
  </outline>
</glyph>
<glyph name="asciitilde" format="2">
  <advance width="584.4736842105264"/>
  <unicode hex="007E"/>
  <outline>
    <contour>
      <point x="408.13157894736844" y="197.10526315789474" type="curve" smooth="yes"/>
      <point x="488.42105263157896" y="197.10526315789474"/>
      <point x="538.9473684210526" y="273.63157894736844"/>
      <point x="538.9473684210526" y="397.8421052631579" type="curve"/>
      <point x="431.63157894736844" y="397.8421052631579" type="line"/>
      <point x="422.10526315789474" y="372.8421052631579"/>
      <point x="409.7894736842105" y="359.0"/>
      <point x="387.36842105263156" y="356.1842105263158" type="curve"/>
      <point x="339.2105263157895" y="360.63157894736844"/>
      <point x="267.9473684210526" y="418.1842105263158"/>
      <point x="183.05263157894737" y="418.1842105263158" type="curve" smooth="yes"/>
      <point x="97.86842105263158" y="418.1842105263158"/>
      <point x="45.526315789473685" y="340.8421052631579"/>
      <point x="45.526315789473685" y="217.44736842105263" type="curve"/>
      <point x="152.8421052631579" y="217.44736842105263" type="line"/>
      <point x="162.36842105263156" y="242.44736842105263"/>
      <point x="177.31578947368422" y="256.2894736842105"/>
      <point x="201.36842105263156" y="259.10526315789474" type="curve"/>
      <point x="245.44736842105263" y="254.6578947368421"/>
      <point x="320.7894736842106" y="197.10526315789474"/>
    </contour>
  </outline>
</glyph>
<glyph name="cent" format="2">
  <advance width="479.1578947368421"/>
  <unicode hex="00A2"/>
  <outline>
    <contour>
      <point x="338.5" y="55.52631578947367" type="curve"/>
      <point x="222.21052631578948" y="55.52631578947367" type="line"/>
      <point x="222.0263157894737" y="2.921052631578945"/>
      <point x="218.57894736842104" y="-50.23684210526316"/>
      <point x="212.05263157894737" y="-110.10526315789473" type="curve"/>
      <point x="348.6578947368421" y="-110.10526315789473" type="line"/>
      <point x="342.13157894736844" y="-50.23684210526316"/>
      <point x="338.6842105263158" y="2.921052631578945"/>
    </contour>
    <contour>
      <point x="216.5" y="425.7105263157895" type="curve"/>
      <point x="344.2105263157895" y="425.7105263157895" type="line"/>
      <point x="344.2105263157895" y="490.4736842105263"/>
      <point x="347.65789473684214" y="556.0526315789474"/>
      <point x="353.5526315789474" y="627.078947368421" type="curve"/>
      <point x="207.1578947368421" y="627.078947368421" type="line"/>
      <point x="213.05263157894737" y="556.0526315789474"/>
      <point x="216.5" y="490.4736842105263"/>
    </contour>
    <contour>
      <point x="295.0263157894737" y="-11.447368421052632" type="curve" smooth="yes"/>
      <point x="351.39473684210526" y="-11.447368421052632"/>
      <point x="410.7368421052632" y="2.3947368421052637"/>
      <point x="450.63157894736844" y="10.68421052631579" type="curve"/>
      <point x="442.8157894736842" y="169.86842105263156" type="line"/>
      <point x="408.5" y="150.39473684210526"/>
      <point x="368.8421052631579" y="139.6578947368421"/>
      <point x="343.9736842105263" y="139.6578947368421" type="curve" smooth="yes"/>
      <point x="264.7894736842106" y="141.0263157894737"/>
      <point x="216.18421052631578" y="184.0"/>
      <point x="216.18421052631578" y="254.52631578947367" type="curve" smooth="yes"/>
      <point x="216.18421052631578" y="318.10526315789474"/>
      <point x="253.76315789473685" y="355.60526315789474"/>
      <point x="305.7894736842105" y="358.60526315789474" type="curve"/>
      <point x="328.5263157894737" y="358.60526315789474"/>
      <point x="376.1842105263158" y="346.60526315789474"/>
      <point x="439.36842105263156" y="316.7894736842105" type="curve"/>
      <point x="452.15789473684214" y="480.05263157894734" type="line"/>
      <point x="410.07894736842104" y="495.05263157894734"/>
      <point x="347.2631578947369" y="514.6052631578947"/>
      <point x="283.57894736842104" y="514.6052631578947" type="curve" smooth="yes"/>
      <point x="112.47368421052632" y="514.6052631578947"/>
      <point x="26.10526315789474" y="401.9736842105263"/>
      <point x="26.10526315789474" y="248.81578947368422" type="curve" smooth="yes"/>
      <point x="26.10526315789474" y="96.65789473684211"/>
      <point x="125.3421052631579" y="-11.447368421052632"/>
    </contour>
  </outline>
</glyph>
<glyph name="sterling" format="2">
  <advance width="614.8947368421052"/>
  <unicode hex="00A3"/>
  <outline>
    <contour>
      <point x="42.36842105263158" y="0.0" type="line"/>
      <point x="583.9736842105264" y="0.0" type="line"/>
      <point x="583.9736842105264" y="186.36842105263156" type="line"/>
      <point x="504.7631578947368" y="170.3157894736842"/>
      <point x="435.7368421052632" y="168.68421052631578"/>
      <point x="316.60526315789474" y="168.68421052631578" type="curve"/>
      <point x="185.73684210526315" y="168.68421052631578" type="line"/>
      <point x="198.89473684210526" y="140.71052631578948" type="line"/>
      <point x="303.1842105263158" y="206.21052631578945"/>
      <point x="310.8157894736842" y="260.9736842105263"/>
      <point x="310.8157894736842" y="309.5526315789474" type="curve" smooth="yes"/>
      <point x="310.8157894736842" y="426.1842105263158" type="line" smooth="yes"/>
      <point x="310.8157894736842" y="503.7368421052632"/>
      <point x="347.60526315789474" y="537.3684210526316"/>
      <point x="411.9473684210526" y="540.8157894736842" type="curve"/>
      <point x="434.6842105263158" y="540.8157894736842"/>
      <point x="481.5263157894737" y="529.6315789473684"/>
      <point x="543.8947368421053" y="502.2631578947369" type="curve"/>
      <point x="561.9473684210526" y="670.2368421052631" type="line"/>
      <point x="520.5" y="685.2368421052631"/>
      <point x="458.5" y="704.1578947368421"/>
      <point x="395.4473684210526" y="704.1578947368421" type="curve" smooth="yes"/>
      <point x="201.10526315789474" y="704.1578947368421"/>
      <point x="109.94736842105263" y="607.3157894736842"/>
      <point x="109.94736842105263" y="432.63157894736844" type="curve" smooth="yes"/>
      <point x="109.94736842105263" y="370.39473684210526"/>
      <point x="113.39473684210526" y="309.1578947368421"/>
      <point x="113.39473684210526" y="247.73684210526315" type="curve"/>
      <point x="113.39473684210526" y="209.9736842105263"/>
      <point x="109.21052631578948" y="157.92105263157893"/>
      <point x="42.36842105263158" y="102.86842105263158" type="curve"/>
    </contour>
    <contour>
      <point x="47.23684210526316" y="291.13157894736844" type="line"/>
      <point x="119.10526315789474" y="297.2105263157895"/>
      <point x="187.1578947368421" y="298.0263157894737"/>
      <point x="246.39473684210526" y="298.0263157894737" type="curve"/>
      <point x="287.8157894736842" y="298.0263157894737" type="line"/>
      <point x="347.0526315789474" y="298.0263157894737"/>
      <point x="415.10526315789474" y="297.2105263157895"/>
      <point x="486.9736842105263" y="291.13157894736844" type="curve"/>
      <point x="486.9736842105263" y="432.4473684210526" type="line"/>
      <point x="415.10526315789474" y="426.36842105263156"/>
      <point x="347.0526315789474" y="425.55263157894734"/>
      <point x="287.8157894736842" y="425.55263157894734" type="curve"/>
      <point x="246.39473684210526" y="425.55263157894734" type="line"/>
      <point x="187.1578947368421" y="425.55263157894734"/>
      <point x="119.10526315789474" y="426.36842105263156"/>
      <point x="47.23684210526316" y="432.4473684210526" type="curve"/>
    </contour>
  </outline>
</glyph>
<glyph name="currency" format="2">
  <advance width="668.5263157894736"/>
  <unicode hex="00A4"/>
  <outline>
    <contour>
      <point x="333.07894736842104" y="86.76315789473685" type="curve" smooth="yes"/>
      <point x="479.42105263157896" y="86.76315789473685"/>
      <point x="581.6315789473684" y="167.28947368421052"/>
      <point x="581.6315789473684" y="321.63157894736844" type="curve" smooth="yes"/>
      <point x="581.6315789473684" y="457.4736842105263"/>
      <point x="479.60526315789474" y="553.421052631579"/>
      <point x="335.07894736842104" y="553.421052631579" type="curve" smooth="yes"/>
      <point x="188.55263157894737" y="553.421052631579"/>
      <point x="86.52631578947368" y="461.36842105263156"/>
      <point x="86.52631578947368" y="321.63157894736844" type="curve" smooth="yes"/>
      <point x="86.52631578947368" y="168.10526315789474"/>
      <point x="188.55263157894737" y="86.76315789473685"/>
    </contour>
    <contour>
      <point x="144.26315789473685" y="3.394736842105263" type="line"/>
      <point x="190.60526315789474" y="58.44736842105263"/>
      <point x="237.76315789473682" y="107.23684210526315"/>
      <point x="279.7368421052631" y="149.21052631578948" type="curve"/>
      <point x="163.28947368421052" y="265.6578947368421" type="line"/>
      <point x="121.3157894736842" y="223.68421052631578"/>
      <point x="72.52631578947368" y="176.5263157894737"/>
      <point x="17.47368421052632" y="130.18421052631578" type="curve"/>
    </contour>
    <contour>
      <point x="333.89473684210526" y="236.23684210526315" type="curve"/>
      <point x="286.2368421052632" y="241.5"/>
      <point x="250.68421052631578" y="268.2894736842105"/>
      <point x="250.68421052631578" y="320.8157894736842" type="curve" smooth="yes"/>
      <point x="250.68421052631578" y="367.3421052631579"/>
      <point x="286.42105263157896" y="399.50000000000006"/>
      <point x="334.2631578947368" y="404.7631578947369" type="curve"/>
      <point x="382.7368421052631" y="399.50000000000006"/>
      <point x="417.4736842105263" y="365.7105263157895"/>
      <point x="417.4736842105263" y="320.8157894736842" type="curve" smooth="yes"/>
      <point x="417.4736842105263" y="268.2894736842105"/>
      <point x="381.92105263157896" y="241.5"/>
    </contour>
    <contour>
      <point x="164.92105263157896" y="376.3421052631579" type="curve"/>
      <point x="278.10526315789474" y="489.5263157894737" type="line"/>
      <point x="236.13157894736844" y="531.5"/>
      <point x="188.97368421052633" y="580.2894736842105"/>
      <point x="142.6315789473684" y="635.3421052631579" type="curve"/>
      <point x="19.10526315789474" y="511.8157894736842" type="line"/>
      <point x="74.15789473684211" y="465.4736842105263"/>
      <point x="122.94736842105263" y="418.3157894736842"/>
    </contour>
    <contour>
      <point x="525.8947368421052" y="5.026315789473688" type="curve"/>
      <point x="649.421052631579" y="128.55263157894737" type="line"/>
      <point x="594.3684210526316" y="174.89473684210526"/>
      <point x="545.578947368421" y="222.05263157894737"/>
      <point x="503.60526315789474" y="264.0263157894737" type="curve"/>
      <point x="390.42105263157896" y="150.8421052631579" type="line"/>
      <point x="432.39473684210526" y="108.86842105263159"/>
      <point x="479.55263157894734" y="60.078947368421055"/>
    </contour>
    <contour>
      <point x="505.2368421052631" y="374.7105263157895" type="line"/>
      <point x="547.2105263157895" y="416.6842105263158"/>
      <point x="596.0" y="463.84210526315786"/>
      <point x="651.0526315789474" y="510.1842105263158" type="curve"/>
      <point x="524.2631578947368" y="636.9736842105262" type="line"/>
      <point x="477.92105263157896" y="581.9210526315788"/>
      <point x="430.7631578947368" y="533.1315789473684"/>
      <point x="388.7894736842105" y="491.1578947368421" type="curve"/>
    </contour>
  </outline>
</glyph>
<glyph name="yen" format="2">
  <advance width="668.2631578947369"/>
  <unicode hex="00A5"/>
  <outline>
    <contour>
      <point x="241.3157894736842" y="232.5263157894737" type="line"/>
      <point x="430.2105263157895" y="232.5263157894737" type="line"/>
      <point x="563.8157894736843" y="510.0526315789474" type="line"/>
      <point x="591.7368421052632" y="568.2105263157895"/>
      <point x="622.8421052631578" y="630.7368421052631"/>
      <point x="666.8157894736842" y="688.8947368421053" type="curve"/>
      <point x="421.6842105263158" y="688.8947368421053" type="line"/>
      <point x="408.63157894736844" y="618.2631578947369"/>
      <point x="397.0263157894737" y="584.578947368421"/>
      <point x="377.2105263157895" y="528.6052631578948" type="curve"/>
      <point x="343.97368421052636" y="435.3157894736842" type="line"/>
      <point x="328.1842105263158" y="435.3157894736842" type="line"/>
      <point x="296.7631578947369" y="527.6052631578948" type="line"/>
      <point x="277.57894736842104" y="583.1315789473684"/>
      <point x="266.9736842105263" y="616.6315789473684"/>
      <point x="254.73684210526315" y="688.8947368421053" type="curve"/>
      <point x="-0.1842105263157876" y="688.8947368421053" type="line"/>
      <point x="58.526315789473685" y="600.2894736842105"/>
      <point x="80.3421052631579" y="561.578947368421"/>
      <point x="106.07894736842105" y="509.2368421052632" type="curve"/>
    </contour>
    <contour>
      <point x="222.8157894736842" y="0.0" type="curve"/>
      <point x="449.7105263157895" y="0.0" type="line"/>
      <point x="435.2894736842106" y="72.28947368421052"/>
      <point x="434.47368421052636" y="135.21052631578948"/>
      <point x="434.47368421052636" y="221.47368421052633" type="curve"/>
      <point x="434.47368421052636" y="392.9473684210526" type="line"/>
      <point x="237.86842105263156" y="392.9473684210526" type="line"/>
      <point x="237.86842105263156" y="221.47368421052633" type="line"/>
      <point x="237.86842105263156" y="135.21052631578948"/>
      <point x="237.05263157894737" y="72.28947368421052"/>
    </contour>
    <contour>
      <point x="67.42105263157895" y="101.34210526315789" type="line"/>
      <point x="139.28947368421052" y="107.42105263157895"/>
      <point x="207.3421052631579" y="108.23684210526315"/>
      <point x="266.57894736842104" y="108.23684210526315" type="curve"/>
      <point x="404.3157894736842" y="108.23684210526315" type="line"/>
      <point x="463.5526315789474" y="108.23684210526315"/>
      <point x="531.6052631578948" y="107.42105263157895"/>
      <point x="603.4736842105264" y="101.34210526315789" type="curve"/>
      <point x="603.4736842105264" y="222.26315789473685" type="line"/>
      <point x="531.6052631578948" y="220.26315789473685"/>
      <point x="463.5526315789474" y="219.44736842105263"/>
      <point x="404.3157894736842" y="219.44736842105263" type="curve"/>
      <point x="266.57894736842104" y="219.44736842105263" type="line"/>
      <point x="207.3421052631579" y="219.44736842105263"/>
      <point x="139.28947368421052" y="220.26315789473685"/>
      <point x="67.42105263157895" y="222.26315789473685" type="curve"/>
    </contour>
    <contour>
      <point x="67.42105263157895" y="275.39473684210526" type="line"/>
      <point x="139.28947368421052" y="277.39473684210526"/>
      <point x="207.3421052631579" y="278.2105263157895"/>
      <point x="266.57894736842104" y="278.2105263157895" type="curve"/>
      <point x="404.3157894736842" y="278.2105263157895" type="line"/>
      <point x="463.5526315789474" y="278.2105263157895"/>
      <point x="531.6052631578948" y="277.39473684210526"/>
      <point x="603.4736842105264" y="275.39473684210526" type="curve"/>
      <point x="603.4736842105264" y="396.3157894736842" type="line"/>
      <point x="531.6052631578948" y="390.2368421052632"/>
      <point x="463.5526315789474" y="389.42105263157896"/>
      <point x="404.3157894736842" y="389.42105263157896" type="curve"/>
      <point x="266.57894736842104" y="389.42105263157896" type="line"/>
      <point x="207.3421052631579" y="389.42105263157896"/>
      <point x="139.28947368421052" y="390.2368421052632"/>
      <point x="67.42105263157895" y="396.3157894736842" type="curve"/>
    </contour>
  </outline>
</glyph>
<glyph name="brokenbar" format="2">
  <advance width="292.42105263157896"/>
  <unicode hex="00A6"/>
  <outline>
    <contour>
      <point x="65.94736842105263" y="357.8421052631579" type="line"/>
      <point x="226.4736842105263" y="357.8421052631579" type="line"/>
      <point x="226.4736842105263" y="448.8421052631579" type="line"/>
      <point x="226.4736842105263" y="556.8421052631579"/>
      <point x="227.28947368421052" y="659.8421052631579"/>
      <point x="236.6315789473684" y="777.8421052631579" type="curve"/>
      <point x="55.78947368421053" y="777.8421052631579" type="line"/>
      <point x="65.13157894736842" y="659.8421052631579"/>
      <point x="65.94736842105263" y="556.8421052631579"/>
      <point x="65.94736842105263" y="448.8421052631579" type="curve"/>
    </contour>
    <contour>
      <point x="55.78947368421053" y="-162.1578947368421" type="curve"/>
      <point x="236.6315789473684" y="-162.1578947368421" type="line"/>
      <point x="227.28947368421052" y="-44.1578947368421"/>
      <point x="226.4736842105263" y="58.8421052631579"/>
      <point x="226.4736842105263" y="166.8421052631579" type="curve"/>
      <point x="226.4736842105263" y="257.8421052631579" type="line"/>
      <point x="65.94736842105263" y="257.8421052631579" type="line"/>
      <point x="65.94736842105263" y="166.8421052631579" type="line"/>
      <point x="65.94736842105263" y="58.8421052631579"/>
      <point x="65.13157894736842" y="-44.1578947368421"/>
    </contour>
  </outline>
</glyph>
<glyph name="section" format="2">
  <advance width="598.990291262136"/>
  <unicode hex="00A7"/>
  <outline>
    <contour>
      <point x="248.98058252427182" y="-133.28155339805824" type="curve" smooth="yes"/>
      <point x="426.7864077669903" y="-133.28155339805824"/>
      <point x="502.36893203883494" y="-61.92233009708738"/>
      <point x="502.36893203883494" y="47.98058252427184" type="curve" smooth="yes"/>
      <point x="502.36893203883494" y="149.66019417475727"/>
      <point x="447.2718446601942" y="193.90291262135923"/>
      <point x="314.68932038834953" y="229.90291262135923" type="curve" smooth="yes"/>
      <point x="242.2135922330097" y="249.62135922330097"/>
      <point x="218.7766990291262" y="267.67961165048547"/>
      <point x="218.7766990291262" y="304.81553398058253" type="curve" smooth="yes"/>
      <point x="218.7766990291262" y="341.9126213592233"/>
      <point x="250.19417475728156" y="366.00970873786406"/>
      <point x="277.9514563106796" y="369.02912621359224" type="curve"/>
      <point x="199.4660194174757" y="477.3398058252427" type="line"/>
      <point x="88.67961165048544" y="454.0"/>
      <point x="27.13592233009709" y="385.3398058252427"/>
      <point x="27.13592233009709" y="302.41747572815535" type="curve" smooth="yes"/>
      <point x="27.13592233009709" y="213.11650485436894"/>
      <point x="78.85436893203884" y="162.15533980582524"/>
      <point x="190.4757281553398" y="131.79611650485435" type="curve" smooth="yes"/>
      <point x="284.97087378640776" y="105.71844660194175"/>
      <point x="313.04854368932035" y="94.35922330097087"/>
      <point x="313.04854368932035" y="57.90291262135922" type="curve" smooth="yes"/>
      <point x="313.04854368932035" y="19.669902912621353"/>
      <point x="277.8932038834952" y="6.631067961165044"/>
      <point x="236.03883495145632" y="4.631067961165044" type="curve"/>
      <point x="181.35922330097088" y="4.631067961165044"/>
      <point x="102.75728155339806" y="29.271844660194166"/>
      <point x="37.41747572815534" y="61.27184466019417" type="curve"/>
      <point x="26.4368932038835" y="-95.24271844660196" type="line"/>
      <point x="73.77669902912622" y="-107.60194174757281"/>
      <point x="149.07766990291262" y="-133.28155339805824"/>
    </contour>
    <contour>
      <point x="410.24271844660194" y="122.03883495145631" type="line"/>
      <point x="524.6699029126213" y="153.6990291262136"/>
      <point x="575.2330097087379" y="221.64077669902912"/>
      <point x="575.2330097087379" y="297.6407766990291" type="curve" smooth="yes"/>
      <point x="575.2330097087379" y="388.3009708737864"/>
      <point x="520.1359223300971" y="428.32038834951453"/>
      <point x="387.55339805825247" y="464.3203883495146" type="curve" smooth="yes"/>
      <point x="315.0776699029126" y="484.0388349514563"/>
      <point x="291.64077669902906" y="502.0970873786408"/>
      <point x="291.64077669902906" y="532.8737864077669" type="curve" smooth="yes"/>
      <point x="291.64077669902906" y="572.1067961165048"/>
      <point x="330.1941747572816" y="582.4660194174758"/>
      <point x="357.97087378640776" y="584.4660194174758" type="curve"/>
      <point x="385.63106796116506" y="584.4660194174758"/>
      <point x="454.2718446601942" y="567.8058252427185"/>
      <point x="528.5922330097087" y="532.8058252427184" type="curve"/>
      <point x="539.8932038834952" y="693.9417475728155" type="line"/>
      <point x="490.5728155339806" y="705.6407766990292"/>
      <point x="392.3883495145631" y="728.3203883495146"/>
      <point x="320.46601941747576" y="728.3203883495146" type="curve" smooth="yes"/>
      <point x="179.94174757281553" y="728.3203883495146"/>
      <point x="99.66019417475728" y="657.0194174757282"/>
      <point x="99.66019417475728" y="544.1165048543689" type="curve" smooth="yes"/>
      <point x="99.66019417475728" y="451.75728155339806"/>
      <point x="154.7766990291262" y="394.19417475728153"/>
      <point x="263.3398058252427" y="365.873786407767" type="curve" smooth="yes"/>
      <point x="357.495145631068" y="341.1553398058253"/>
      <point x="385.9126213592233" y="320.1359223300971"/>
      <point x="385.9126213592233" y="282.32038834951453" type="curve" smooth="yes"/>
      <point x="385.9126213592233" y="244.2621359223301"/>
      <point x="358.2135922330097" y="223.76699029126212"/>
      <point x="320.15533980582524" y="218.3883495145631" type="curve"/>
    </contour>
  </outline>
</glyph>
<glyph name="ordfeminine" format="2">
  <advance width="409.24271844660194"/>
  <unicode hex="00AA"/>
  <outline>
    <contour>
      <point x="132.11650485436894" y="327.6990291262136" type="curve" smooth="yes"/>
      <point x="177.79611650485438" y="327.6990291262136"/>
      <point x="219.85436893203882" y="359.3592233009708"/>
      <point x="244.21359223300968" y="394.0388349514563" type="curve"/>
      <point x="253.19417475728156" y="394.0388349514563" type="line"/>
      <point x="266.2135922330097" y="337.0194174757281" type="line"/>
      <point x="396.7864077669903" y="337.0194174757281" type="line"/>
      <point x="378.1456310679612" y="386.9805825242718"/>
      <point x="372.7864077669903" y="433.92233009708735"/>
      <point x="372.7864077669903" y="472.56310679611653" type="curve"/>
      <point x="372.7864077669903" y="498.0194174757282" type="line" smooth="yes"/>
      <point x="372.7864077669903" y="524.7184466019417"/>
      <point x="375.4466019417476" y="565.0388349514562"/>
      <point x="375.4466019417476" y="590.3592233009708" type="curve" smooth="yes"/>
      <point x="375.4466019417476" y="687.6601941747573"/>
      <point x="315.8252427184466" y="728.3203883495146"/>
      <point x="220.24271844660194" y="728.3203883495146" type="curve" smooth="yes"/>
      <point x="153.01941747572815" y="728.3203883495146"/>
      <point x="85.05825242718447" y="709.6601941747573"/>
      <point x="46.398058252427184" y="700.3203883495146" type="curve"/>
      <point x="51.71844660194175" y="578.990291262136" type="line"/>
      <point x="99.09708737864078" y="600.3495145631068"/>
      <point x="164.71844660194176" y="616.6699029126213"/>
      <point x="181.39805825242718" y="616.6699029126213" type="curve" smooth="yes"/>
      <point x="231.41747572815532" y="616.6699029126213"/>
      <point x="252.53398058252424" y="603.3300970873786"/>
      <point x="250.85436893203885" y="575.7766990291261" type="curve"/>
      <point x="146.07766990291262" y="555.4174757281554" type="line" smooth="yes"/>
      <point x="106.96116504854369" y="548.0582524271845"/>
      <point x="29.39805825242719" y="523.9805825242719"/>
      <point x="29.39805825242719" y="433.0194174757281" type="curve" smooth="yes"/>
      <point x="29.39805825242719" y="375.3398058252427"/>
      <point x="63.4368932038835" y="327.6990291262136"/>
    </contour>
    <contour>
      <point x="193.8640776699029" y="432.04854368932035" type="curve" smooth="yes"/>
      <point x="174.72815533980582" y="432.04854368932035"/>
      <point x="156.65048543689318" y="443.0873786407767"/>
      <point x="156.65048543689318" y="467.86407766990294" type="curve" smooth="yes"/>
      <point x="156.65048543689318" y="493.9805825242718"/>
      <point x="178.10679611650485" y="505.0194174757282"/>
      <point x="198.9029126213592" y="510.69902912621353" type="curve" smooth="yes"/>
      <point x="230.45631067961165" y="519.3980582524272"/>
      <point x="238.51456310679612" y="523.4174757281554"/>
      <point x="247.53398058252426" y="531.0776699029127" type="curve"/>
      <point x="247.53398058252424" y="465.24271844660194" type="line"/>
      <point x="234.13592233009706" y="444.1067961165049"/>
      <point x="210.9611650485437" y="432.04854368932035"/>
    </contour>
  </outline>
</glyph>
<glyph name="logicalnot" format="2">
  <advance width="584.4736842105264"/>
  <unicode hex="00AC"/>
  <outline>
    <contour>
      <point x="366.63157894736844" y="47.868421052631575" type="curve"/>
      <point x="545.8421052631579" y="47.868421052631575" type="line"/>
      <point x="539.7631578947368" y="119.73684210526316"/>
      <point x="538.9473684210526" y="187.78947368421052"/>
      <point x="538.9473684210526" y="247.0263157894737" type="curve"/>
      <point x="538.9473684210526" y="393.57894736842104" type="line"/>
      <point x="467.07894736842104" y="387.5"/>
      <point x="399.0263157894737" y="386.6842105263158"/>
      <point x="339.7894736842105" y="386.6842105263158" type="curve"/>
      <point x="244.68421052631578" y="386.6842105263158" type="line"/>
      <point x="185.44736842105263" y="386.6842105263158"/>
      <point x="117.39473684210526" y="387.5"/>
      <point x="45.526315789473685" y="393.57894736842104" type="curve"/>
      <point x="45.526315789473685" y="219.26315789473685" type="line"/>
      <point x="117.39473684210526" y="225.3421052631579"/>
      <point x="185.44736842105263" y="226.1578947368421"/>
      <point x="244.68421052631578" y="226.1578947368421" type="curve"/>
      <point x="339.7894736842105" y="226.1578947368421" type="line"/>
      <point x="391.13157894736844" y="226.1578947368421"/>
      <point x="450.4736842105263" y="225.3421052631579"/>
      <point x="512.6315789473684" y="219.26315789473685" type="curve"/>
      <point x="373.5263157894737" y="340.7894736842105" type="line"/>
      <point x="373.5263157894737" y="247.0263157894737" type="line"/>
      <point x="373.5263157894737" y="187.78947368421052"/>
      <point x="372.7105263157895" y="119.73684210526316"/>
    </contour>
  </outline>
</glyph>
<glyph name="plusminus" format="2">
  <advance width="584.4736842105264"/>
  <unicode hex="00B1"/>
  <outline>
    <contour>
      <point x="45.526315789473685" y="-6.894736842105263" type="line"/>
      <point x="117.39473684210526" y="-0.8157894736842105"/>
      <point x="185.44736842105263" y="0.0"/>
      <point x="244.68421052631578" y="0.0" type="curve"/>
      <point x="339.7894736842105" y="0.0" type="line"/>
      <point x="399.0263157894737" y="0.0"/>
      <point x="467.07894736842104" y="-0.8157894736842105"/>
      <point x="538.9473684210526" y="-6.894736842105263" type="curve"/>
      <point x="538.9473684210526" y="167.42105263157893" type="line"/>
      <point x="467.07894736842104" y="161.3421052631579"/>
      <point x="399.0263157894737" y="160.52631578947367"/>
      <point x="339.7894736842105" y="160.52631578947367" type="curve"/>
      <point x="244.68421052631578" y="160.52631578947367" type="line"/>
      <point x="185.44736842105263" y="160.52631578947367"/>
      <point x="117.39473684210526" y="161.3421052631579"/>
      <point x="45.526315789473685" y="167.42105263157893" type="curve"/>
    </contour>
    <contour>
      <point x="45.526315789473685" y="363.2368421052632" type="line"/>
      <point x="117.39473684210526" y="369.3157894736842"/>
      <point x="185.44736842105263" y="370.13157894736844"/>
      <point x="244.68421052631578" y="370.13157894736844" type="curve"/>
      <point x="339.7894736842105" y="370.13157894736844" type="line"/>
      <point x="399.0263157894737" y="370.13157894736844"/>
      <point x="467.07894736842104" y="369.3157894736842"/>
      <point x="538.9473684210526" y="363.2368421052632" type="curve"/>
      <point x="538.9473684210526" y="537.5526315789474" type="line"/>
      <point x="467.07894736842104" y="531.4736842105262"/>
      <point x="399.0263157894737" y="530.6578947368421"/>
      <point x="339.7894736842105" y="530.6578947368421" type="curve"/>
      <point x="244.68421052631578" y="530.6578947368421" type="line"/>
      <point x="185.44736842105263" y="530.6578947368421"/>
      <point x="117.39473684210526" y="531.4736842105262"/>
      <point x="45.526315789473685" y="537.5526315789474" type="curve"/>
    </contour>
    <contour>
      <point x="202.63157894736844" y="208.1578947368421" type="curve"/>
      <point x="381.84210526315786" y="208.1578947368421" type="line"/>
      <point x="375.7631578947368" y="280.0263157894737"/>
      <point x="374.9473684210526" y="348.07894736842104"/>
      <point x="374.9473684210526" y="407.3157894736842" type="curve"/>
      <point x="374.9473684210526" y="493.4736842105263" type="line"/>
      <point x="374.9473684210526" y="552.7105263157895"/>
      <point x="375.7631578947368" y="620.7631578947369"/>
      <point x="381.84210526315786" y="692.6315789473684" type="curve"/>
      <point x="202.63157894736844" y="692.6315789473684" type="line"/>
      <point x="208.71052631578948" y="620.7631578947369"/>
      <point x="209.5263157894737" y="552.7105263157895"/>
      <point x="209.5263157894737" y="493.4736842105263" type="curve"/>
      <point x="209.5263157894737" y="407.3157894736842" type="line"/>
      <point x="209.5263157894737" y="348.07894736842104"/>
      <point x="208.71052631578948" y="280.0263157894737"/>
    </contour>
  </outline>
</glyph>
<glyph name="micro" format="2">
  <advance width="583.2631578947369"/>
  <unicode hex="00B5"/>
  <outline>
    <contour>
      <point x="27.447368421052637" y="-197.26315789473685" type="curve"/>
      <point x="248.6315789473684" y="-192.0" type="line"/>
      <point x="235.02631578947367" y="-121.89473684210526"/>
      <point x="229.3157894736842" y="-60.973684210526315"/>
      <point x="229.3157894736842" y="11.868421052631579" type="curve" smooth="yes"/>
      <point x="229.3157894736842" y="24.526315789473685" type="line"/>
      <point x="144.73684210526315" y="24.526315789473685" type="line"/>
      <point x="164.6578947368421" y="-2.8684210526315788"/>
      <point x="193.05263157894737" y="-14.710526315789473"/>
      <point x="228.94736842105263" y="-14.710526315789473" type="curve" smooth="yes"/>
      <point x="269.39473684210526" y="-14.710526315789473"/>
      <point x="322.7368421052631" y="25.263157894736842"/>
      <point x="355.4736842105263" y="77.05263157894737" type="curve"/>
      <point x="370.4473684210526" y="77.05263157894737" type="line"/>
      <point x="388.47368421052636" y="0.0" type="line"/>
      <point x="565.8684210526316" y="0.0" type="line"/>
      <point x="540.7105263157895" y="66.05263157894737"/>
      <point x="534.0526315789474" y="126.36842105263158"/>
      <point x="534.0526315789474" y="180.23684210526315" type="curve"/>
      <point x="534.0526315789474" y="272.63157894736844" type="line"/>
      <point x="534.0526315789474" y="368.94736842105266"/>
      <point x="543.578947368421" y="430.60526315789474"/>
      <point x="538.5" y="500.5263157894737" type="curve"/>
      <point x="333.8157894736842" y="500.5263157894737" type="line"/>
      <point x="341.7105263157895" y="430.42105263157896"/>
      <point x="347.4210526315789" y="369.13157894736844"/>
      <point x="347.4210526315789" y="297.10526315789474" type="curve"/>
      <point x="347.4210526315789" y="195.5" type="line"/>
      <point x="329.2368421052632" y="172.44736842105263"/>
      <point x="295.0" y="150.26315789473682"/>
      <point x="278.07894736842104" y="150.26315789473682" type="curve" smooth="yes"/>
      <point x="241.3684210526316" y="150.26315789473682"/>
      <point x="229.3157894736842" y="179.8684210526316"/>
      <point x="229.3157894736842" y="242.42105263157896" type="curve"/>
      <point x="229.3157894736842" y="297.10526315789474" type="line"/>
      <point x="229.3157894736842" y="369.13157894736844"/>
      <point x="237.21052631578945" y="435.6842105263158"/>
      <point x="235.39473684210523" y="505.7894736842105" type="curve"/>
      <point x="25.815789473684216" y="500.5263157894737" type="line"/>
      <point x="35.3421052631579" y="430.42105263157896"/>
      <point x="42.684210526315795" y="369.13157894736844"/>
      <point x="42.684210526315795" y="272.63157894736844" type="curve"/>
      <point x="42.684210526315795" y="22.473684210526315" type="line"/>
      <point x="42.684210526315795" y="-60.973684210526315"/>
      <point x="36.97368421052632" y="-127.15789473684211"/>
    </contour>
  </outline>
</glyph>
<glyph name="paragraph" format="2">
  <advance width="597.0526315789474"/>
  <unicode hex="00B6"/>
  <outline>
    <contour>
      <point x="215.21052631578948" y="273.0263157894737" type="curve" smooth="yes"/>
      <point x="236.0263157894737" y="273.0263157894737" type="line"/>
      <point x="236.0263157894737" y="713.0" type="line"/>
      <point x="215.21052631578948" y="713.0" type="line"/>
      <point x="91.52631578947368" y="713.0"/>
      <point x="19.605263157894736" y="622.0263157894736"/>
      <point x="19.605263157894736" y="496.42105263157896" type="curve" smooth="yes"/>
      <point x="19.605263157894736" y="377.8157894736842"/>
      <point x="83.71052631578948" y="273.0263157894737"/>
    </contour>
    <contour>
      <point x="211.57894736842104" y="-176.44736842105263" type="curve"/>
      <point x="341.0263157894737" y="-176.44736842105263" type="line"/>
      <point x="334.13157894736844" y="-58.44736842105263"/>
      <point x="333.3157894736842" y="44.55263157894737"/>
      <point x="333.3157894736842" y="152.55263157894737" type="curve"/>
      <point x="333.3157894736842" y="384.0" type="line"/>
      <point x="333.3157894736842" y="492.0"/>
      <point x="334.13157894736844" y="595.0"/>
      <point x="343.4736842105263" y="713.0" type="curve"/>
      <point x="221.73684210526315" y="713.0" type="line"/>
      <point x="221.73684210526315" y="595.0"/>
      <point x="221.73684210526315" y="492.0"/>
      <point x="221.73684210526315" y="384.0" type="curve"/>
      <point x="221.73684210526315" y="152.55263157894737" type="line"/>
      <point x="221.73684210526315" y="44.55263157894737"/>
      <point x="220.92105263157893" y="-58.44736842105263"/>
    </contour>
    <contour>
      <point x="392.9736842105263" y="-176.44736842105263" type="curve"/>
      <point x="522.421052631579" y="-176.44736842105263" type="line"/>
      <point x="513.078947368421" y="-58.44736842105263"/>
      <point x="512.2631578947369" y="44.55263157894737"/>
      <point x="512.2631578947369" y="152.55263157894737" type="curve"/>
      <point x="512.2631578947369" y="384.0" type="line"/>
      <point x="512.2631578947369" y="492.0"/>
      <point x="513.078947368421" y="595.0"/>
      <point x="522.421052631579" y="713.0" type="curve"/>
      <point x="390.5263157894737" y="713.0" type="line"/>
      <point x="399.86842105263156" y="595.0"/>
      <point x="400.6842105263158" y="492.0"/>
      <point x="400.6842105263158" y="384.0" type="curve"/>
      <point x="400.6842105263158" y="152.55263157894737" type="line"/>
      <point x="400.6842105263158" y="44.55263157894737"/>
      <point x="399.86842105263156" y="-58.44736842105263"/>
    </contour>
    <contour>
      <point x="280.9473684210526" y="609.578947368421" type="line"/>
      <point x="376.0526315789474" y="609.578947368421" type="line"/>
      <point x="435.2894736842105" y="609.578947368421"/>
      <point x="503.3421052631579" y="608.7631578947369"/>
      <point x="575.2105263157895" y="602.6842105263157" type="curve"/>
      <point x="575.2105263157895" y="713.0" type="line"/>
      <point x="503.3421052631579" y="713.0"/>
      <point x="435.2894736842105" y="713.0"/>
      <point x="376.0526315789474" y="713.0" type="curve"/>
      <point x="280.9473684210526" y="713.0" type="line"/>
    </contour>
  </outline>
</glyph>
<glyph name="AE" format="2">
  <advance width="1012.4271844660194"/>
  <unicode hex="00C6"/>
  <anchor x="572.6504854368932" y="0.0" name="bottom"/>
  <anchor x="572.6504854368932" y="713.0" name="top"/>
  <outline>
    <contour>
      <point x="-0.26213592233009564" y="0.0" type="curve"/>
      <point x="241.22330097087377" y="0.0" type="line"/>
      <point x="258.0388349514563" y="72.07766990291263"/>
      <point x="283.49514563106794" y="152.1359223300971"/>
      <point x="312.5922330097087" y="223.53398058252426" type="curve"/>
      <point x="443.7378640776699" y="549.9029126213592" type="line"/>
      <point x="472.6796116504854" y="549.9029126213592" type="line"/>
      <point x="604.8932038834951" y="549.9029126213592" type="line"/>
      <point x="627.1359223300971" y="713.0" type="line"/>
      <point x="314.8640776699029" y="713.0" type="line"/>
      <point x="293.7864077669903" y="637.6796116504855"/>
      <point x="267.4077669902913" y="570.0388349514562"/>
      <point x="230.66990291262135" y="487.0" type="curve"/>
      <point x="121.51456310679612" y="242.0" type="line"/>
      <point x="87.79611650485437" y="165.6601941747573"/>
      <point x="43.757281553398066" y="75.33980582524272"/>
    </contour>
    <contour>
      <point x="233.02912621359224" y="131.97087378640776" type="line"/>
      <point x="557.3883495145631" y="131.97087378640776" type="line"/>
      <point x="538.4660194174758" y="284.44660194174753" type="line"/>
      <point x="255.93203883495144" y="284.44660194174753" type="line"/>
    </contour>
    <contour>
      <point x="455.7378640776699" y="0.0" type="curve"/>
      <point x="689.5631067961165" y="0.0" type="line"/>
      <point x="689.5631067961165" y="33.20388349514563" type="line"/>
      <point x="678.2621359223301" y="108.5631067961165"/>
      <point x="673.2815533980582" y="173.92233009708738"/>
      <point x="673.2815533980582" y="263.90291262135923" type="curve"/>
      <point x="673.2815533980582" y="441.13592233009706" type="line"/>
      <point x="673.2815533980582" y="534.4368932038834"/>
      <point x="678.2621359223301" y="602.1165048543689"/>
      <point x="689.5631067961165" y="679.7961165048544" type="curve"/>
      <point x="689.5631067961165" y="713.0" type="line"/>
      <point x="455.7378640776699" y="713.0" type="line"/>
      <point x="466.0388349514563" y="635.3203883495146"/>
      <point x="471.6796116504854" y="567.6407766990291"/>
      <point x="471.6796116504854" y="474.3398058252427" type="curve"/>
      <point x="471.6796116504854" y="230.6990291262136" type="line"/>
      <point x="471.6796116504854" y="140.37864077669903"/>
      <point x="466.0388349514563" y="75.35922330097087"/>
    </contour>
    <contour>
      <point x="651.0194174757281" y="0.0" type="line"/>
      <point x="968.0097087378641" y="0.0" type="line"/>
      <point x="968.0097087378641" y="180.07766990291262" type="line"/>
      <point x="905.6116504854368" y="167.1165048543689"/>
      <point x="839.2135922330096" y="164.45631067961165"/>
      <point x="764.1359223300972" y="164.45631067961165" type="curve"/>
      <point x="651.0194174757281" y="164.45631067961165" type="line"/>
    </contour>
    <contour>
      <point x="625.7961165048544" y="283.5728155339806" type="line"/>
      <point x="751.873786407767" y="283.5728155339806" type="line"/>
      <point x="833.5922330097087" y="283.5728155339806"/>
      <point x="889.2912621359222" y="281.9126213592233"/>
      <point x="949.3300970873786" y="274.6116504854369" type="curve"/>
      <point x="949.3300970873786" y="443.1067961165049" type="line"/>
      <point x="892.2912621359222" y="434.46601941747576"/>
      <point x="836.5922330097087" y="432.80582524271847"/>
      <point x="751.8737864077669" y="432.80582524271847" type="curve"/>
      <point x="625.7961165048544" y="432.80582524271847" type="line"/>
    </contour>
    <contour>
      <point x="638.0776699029126" y="548.5436893203884" type="line"/>
      <point x="750.1747572815534" y="548.5436893203884" type="line"/>
      <point x="840.5922330097087" y="548.5436893203884"/>
      <point x="903.6504854368932" y="543.5631067961166"/>
      <point x="962.3689320388349" y="532.9223300970873" type="curve"/>
      <point x="962.3689320388349" y="713.0" type="line"/>
      <point x="638.0776699029126" y="713.0" type="line"/>
    </contour>
  </outline>
</glyph>
